<?xml version="1.0" encoding="utf-8"?>
<!-- Generator: Adobe Illustrator 23.1.0, SVG Export Plug-In . SVG Version: 6.00 Build 0)  -->
<svg version="1.1" id="Layer_1" xmlns="http://www.w3.org/2000/svg" xmlns:xlink="http://www.w3.org/1999/xlink" x="0px" y="0px"
	 viewBox="0 0 273.4 400" style="enable-background:new 0 0 273.4 400;" xml:space="preserve">
<style type="text/css">
	.st0{fill:#181C4C;}
</style>
<g id="White">
</g>
<g>
	<g>
		<path class="st0" d="M132,326.8c1.4,1.4,3,2,4.8,2s3.5-0.7,4.8-2l43.5-43.3c2.6-2.6,2.6-6.9,0-9.7c-2.6-2.6-6.9-2.6-9.7,0
			l-31.8,31.8V201.8c0-3.8-3-6.8-6.8-6.8s-6.8,3-6.8,6.8v103.8L98,273.9c-2.6-2.6-6.9-2.6-9.7,0c-2.6,2.6-2.6,6.9,0,9.7L132,326.8z"
			/>
		<path class="st0" d="M209,149.5c-2.7-1.8-6.4-1-8.1,1.8c-1.8,2.7-1,6.4,1.8,8.1c35.1,22.6,56,60.9,56,102.6
			c0,67.3-54.8,122-122,122c-67.3-0.1-121.9-54.8-121.9-122c0-41.5,20.8-79.8,55.6-102.4c2.7-1.8,3.5-5.4,1.8-8.1
			c-1.8-2.7-5.4-3.5-8.1-1.8C25.8,174.5,3,216.4,3,261.9C3,335.6,63,395.5,136.7,395.5s133.7-59.9,133.7-133.7
			C270.4,216.2,247.5,174.2,209,149.5z"/>
		<ellipse class="st0" cx="136.7" cy="156.1" rx="10.7" ry="10.7"/>
		<ellipse class="st0" cx="136.7" cy="120.1" rx="10.7" ry="10.7"/>
		<ellipse class="st0" cx="136.7" cy="49.5" rx="45.1" ry="45.1"/>
	</g>
</g>
</svg>
