<svg id="Layer_1" data-name="Layer 1" xmlns="http://www.w3.org/2000/svg" viewBox="0 0 988.7 263.75"><defs><style>.cls-1{fill:#f7f0e4;}</style></defs><title>text_publication</title><g id="Live_your_best_authentic_life_possible" data-name="Live your best authentic life possible"><g id="Group_109" data-name="Group 109"><path id="Path_171" data-name="Path 171" class="cls-1" d="M21.9,253.1a6.68,6.68,0,0,1-3.42,1.82,8.16,8.16,0,0,1-4.19.13,12.05,12.05,0,0,1-3.23-1.34A11.85,11.85,0,0,1,8.79,252a5.42,5.42,0,0,1-.92-1c-.14-.52.1-1,.72-1.49,1.44,1.48,2.58,2.26,3.41,2.35a5.76,5.76,0,0,0,2.11-.09q1.65-.44,3.12-2.95a1.8,1.8,0,0,1,1.15-.77,2.58,2.58,0,0,1,2,.59A3.83,3.83,0,0,1,22,250.85,3.35,3.35,0,0,1,21.9,253.1Zm2.32,8.49a6.68,6.68,0,0,1-3.42,1.82,8.16,8.16,0,0,1-4.19.13,13.11,13.11,0,0,1-3.27-1.32A11.47,11.47,0,0,1,11,260.5a5.21,5.21,0,0,1-.93-1.06c-.14-.52.1-1,.72-1.49,1.5,1.47,2.67,2.24,3.5,2.34a5.71,5.71,0,0,0,2-.07,3.62,3.62,0,0,0,2.09-1.43q.78-1.1,1.11-1.59a1.87,1.87,0,0,1,1.16-.72,2.58,2.58,0,0,1,2,.58,3.11,3.11,0,0,1,1.41,1.68,5.51,5.51,0,0,1,.11,2.85Z"/><path id="Path_172" data-name="Path 172" class="cls-1" d="M5.43,223.56q-.52-3.83-1.57-8.22a2.12,2.12,0,0,1,1-.32,2.76,2.76,0,0,1,1.18,0,8.05,8.05,0,0,0,.72,2.62c.32.62.58,1,.76,1a6.18,6.18,0,0,0,2.38.17c.9-.09,2-.22,3.22-.39l22.61-3.08a11.22,11.22,0,0,0,3.84-1.06q1.1-.69.63-4l-.52-3.82a7.38,7.38,0,0,0-2.55-5.15,16,16,0,0,0-6.09-2.48c-.24,0-.39-.21-.44-.57a3.26,3.26,0,0,1,.09-2c.81.19,1.69.37,2.66.54l2.83.52a26.4,26.4,0,0,0,5,.77q1.41,10.32,2.81,20.65l1.18,8a3.36,3.36,0,0,1-2.14.29,11.22,11.22,0,0,0-.38-1.49c-.35-1.28-.76-2-1.2-2.2a19.69,19.69,0,0,0-5.58.31l-21.64,3a20.91,20.91,0,0,0-5.46,1.19q-.88.75-.45,4a2.85,2.85,0,0,1-1.14.34,2.12,2.12,0,0,1-1.09,0A84.92,84.92,0,0,0,5.43,223.56Z"/><path id="Path_173" data-name="Path 173" class="cls-1" d="M4.32,187A4.15,4.15,0,0,1,0,183a.92.92,0,0,1,0-.16,4.27,4.27,0,0,1,1.15-3.08,4,4,0,0,1,3-1.32,4.12,4.12,0,0,1,3.08,1.19,4.19,4.19,0,0,1,1.33,3,4,4,0,0,1-1.2,3A4.19,4.19,0,0,1,4.32,187Zm10.94-9.58a26.91,26.91,0,0,0,3.33.56l13.48-.29a24.73,24.73,0,0,0,5.15-.38,1.58,1.58,0,0,0,.89-.74,7,7,0,0,0,.38-1,10,10,0,0,0,.14-1.89,2.88,2.88,0,0,1,1.16-.21,2.21,2.21,0,0,1,1.08.16c-.23,3-.33,5.58-.28,7.73q.07,3.69.62,8.16a2.18,2.18,0,0,1-1.07.21,2.73,2.73,0,0,1-1.17-.16,7.09,7.09,0,0,0-.47-2.77,2.9,2.9,0,0,0-.69-1.07,20.12,20.12,0,0,0-5.58-.33l-7.73.17a19.58,19.58,0,0,0-2.15.22,7.36,7.36,0,0,0-1.79.4c-.77.44-1.13,1.7-1.09,3.8,0,.12-.37.17-.94.15s-.85-.08-.86-.2a29.3,29.3,0,0,0-1.44-6.62,43.08,43.08,0,0,0-2-4.9,1.88,1.88,0,0,1,.44-.64c.24-.24.41-.37.53-.37Z"/><path id="Path_174" data-name="Path 174" class="cls-1" d="M17,146.69a46,46,0,0,0,1.27-6,45,45,0,0,0,.55-6.13,1.78,1.78,0,0,1,1-.08,1.79,1.79,0,0,1,1.12.4,6.76,6.76,0,0,0,.18,3.34,3.27,3.27,0,0,0,1.06,1.66l17.83,11.94c2,1.46,3,2.48,2.9,3.07,0,.18-.21.4-.55.65l-23.34,7.21A3.26,3.26,0,0,0,17,164.45a8.11,8.11,0,0,0-.7,1.66,1.75,1.75,0,0,1-1.15.06,2.4,2.4,0,0,1-1-.38c.13-.4.32-1.3.59-2.69s.47-2.44.62-3.17.36-2.13.67-4.17a33,33,0,0,0,.42-5.25c.15-.16.5-.2,1.06-.12a1.63,1.63,0,0,1,1.07.44,5.72,5.72,0,0,0,.12,1.65c.17,1.3.49,2,1,2.05l.35.06a1,1,0,0,0,.56-.1L33,150.19,23.44,144a7.71,7.71,0,0,0-2-.94,1,1,0,0,0-1,.44,4.6,4.6,0,0,0-.74,1.29,16.34,16.34,0,0,0-.51,2.2,1.79,1.79,0,0,1-1.05,0A2.25,2.25,0,0,1,17,146.69Z"/><path id="Path_175" data-name="Path 175" class="cls-1" d="M42.25,107.41q-1.91,5.06-5.42,13.14,5,2.34,8.62.69a8.52,8.52,0,0,0,4.8-8.06,15.85,15.85,0,0,0-.71-3.12.89.89,0,0,1,1.19-.23,2.42,2.42,0,0,1,1.05.84,11,11,0,0,1,.78,1.71,13.08,13.08,0,0,1,.7,2.82,11.68,11.68,0,0,1-.69,6.93,15.22,15.22,0,0,1-3.07,4.51,11.84,11.84,0,0,1-3.92,2.51,12,12,0,0,1-9.78-.54,14.45,14.45,0,0,1-7.41-7.88q-2.34-5.78-.22-10.24,2.26-4.78,6.3-6a8.34,8.34,0,0,1,6.28.39A3.1,3.1,0,0,1,42.1,106,1.38,1.38,0,0,1,42.25,107.41Zm-7.53,12.14.48-1.12c.27-.63.56-1.34.86-2.13a39.73,39.73,0,0,0,1.52-3.85c.18-.51,0-.9-.59-1.17a11.7,11.7,0,0,0-1.9-.7,6,6,0,0,0-2-.24c-1.48,0-2.44.52-2.89,1.47a3.41,3.41,0,0,0-.28,2.6,7.66,7.66,0,0,0,1.17,2.25A10.75,10.75,0,0,0,34.72,119.55Z"/><path id="Path_176" data-name="Path 176" class="cls-1" d="M71.18,62.93a44,44,0,0,0,5.2-3.31,44.68,44.68,0,0,0,4.78-3.9c.16,0,.42.25.76.67a1.81,1.81,0,0,1,.5,1.08,6.7,6.7,0,0,0-2.26,2.47,3.31,3.31,0,0,0-.44,1.92l5.13,27.66a24,24,0,0,1-.28,9.73,7.25,7.25,0,0,1-2.46,4.11,4.47,4.47,0,0,1-3.07,1,3.15,3.15,0,0,1-2.26-1.36,3.2,3.2,0,0,1-.4-2.86,17.39,17.39,0,0,0,4.18-4,8.25,8.25,0,0,0,1-5.5,27.28,27.28,0,0,0-.75-4.56L61.16,75.6a3.22,3.22,0,0,0-2.69-.27,8.38,8.38,0,0,0-1.68.66,1.68,1.68,0,0,1-.84-.78,2.35,2.35,0,0,1-.43-1c.38-.19,1.15-.68,2.33-1.46L60.55,71c.62-.41,1.77-1.22,3.45-2.44a32.61,32.61,0,0,0,4-3.37c.21,0,.49.22.82.68a1.63,1.63,0,0,1,.44,1.07,5.66,5.66,0,0,0-1.1,1.24c-.81,1-1.07,1.73-.79,2.12l.21.29a.86.86,0,0,0,.46.33l11.79,5.89L77.56,65.63a7.66,7.66,0,0,0-.75-2.12,1.06,1.06,0,0,0-1-.38,4.71,4.71,0,0,0-1.44.38,16.52,16.52,0,0,0-1.93,1.17c-.17,0-.42-.27-.75-.73A2.29,2.29,0,0,1,71.18,62.93Z"/><path id="Path_177" data-name="Path 177" class="cls-1" d="M103.42,44.76a15.49,15.49,0,0,1,5.5-1.47,13.32,13.32,0,0,1,5.21.66,12.61,12.61,0,0,1,7.47,6.93,13.44,13.44,0,0,1,.42,10.5,13,13,0,0,1-7.19,7.79,13.6,13.6,0,0,1-10.75.73A12.85,12.85,0,0,1,96.61,63a13.48,13.48,0,0,1-.46-10.39A13.23,13.23,0,0,1,103.42,44.76Zm.36,2.5q-3.66,1.71-1.27,7.93a34.53,34.53,0,0,0,1.34,3.33,25.42,25.42,0,0,0,1.94,3.41,13.34,13.34,0,0,0,2.62,3q3.25,3,5.86,1.74,3.83-1.77,1.56-7.95c-.43-1.05-.89-2.13-1.4-3.22a23.53,23.53,0,0,0-2-3.43,14.55,14.55,0,0,0-2.68-3C107.57,47,105.58,46.43,103.78,47.26Z"/><path id="Path_178" data-name="Path 178" class="cls-1" d="M140.94,33.39a32.38,32.38,0,0,0,9.88-6.67,1.55,1.55,0,0,1,.82.19c.31.15.48.28.52.39a13.88,13.88,0,0,0,.34,2.4,23.94,23.94,0,0,0,.77,3.11l4.34,12.76a11.43,11.43,0,0,0,.45,1.18,1.5,1.5,0,0,0,.78.77c.46.23,1.37.11,2.73-.35A2.08,2.08,0,0,1,162,48a1.6,1.6,0,0,1,0,1.1,36.06,36.06,0,0,0-5.18,2.9q-3.51,2.23-3.76,2.32c-.34.11-.67-.28-1-1.18l-.32-.94c-.08-.23-.16-.29-.26-.2a15.57,15.57,0,0,1-7.1,5.07q-5.53,1.89-9-3.86a22,22,0,0,1-1.64-3.72l-2-5.7a20.58,20.58,0,0,0-.86-2,7.58,7.58,0,0,0-.92-1.58c-.47-.47-1.55-.48-3.24,0-.22,0-.45.07-.68.09s-.23-.27-.41-.81-.22-.82-.11-.86a29.6,29.6,0,0,0,5.88-3.38,40.6,40.6,0,0,0,4.08-3.33,1.33,1.33,0,0,1,.78.21c.28.16.44.3.48.41a5.82,5.82,0,0,0,.15,1.56,17.71,17.71,0,0,0,.42,2c.15.51.35,1.17.62,2l2.2,6.46A22.28,22.28,0,0,0,143.42,51a3.55,3.55,0,0,0,4.28,1.15,5.19,5.19,0,0,0,2.19-1.5c.67-.73.93-1.33.77-1.78l-3.49-10.3a17.47,17.47,0,0,0-.87-2,7,7,0,0,0-.91-1.59c-.59-.62-1.91-.58-3.95.11-.14,0-.29-.3-.48-.84S140.77,33.45,140.94,33.39Z"/><path id="Path_179" data-name="Path 179" class="cls-1" d="M176.57,47.26c-2.4.52-5,1.24-7.9,2.16a2.11,2.11,0,0,1-.4-1,2.63,2.63,0,0,1-.07-1.18,7.23,7.23,0,0,0,2.64-1,2.94,2.94,0,0,0,.91-.88,19.91,19.91,0,0,0-.74-5.54l-1.63-7.55a19.83,19.83,0,0,0-.62-2.07,7.92,7.92,0,0,0-.73-1.69c-.58-.67-1.89-.78-3.94-.34-.13,0-.24-.33-.33-.9s-.08-.85,0-.88A29.55,29.55,0,0,0,170,23.72a43.94,43.94,0,0,0,4.44-2.84,1.82,1.82,0,0,1,.7.3c.29.19.43.34.42.47s0,.39,0,.81.07.89.12,1.4.09,1,.14,1.49a9.37,9.37,0,0,0,.11.94c0,.14.1.22.23.23s.18,0,.17-.09a20.53,20.53,0,0,1,1.84-4.25,7,7,0,0,1,4.2-3.11c1.76-.38,3-.32,3.81.19a4.21,4.21,0,0,1,1.2,2.18,7.16,7.16,0,0,1,.19,2.16,5.11,5.11,0,0,1-.46,1.71,3,3,0,0,1-2.14,2,1.94,1.94,0,0,1-1.47-.23l-1.26-.74c-.39-.22-.77-.43-1.15-.62a2,2,0,0,0-1.35-.14,2.38,2.38,0,0,0-1.37.9,6.12,6.12,0,0,0-.94,1.62,5.4,5.4,0,0,0-.45,3l1.52,7a24.08,24.08,0,0,0,1.35,5,1.57,1.57,0,0,0,.89.73,7.69,7.69,0,0,0,1.05.18,9.19,9.19,0,0,0,1.88-.22,2.74,2.74,0,0,1,.42,1.1,2.13,2.13,0,0,1,.05,1.09Q179.73,46.58,176.57,47.26Z"/><path id="Path_180" data-name="Path 180" class="cls-1" d="M227.28,39.06q.76-1.61.88-7L228.73,8a7.35,7.35,0,0,0-.21-2.56,1.38,1.38,0,0,0-.69-.79,5.1,5.1,0,0,0-1.08-.3,8.54,8.54,0,0,0-1.87-.4c-.12,0-.19-.29-.21-.86s.07-.91.25-1a41.64,41.64,0,0,0,8.16-1.2Q236.2,0,236.38,0a1.39,1.39,0,0,1,.87,1.1A24.56,24.56,0,0,0,236.49,7l-.23,9.61a5.83,5.83,0,0,0,0,.59q0,.41.36.18l1-.65,1.5-.95a7.47,7.47,0,0,1,3.89-1,11.23,11.23,0,0,1,4.29,1,12.1,12.1,0,0,1,7.18,11.81,13.13,13.13,0,0,1-5.29,10.66,16.37,16.37,0,0,1-10.95,3.42A13.38,13.38,0,0,1,234,41a10.42,10.42,0,0,0-3.3-.75,3.44,3.44,0,0,0-2,.4c-.12,0-.39-.2-.79-.6S227.28,39.3,227.28,39.06Zm12.16-19.94a4.22,4.22,0,0,0-3.09,1.19.74.74,0,0,0-.19.53l-.34,14.55a3.65,3.65,0,0,0,1,2.63,3.49,3.49,0,0,0,2.62,1.14,4.33,4.33,0,0,0,2.76-.79,7.52,7.52,0,0,0,2-2.15,12.78,12.78,0,0,0,1.77-6.34c.1-4.07-.5-6.87-1.78-8.4A6.14,6.14,0,0,0,239.44,19.12Z"/><path id="Path_181" data-name="Path 181" class="cls-1" d="M286.34,32.42q-5.37-.66-14-2.21-1.12,5.37,1.33,8.54a7.87,7.87,0,0,0,4.58,2.89,7.74,7.74,0,0,0,4.37-.09,15,15,0,0,0,2.87-1.42.91.91,0,0,1,.5,1.12,2.32,2.32,0,0,1-.58,1.21,11.05,11.05,0,0,1-1.48,1.15A12.43,12.43,0,0,1,281.31,45a11.67,11.67,0,0,1-6.89.94,15.37,15.37,0,0,1-5.1-1.95A11.75,11.75,0,0,1,266,40.72a11.94,11.94,0,0,1-1.74-9.63,14.41,14.41,0,0,1,5.94-9q5.07-3.61,9.9-2.6,5.19,1.08,7.27,4.74a8.31,8.31,0,0,1,1.09,6.19,3.16,3.16,0,0,1-.79,1.58A1.32,1.32,0,0,1,286.34,32.42Zm-13.56-4.49,1.19.2c.68.11,1.44.23,2.27.34a39.27,39.27,0,0,0,4.1.58c.54.06.88-.22,1-.84a13.59,13.59,0,0,0,.24-2,6,6,0,0,0-.23-2c-.38-1.43-1.08-2.25-2.1-2.47a3.47,3.47,0,0,0-2.6.33,8,8,0,0,0-1.9,1.67A10.55,10.55,0,0,0,272.78,27.93Z"/><path id="Path_182" data-name="Path 182" class="cls-1" d="M296.49,42.36c.1-.28.43-.33,1-.13a1.33,1.33,0,0,1,1,1,8,8,0,0,0,.88,5.72,5.19,5.19,0,0,0,2.81,2.3,3.6,3.6,0,0,0,3,0,3.14,3.14,0,0,0,1.55-1.75,3.08,3.08,0,0,0,.08-2,5.41,5.41,0,0,0-.93-1.7,20.87,20.87,0,0,0-1.47-1.65,24.34,24.34,0,0,1-4.89-6.25,5.76,5.76,0,0,1-.28-4.7,7.14,7.14,0,0,1,2.39-3.6,8.91,8.91,0,0,1,3.37-1.5,13.57,13.57,0,0,1,7.49.59,14.23,14.23,0,0,1,3.27,1.56c.87.58,1.75,1.16,2.63,1.72-.15,1.53-.36,3.07-.64,4.62s-.47,2.46-.56,2.71-.38.3-.9.12a1.83,1.83,0,0,1-1.09-1,11.34,11.34,0,0,0-.3-4.1,5.93,5.93,0,0,0-3.71-3.56,3.64,3.64,0,0,0-2.6,0,2.71,2.71,0,0,0-1.6,1.72,3.62,3.62,0,0,0-.15,2.23,5.71,5.71,0,0,0,.91,1.79,10.35,10.35,0,0,0,1.49,1.61c.58.52,1.16,1,1.73,1.59s1.15,1.15,1.75,1.8a8.61,8.61,0,0,1,1.46,2.12,6.55,6.55,0,0,1,.39,5.22,7.83,7.83,0,0,1-2.34,3.71,8,8,0,0,1-3.28,1.52,15.14,15.14,0,0,1-8.26-.86,15.77,15.77,0,0,1-3.57-1.75c-1.08-.72-2-1.29-2.64-1.72.16-.83.43-1.89.82-3.19s.67-2.27.87-2.93S296.43,42.53,296.49,42.36Z"/><path id="Path_183" data-name="Path 183" class="cls-1" d="M327.16,37.28a11.67,11.67,0,0,1,2.45-1.22l2.45.89,1.07-3a43.71,43.71,0,0,0,4.19-1.92c1.38-.71,2.64-1.33,3.79-1.87a1.61,1.61,0,0,1,1,0q.41.21.39.48l-3.22,8.87,6.33,2.3c.22.08.24.39,0,.93s-.83,1-1.92,1.35l-5.41-2-5,13.76c-1,2.81-.52,4.59,1.51,5.32a3.8,3.8,0,0,0,2.06.13,8.13,8.13,0,0,0,1.36-.32,1,1,0,0,1,.12.71,1.72,1.72,0,0,1-.69,1c-.38.2-.77.38-1.16.54a11.76,11.76,0,0,1-1.68.54,7.93,7.93,0,0,1-4.16,0,10.32,10.32,0,0,1-2.65-1.39,5.75,5.75,0,0,1-1.82-2.24q-1.59-3,0-7.28l4.88-13.42-4-1.44C327,38,327,37.67,327.16,37.28Z"/><path id="Path_184" data-name="Path 184" class="cls-1" d="M395.08,75.46a.89.89,0,0,1,.28.88,2.36,2.36,0,0,1-.48,1,12.72,12.72,0,0,1-2.13,1,7.91,7.91,0,0,1-4.28.79,4.93,4.93,0,0,1-2.68-1.5,5,5,0,0,1-1.32-2.33,10.29,10.29,0,0,1-3.9,1.41,10.48,10.48,0,0,1-3.66.18,6.77,6.77,0,0,1-2.52-1.14,7.8,7.8,0,0,1-2.06-2.07A6.47,6.47,0,0,1,371,68.89a5.89,5.89,0,0,1,1.63-3.29,4,4,0,0,1,2.26-1.2c.71-.07,1.56-.19,2.54-.36l3.19-.56q2.16-.28,6.06-1l.55-2.73a8.54,8.54,0,0,0-.17-4.2,2.93,2.93,0,0,0-2.19-2.31,2.35,2.35,0,0,0-2.53,1,11.94,11.94,0,0,0-1.51,2.73q-1.32,2.93-4,2.39a3.28,3.28,0,0,1-1.92-1.17,2.15,2.15,0,0,1-.6-1.82,6.53,6.53,0,0,1,1.35-2.66,13.92,13.92,0,0,1,3.6-1.47,18.37,18.37,0,0,1,8.52-.67,8.56,8.56,0,0,1,5.59,3.69,8.79,8.79,0,0,1,1.21,6.93L392.37,73a3,3,0,0,0,.08,1.9,1.26,1.26,0,0,0,.89.77,1.94,1.94,0,0,0,1.07-.06Zm-13.21-1.74a3,3,0,0,0,1.9-.12c.5-.23.77-.44.81-.61l1.62-8.1c-.7.16-1.42.31-2.15.43a11.32,11.32,0,0,0-2.28.69,4,4,0,0,0-2.61,3.14,3.73,3.73,0,0,0,.58,3.28A3.94,3.94,0,0,0,381.87,73.72Z"/><path id="Path_185" data-name="Path 185" class="cls-1" d="M424.37,59.88a32.43,32.43,0,0,0,11.74-2.07,1.66,1.66,0,0,1,.68.52c.22.26.32.45.31.57a14.32,14.32,0,0,0-.67,2.32,24,24,0,0,0-.56,3.16l-1.25,13.41c0,.48-.07.9-.07,1.26a1.51,1.51,0,0,0,.4,1c.32.39,1.2.65,2.63.78a2.1,2.1,0,0,1,.1,1,1.58,1.58,0,0,1-.46,1,35.48,35.48,0,0,0-5.91.53c-2.75.41-4.21.6-4.39.59-.35,0-.49-.53-.4-1.49l.09-1c0-.24,0-.33-.15-.28a15.58,15.58,0,0,1-8.55,1.73q-5.82-.54-6.64-7.21a22.83,22.83,0,0,1,0-4l.56-6a19.46,19.46,0,0,0,0-2.16,7.41,7.41,0,0,0-.19-1.82c-.25-.63-1.23-1.08-2.95-1.36a4.88,4.88,0,0,1-.65-.2c-.09,0-.11-.34-.06-.9s.14-.85.26-.84A28.78,28.78,0,0,0,415,57.7a40.24,40.24,0,0,0,5.09-1.38,1.38,1.38,0,0,1,.63.51,1,1,0,0,1,.27.57,5.94,5.94,0,0,0-.5,1.49,18.61,18.61,0,0,0-.41,1.94c-.08.54-.16,1.22-.24,2.06l-.63,6.8a22.25,22.25,0,0,0,.23,7.28,3.55,3.55,0,0,0,3.44,2.8,5.22,5.22,0,0,0,2.61-.48c.91-.39,1.39-.83,1.43-1.31l1-10.82A19.62,19.62,0,0,0,428,65a7.46,7.46,0,0,0-.19-1.82c-.29-.81-1.5-1.31-3.65-1.51q-.17-.1-.09-1C424.08,60.13,424.19,59.86,424.37,59.88Z"/><path id="Path_186" data-name="Path 186" class="cls-1" d="M446.59,61.18a11,11,0,0,1,1.91-2l2.6,0,0-3.15q1.73-1.5,3.33-3.19c1.06-1.12,2-2.12,3-3a1.55,1.55,0,0,1,1-.3c.3,0,.48.14.54.32l-.14,9.43,6.74.1c.24,0,.36.29.35.86s-.47,1.21-1.38,1.91l-5.75-.08-.21,14.64q-.06,4.5,3.18,4.54a3.78,3.78,0,0,0,2-.56,8,8,0,0,0,1.18-.74,1,1,0,0,1,.35.63,1.77,1.77,0,0,1-.33,1.16c-.29.31-.59.61-.91.89a11.29,11.29,0,0,1-1.41,1.06,7.92,7.92,0,0,1-3.92,1.38,10.56,10.56,0,0,1-3-.45,5.64,5.64,0,0,1-2.45-1.52c-1.66-1.52-2.46-3.8-2.42-6.86l.2-14.28L446.85,62C446.67,61.87,446.58,61.6,446.59,61.18Z"/><path id="Path_187" data-name="Path 187" class="cls-1" d="M491.42,84.23a72.29,72.29,0,0,0-7.79,0,79.11,79.11,0,0,0-8,.87,2.21,2.21,0,0,1-.24-1.07,2.94,2.94,0,0,1,.12-1.18,7,7,0,0,0,2.76-.54c.58-.3.9-.55,1-.73a5.49,5.49,0,0,0,.38-2.27c0-.9-.06-2-.13-3.32l-1.29-24.4a7.6,7.6,0,0,0-.4-2.55,1.37,1.37,0,0,0-.81-.72,6.18,6.18,0,0,0-1-.21,7.21,7.21,0,0,0-1.91-.26c-.12,0-.21-.28-.26-.84s0-.92.16-1a51.8,51.8,0,0,0,10.4-2.62,6.55,6.55,0,0,1,.88-.31,1.4,1.4,0,0,1,.95,1c-.08.72-.16,1.42-.25,2.08a21.83,21.83,0,0,0-.06,4l.65,12.38c.12,0,.32-.18.61-.52a10.68,10.68,0,0,1,1.36-1.33c.67-.57,1.36-1.1,2.08-1.6a10.08,10.08,0,0,1,4.77-1.69,8,8,0,0,1,3.86.65,6,6,0,0,1,2.6,2.43q1.68,3,2.08,10.42l.2,3.85a24.74,24.74,0,0,0,.54,5.15,1.57,1.57,0,0,0,.82.86,8.81,8.81,0,0,0,1.14.34,12,12,0,0,0,2.07.07,2.9,2.9,0,0,1,.24,1.16,2.21,2.21,0,0,1-.12,1.08c-3-.14-5.6-.15-7.79,0s-4.76.4-7.73.86a2.21,2.21,0,0,1-.24-1.07,2.91,2.91,0,0,1,.12-1.17c1.79-.1,2.79-.48,3-1.15s.4-2.69.24-5.68l-.25-4.67q-.43-8.34-4.38-8.14a5.36,5.36,0,0,0-2.92,1c-1.44,1.16-2.14,2-2.11,2.63l.51,9.69a24.74,24.74,0,0,0,.54,5.15,1.58,1.58,0,0,0,.76.85,7.6,7.6,0,0,0,1,.36,9,9,0,0,0,1.8.08,1.82,1.82,0,0,1,.29,1.16A2.4,2.4,0,0,1,491.42,84.23Z"/><path id="Path_188" data-name="Path 188" class="cls-1" d="M540.33,64.6q-5.31,1-14,2.25c.39,3.64,1.7,6.2,3.91,7.71a8,8,0,0,0,5.25,1.33,7.81,7.81,0,0,0,4.14-1.45,16.17,16.17,0,0,0,2.29-2.24.9.9,0,0,1,.82.9,2.42,2.42,0,0,1-.17,1.33,11.2,11.2,0,0,1-1,1.56,13.38,13.38,0,0,1-2,2.08,11.7,11.7,0,0,1-6.27,3,15.37,15.37,0,0,1-5.45-.26,11.78,11.78,0,0,1-4.2-2,11.93,11.93,0,0,1-4.64-8.62,14.44,14.44,0,0,1,2.84-10.43q3.71-5,8.61-5.55c3.51-.38,6.31.37,8.38,2.25A8.33,8.33,0,0,1,541.67,62a3.1,3.1,0,0,1-.25,1.75A1.34,1.34,0,0,1,540.33,64.6ZM526,64.53l1.2-.18c.68-.1,1.44-.23,2.26-.38a40.51,40.51,0,0,0,4.08-.71c.53-.12.76-.49.69-1.12a12.28,12.28,0,0,0-.39-2,6.33,6.33,0,0,0-.83-1.81c-.8-1.23-1.72-1.8-2.76-1.68a3.4,3.4,0,0,0-2.36,1.11,7.78,7.78,0,0,0-1.3,2.18A10.64,10.64,0,0,0,526,64.53Z"/><path id="Path_189" data-name="Path 189" class="cls-1" d="M562.4,76.8a81.56,81.56,0,0,0-8,1.65,2.25,2.25,0,0,1-.34-1,2.76,2.76,0,0,1,0-1.18,7.35,7.35,0,0,0,2.7-.81,2.74,2.74,0,0,0,1-.83,19.67,19.67,0,0,0-.37-5.57l-1.14-7.65a18.81,18.81,0,0,0-.49-2.1,8.11,8.11,0,0,0-.62-1.73c-.53-.7-1.83-.9-3.91-.6-.12,0-.22-.34-.27-.91s0-.86.1-.88a28.84,28.84,0,0,0,6.38-2.26A45.12,45.12,0,0,0,562,50.34a.94.94,0,0,1,.68.31c.27.23.41.4.4.53a5.17,5.17,0,0,0,0,.68,8.44,8.44,0,0,1-.05,1.23q-.18,1.84.09,1.8a.25.25,0,0,0,.16-.12,1,1,0,0,1,.25-.21,12.17,12.17,0,0,1,2.65-2.94A11,11,0,0,1,571.29,49a8,8,0,0,1,4,.27,6.06,6.06,0,0,1,2.82,2.17q2,2.81,3.06,10.17l.56,3.82a24.79,24.79,0,0,0,1,5.07,1.52,1.52,0,0,0,.89.78,7.58,7.58,0,0,0,1.17.24,13.08,13.08,0,0,0,2.07-.13,1.81,1.81,0,0,1,.39,1.12,2.4,2.4,0,0,1-.06,1.1,77.62,77.62,0,0,0-8.06.75q-2.94.44-7.31,1.54a2.14,2.14,0,0,1-.34-1,2.76,2.76,0,0,1,0-1.18,9.81,9.81,0,0,0,1.74-.49,1.65,1.65,0,0,0,1.27-1.24,22.62,22.62,0,0,0-.44-5.38l-.68-4.62q-1.23-8.26-5.14-7.68a5.45,5.45,0,0,0-2.82,1.23c-1.32,1.29-1.94,2.23-1.85,2.82l1.43,9.6A24.4,24.4,0,0,0,566,73a1.6,1.6,0,0,0,.84.78,7.53,7.53,0,0,0,1,.26,10,10,0,0,0,1.89-.1,2.93,2.93,0,0,1,.35,1.12,2.16,2.16,0,0,1,0,1.1A77,77,0,0,0,562.4,76.8Z"/><path id="Path_190" data-name="Path 190" class="cls-1" d="M589.41,49.29A11.3,11.3,0,0,1,590.94,47l2.56-.44-.53-3.1c.95-1.2,1.84-2.44,2.68-3.74s1.63-2.47,2.36-3.51a1.56,1.56,0,0,1,.92-.48c.3,0,.5,0,.59.22l1.6,9.3,6.64-1.14c.23,0,.4.22.5.78a2.9,2.9,0,0,1-1,2.13l-5.67,1,2.48,14.43c.51,3,1.83,4.25,3.95,3.88a3.8,3.8,0,0,0,1.85-.91,8.37,8.37,0,0,0,1-1,1,1,0,0,1,.46.56,1.71,1.71,0,0,1-.11,1.2,10.78,10.78,0,0,1-.73,1,11.25,11.25,0,0,1-1.19,1.3,8.08,8.08,0,0,1-3.61,2.09,10.71,10.71,0,0,1-3,.1,5.71,5.71,0,0,1-2.69-1q-2.87-1.8-3.63-6.31L594,49.32l-4.16.72C589.62,50,589.48,49.7,589.41,49.29Z"/><path id="Path_191" data-name="Path 191" class="cls-1" d="M628.85,40.33a25.57,25.57,0,0,0,0,3.39L631.24,57a24.81,24.81,0,0,0,1.19,5,1.6,1.6,0,0,0,.87.75,6.54,6.54,0,0,0,1.05.22,9.87,9.87,0,0,0,1.88-.15,2.79,2.79,0,0,1,.39,1.11,2.16,2.16,0,0,1,0,1.1q-4.5.36-7.69.94c-2.41.44-5.07,1.08-8,1.91a2.14,2.14,0,0,1-.37-1,3,3,0,0,1,0-1.19,7.21,7.21,0,0,0,2.67-.89,3,3,0,0,0,.94-.86,19.94,19.94,0,0,0-.56-5.56l-1.38-7.6a18.4,18.4,0,0,0-.57-2.09A7.34,7.34,0,0,0,621,47c-.56-.69-1.86-.85-3.93-.47-.13,0-.23-.34-.3-.91s0-.86.07-.88a29.22,29.22,0,0,0,6.31-2.47,40.68,40.68,0,0,0,4.53-2.7,1.88,1.88,0,0,1,.7.33C628.68,40.06,628.83,40.22,628.85,40.33Zm-11.19-9.28a4.13,4.13,0,0,1,3.24-4.88l.15,0a4.24,4.24,0,0,1,3.23.64,4,4,0,0,1,1.77,2.74,4.12,4.12,0,0,1-.69,3.23,4.18,4.18,0,0,1-2.77,1.79,4,4,0,0,1-3.19-.7A4.24,4.24,0,0,1,617.66,31.05Z"/><path id="Path_192" data-name="Path 192" class="cls-1" d="M665.73,52q.74,0,.84.57l.16.88c.07.36-.22,1-.86,2A14.15,14.15,0,0,1,663.66,58a11.28,11.28,0,0,1-5.89,3.48,15.13,15.13,0,0,1-5.41.14A11.72,11.72,0,0,1,648,60a12,12,0,0,1-5.37-8.23q-1-5.47,2.74-10.75a15,15,0,0,1,9.74-6.57c2.77-.52,4.81-.53,6.12,0a3.67,3.67,0,0,1,1.63,2.39,4.36,4.36,0,0,1-.39,2.82,3,3,0,0,1-4.45,1.1c-.64-.52-1.25-1-1.82-1.44a5.22,5.22,0,0,0-4.31-1c-1.17.22-2,1.29-2.5,3.21a12.81,12.81,0,0,0-.06,5.58,14.73,14.73,0,0,0,1.75,5,9.72,9.72,0,0,0,2.65,2.88,7.31,7.31,0,0,0,5.64,1.33,8.27,8.27,0,0,0,4.23-1.8A16.05,16.05,0,0,0,665.73,52Z"/><path id="Path_193" data-name="Path 193" class="cls-1" d="M712.63,51.45a81.23,81.23,0,0,0-8.09,1c-2.38.42-5,1-7.92,1.85a2.1,2.1,0,0,1-.37-1,2.81,2.81,0,0,1,0-1.19,7,7,0,0,0,2.67-.88c.55-.37.83-.65.86-.84a5.4,5.4,0,0,0,.09-2.3c-.12-.89-.3-2-.53-3.28l-4.26-24.06a7.63,7.63,0,0,0-.72-2.47,1.34,1.34,0,0,0-.88-.62,5.41,5.41,0,0,0-1.06-.08,7.72,7.72,0,0,0-1.92,0c-.12,0-.25-.24-.37-.8s-.12-.9,0-1.05a52.73,52.73,0,0,0,10-3.88c.27-.15.55-.29.83-.42a1.43,1.43,0,0,1,1.08.91v2.1a20.93,20.93,0,0,0,.43,3.94l4.44,25.12a24.77,24.77,0,0,0,1.17,5,1.54,1.54,0,0,0,.91.75,8.09,8.09,0,0,0,1.09.22,12,12,0,0,0,2.15-.2,2.67,2.67,0,0,1,.38,1.12A2.12,2.12,0,0,1,712.63,51.45Z"/><path id="Path_194" data-name="Path 194" class="cls-1" d="M728.19,23a25.6,25.6,0,0,0-.1,3.39l2.11,13.31a25,25,0,0,0,1.08,5.05,1.62,1.62,0,0,0,.85.78,7.46,7.46,0,0,0,1,.24,9.15,9.15,0,0,0,1.89-.12,2.83,2.83,0,0,1,.36,1.13,2.12,2.12,0,0,1,0,1.09q-4.5.26-7.7.77c-2.42.38-5.09,1-8,1.72a2,2,0,0,1-.35-1,2.76,2.76,0,0,1,0-1.18A7,7,0,0,0,722,47.3a2.85,2.85,0,0,0,1-.83,19.85,19.85,0,0,0-.43-5.57l-1.21-7.63a17.1,17.1,0,0,0-.52-2.11,7.47,7.47,0,0,0-.63-1.71c-.54-.71-1.84-.89-3.91-.56-.13,0-.22-.35-.28-.92s0-.86.08-.87a29.2,29.2,0,0,0,6.36-2.33,42.43,42.43,0,0,0,4.6-2.6,1.68,1.68,0,0,1,.69.35C728,22.72,728.17,22.88,728.19,23Zm-11-9.53a4.14,4.14,0,0,1,3.35-4.81l.16,0a4.26,4.26,0,0,1,3.21.72,4,4,0,0,1,1.71,2.78,4.29,4.29,0,0,1-3.58,4.93,4,4,0,0,1-3.17-.77A4.21,4.21,0,0,1,717.21,13.46Z"/><path id="Path_195" data-name="Path 195" class="cls-1" d="M751,45.48q-3.66.44-8.07,1.41a2.17,2.17,0,0,1-.31-1,2.94,2.94,0,0,1,0-1.18,7.15,7.15,0,0,0,2.72-.73,2.85,2.85,0,0,0,1-.8,20,20,0,0,0-.21-5.58l-1.65-13.83-4.19.5c-.2-.09-.32-.35-.37-.77a8.55,8.55,0,0,1,1.64-2.18l2.59-.31-.11-.89A15.5,15.5,0,0,1,747.31,9a15.63,15.63,0,0,1,3.57-3.82,7.63,7.63,0,0,1,3.56-1.65,13.87,13.87,0,0,1,3.91.17c.51.24,1,.52,1.64.84a2.2,2.2,0,0,1,1,1.78A5.25,5.25,0,0,1,760.57,9a2.42,2.42,0,0,1-2,1.55,3.35,3.35,0,0,1-2.37-.48c-.62-.44-1.3-.89-2-1.35a3.4,3.4,0,0,0-2.32-.53c-.48.05-.84.56-1.09,1.53a9.8,9.8,0,0,0-.12,3.5c.2,1.73.57,4,1.09,6.84l6.86-.82c.24,0,.4.24.46.81s-.3,1.25-1.11,2.07l-5.71.68,1.65,13.83a25.21,25.21,0,0,0,.88,5.1,1.52,1.52,0,0,0,.87.8,7.8,7.8,0,0,0,1.16.27,13,13,0,0,0,2.07-.07,1.74,1.74,0,0,1,.36,1.14,2.42,2.42,0,0,1-.09,1.1A75.21,75.21,0,0,0,751,45.48Z"/><path id="Path_196" data-name="Path 196" class="cls-1" d="M789.69,27.69q-5.36.7-14.14,1.39c.17,3.65,1.32,6.29,3.43,7.93a8.51,8.51,0,0,0,9.38.46,16,16,0,0,0,2.42-2.09.9.9,0,0,1,.76.95,2.52,2.52,0,0,1-.25,1.32,10.38,10.38,0,0,1-1.15,1.49,13.25,13.25,0,0,1-2.15,2,11.77,11.77,0,0,1-6.45,2.64,15.52,15.52,0,0,1-5.42-.6,11.75,11.75,0,0,1-4.06-2.29A12,12,0,0,1,768,32a14.47,14.47,0,0,1,3.48-10.24c2.67-3.18,5.64-4.85,8.94-5q5.29-.26,8.22,2.76a8.35,8.35,0,0,1,2.61,5.72,3.25,3.25,0,0,1-.37,1.73A1.35,1.35,0,0,1,789.69,27.69Zm-14.25-1,1.21-.1q1-.09,2.28-.24a39.14,39.14,0,0,0,4.12-.47c.53-.08.79-.44.76-1.06a12.59,12.59,0,0,0-.28-2,5.66,5.66,0,0,0-.72-1.85,2.94,2.94,0,0,0-2.65-1.86,3.47,3.47,0,0,0-2.42,1,8,8,0,0,0-1.43,2.09A10.74,10.74,0,0,0,775.44,26.74Z"/><path id="Path_197" data-name="Path 197" class="cls-1" d="M829.43,57.13a75,75,0,0,0-8-1,2.41,2.41,0,0,1,0-1.1,1.87,1.87,0,0,1,.43-1.11,8,8,0,0,0,2.71.11c.69-.12,1.08-.27,1.17-.43a20.65,20.65,0,0,0,1.41-5.41l3.53-20.18a19.71,19.71,0,0,0,.2-2.16,7,7,0,0,0,0-1.83q-.29-1-2.82-1.59a5,5,0,0,1-.64-.25c-.08-.05-.07-.35,0-.91s.21-.83.33-.81a29,29,0,0,0,6.78-.13,41.42,41.42,0,0,0,5.18-1,1.39,1.39,0,0,1,.59.56.77.77,0,0,1,.16.62,4.4,4.4,0,0,1-.39.66,2.44,2.44,0,0,0-.39.94,1.34,1.34,0,0,0,0,.63c0,.1.35-.08.91-.52a11.24,11.24,0,0,1,2.71-1.4,7.11,7.11,0,0,1,3.9-.36A9.13,9.13,0,0,1,851,22.33a11.63,11.63,0,0,1,3.09,3.46A12.9,12.9,0,0,1,855.66,35a13.48,13.48,0,0,1-6.61,9.61,14.3,14.3,0,0,1-10.19,2,8.55,8.55,0,0,1-2.16-.65,7.69,7.69,0,0,0-1.11-.47c-.12,0-.23.29-.35.94l-.55,3.19a20.38,20.38,0,0,0-.52,5.56c.12.69,1.3,1.23,3.54,1.63a1.77,1.77,0,0,1,0,1.18,2.41,2.41,0,0,1-.4,1A79.35,79.35,0,0,0,829.43,57.13Zm6.94-17.21a3,3,0,0,0,.78,2.83,4.24,4.24,0,0,0,2.2,1.25,4.45,4.45,0,0,0,2.17-.16,5.24,5.24,0,0,0,2.06-1.38,12,12,0,0,0,3.31-6.9,17.8,17.8,0,0,0,0-7.62q-.83-3.11-4.45-3.74a3.53,3.53,0,0,0-2.51.29c-.62.38-.93.63-.95.74Z"/><path id="Path_198" data-name="Path 198" class="cls-1" d="M882.36,31.18a15.7,15.7,0,0,1,4.82,3,13.16,13.16,0,0,1,3.05,4.26,12.66,12.66,0,0,1,0,10.2,13.45,13.45,0,0,1-7.42,7.44,13,13,0,0,1-10.6,0,13.6,13.6,0,0,1-7.84-7.4,12.8,12.8,0,0,1,0-10.19,13.48,13.48,0,0,1,7.31-7.39A13.24,13.24,0,0,1,882.36,31.18Zm-1.59,2q-3.74-1.54-6.68,4.44c-.56,1.06-1.07,2.15-1.53,3.26a25.42,25.42,0,0,0-1.19,3.74,13.48,13.48,0,0,0-.41,3.95c0,2.93.93,4.75,2.71,5.48q3.9,1.61,6.89-4.26c.48-1,1-2.1,1.41-3.21a25.16,25.16,0,0,0,1.17-3.79,14.67,14.67,0,0,0,.38-4Q883.52,34.28,880.77,33.16Z"/><path id="Path_199" data-name="Path 199" class="cls-1" d="M896,58c.16-.25.5-.2,1,.13a1.34,1.34,0,0,1,.69,1.23,8,8,0,0,0-.66,5.75,5.2,5.2,0,0,0,2.11,3,3.58,3.58,0,0,0,2.85.75,3.24,3.24,0,0,0,2.57-3.2,5.63,5.63,0,0,0-.46-1.89c-.27-.61-.6-1.27-1-2a24.72,24.72,0,0,1-3.06-7.31,5.74,5.74,0,0,1,1-4.61A7.1,7.1,0,0,1,904.3,47a9,9,0,0,1,3.64-.57A13.72,13.72,0,0,1,915,49a14.36,14.36,0,0,1,2.74,2.36c.69.8,1.38,1.59,2.09,2.35-.54,1.44-1.16,2.87-1.84,4.3s-1.09,2.24-1.24,2.46-.45.18-.9-.12a1.84,1.84,0,0,1-.81-1.2,11.38,11.38,0,0,0,.79-4,6,6,0,0,0-2.64-4.41,3.69,3.69,0,0,0-2.5-.73,2.68,2.68,0,0,0-2,1.25,3.6,3.6,0,0,0-.74,2.11,5.78,5.78,0,0,0,.41,2,10.83,10.83,0,0,0,1,1.94c.43.65.84,1.31,1.25,2s.82,1.41,1.22,2.19a8.78,8.78,0,0,1,.85,2.43,6.56,6.56,0,0,1-1,5.13,7,7,0,0,1-6.79,3.58,15.23,15.23,0,0,1-7.74-3,15.64,15.64,0,0,1-3-2.64c-.85-1-1.55-1.76-2.09-2.35.37-.76.91-1.71,1.62-2.86l1.61-2.6C895.7,58.52,895.93,58.16,896,58Z"/><path id="Path_200" data-name="Path 200" class="cls-1" d="M918.71,74.79c.22-.21.53-.1.95.33a1.33,1.33,0,0,1,.42,1.34,8,8,0,0,0-1.81,5.5,5.23,5.23,0,0,0,1.48,3.33,3.57,3.57,0,0,0,2.65,1.31A3.21,3.21,0,0,0,925.55,84a5.75,5.75,0,0,0-.06-1.94q-.21-1-.57-2.13a24.34,24.34,0,0,1-1.53-7.78,5.72,5.72,0,0,1,1.88-4.32A7.09,7.09,0,0,1,929,65.68a9.19,9.19,0,0,1,3.69.18,13.66,13.66,0,0,1,6.41,3.92,13.93,13.93,0,0,1,2.21,2.86c.52.92,1,1.83,1.58,2.73q-1.24,1.95-2.67,3.83a25.8,25.8,0,0,1-1.72,2.16c-.19.19-.48.09-.85-.29a1.85,1.85,0,0,1-.55-1.35,11.34,11.34,0,0,0,1.58-3.78,5.93,5.93,0,0,0-1.7-4.86,3.66,3.66,0,0,0-2.29-1.21,2.68,2.68,0,0,0-2.21.82,3.61,3.61,0,0,0-1.14,1.92,5.6,5.6,0,0,0,0,2,10.36,10.36,0,0,0,.6,2.11c.28.72.56,1.46.82,2.2s.52,1.54.76,2.4a9,9,0,0,1,.34,2.54,6.6,6.6,0,0,1-2,4.83A7.85,7.85,0,0,1,928.11,91a8.19,8.19,0,0,1-3.62-.12,17.49,17.49,0,0,1-9.37-7.68c-.65-1.14-1.17-2-1.58-2.73.52-.67,1.24-1.49,2.17-2.47l2.1-2.22C918.28,75.22,918.58,74.91,918.71,74.79Z"/><path id="Path_201" data-name="Path 201" class="cls-1" d="M957.84,96.92a27.49,27.49,0,0,0-3.16,1.22l-11.44,7.12a25.37,25.37,0,0,0-4.24,3,1.59,1.59,0,0,0-.38,1.08,6.35,6.35,0,0,0,.18,1.06,10,10,0,0,0,.84,1.7,2.74,2.74,0,0,1-.89.77,2.23,2.23,0,0,1-1,.41c-1.33-2.7-2.57-5-3.7-6.79a81.2,81.2,0,0,0-4.71-6.71,2.21,2.21,0,0,1,.82-.73,2.76,2.76,0,0,1,1.09-.46,7.07,7.07,0,0,0,1.81,2.15,2.83,2.83,0,0,0,1.14.56,19.52,19.52,0,0,0,5-2.56l6.56-4.08a19.92,19.92,0,0,0,1.73-1.29,7.28,7.28,0,0,0,1.34-1.26c.44-.77.1-2-1-3.82,0-.13.23-.34.73-.61s.78-.36.84-.26a28.89,28.89,0,0,0,4.62,5,42.17,42.17,0,0,0,4.17,3.23,1.68,1.68,0,0,1,0,.77A1,1,0,0,1,957.84,96.92Zm4.52-13.82a4.14,4.14,0,0,1,5.73,1.22l.09.13a4.25,4.25,0,0,1,.58,3.24,4,4,0,0,1-1.89,2.66A4.29,4.29,0,0,1,961,89l0,0a4,4,0,0,1-.52-3.22A4.21,4.21,0,0,1,962.36,83.1Z"/><path id="Path_202" data-name="Path 202" class="cls-1" d="M942.77,117.93c1.16.17,3.48-.23,6.94-1.2l23.18-6.5a7.52,7.52,0,0,0,2.39-1,1.43,1.43,0,0,0,.55-.9,4.59,4.59,0,0,0,0-1.11,8.84,8.84,0,0,0-.16-1.92c0-.11.22-.26.76-.44s.89-.2,1.06-.06A41.27,41.27,0,0,0,981,112.3c1.17,1.82,1.76,2.79,1.8,2.9a1.45,1.45,0,0,1-.8,1.16,25,25,0,0,0-5.88,1l-9.26,2.6a5.14,5.14,0,0,0-.55.2c-.25.1-.28.23-.08.39l.92.77,1.35,1.16a7.35,7.35,0,0,1,2.08,3.43,11.12,11.12,0,0,1,.26,4.41,12.11,12.11,0,0,1-9.19,10.32,13.14,13.14,0,0,1-11.73-1.94,16.28,16.28,0,0,1-6.48-9.47,13.23,13.23,0,0,1-.52-4.33,10.65,10.65,0,0,0-.25-3.38,3.47,3.47,0,0,0-1-1.78,2.09,2.09,0,0,1,.34-.94C942.29,118.28,942.53,118,942.77,117.93Zm22.61,5.79a4.14,4.14,0,0,0-2-2.61.75.75,0,0,0-.57,0l-14,3.93a3.59,3.59,0,0,0-2.23,1.69,3.52,3.52,0,0,0-.33,2.85,4.44,4.44,0,0,0,1.57,2.41,7.76,7.76,0,0,0,2.64,1.26,12.84,12.84,0,0,0,6.57-.16q5.89-1.65,7.51-4.16a6.1,6.1,0,0,0,.88-5.19Z"/><path id="Path_203" data-name="Path 203" class="cls-1" d="M947.15,165.36a72.86,72.86,0,0,0,.13-16.26,2.11,2.11,0,0,1,1.08-.17,2.7,2.7,0,0,1,1.16.19,7.3,7.3,0,0,0,.39,2.78q.39.9.66,1a5.32,5.32,0,0,0,2.25.51c.89,0,2,.06,3.32.07l24.44.19a7.62,7.62,0,0,0,2.56-.25,1.37,1.37,0,0,0,.77-.76,6,6,0,0,0,.28-1,7.55,7.55,0,0,0,.37-1.88c0-.13.29-.2.86-.22s.91,0,1,.23a52.33,52.33,0,0,0,2,10.53,8.52,8.52,0,0,1,.26.9,1.44,1.44,0,0,1-1.09.89l-2.06-.38a21.83,21.83,0,0,0-3.95-.3l-25.51-.19a24.16,24.16,0,0,0-5.17.23,1.49,1.49,0,0,0-.9.75,10.11,10.11,0,0,0-.42,1,12,12,0,0,0-.19,2.16,3,3,0,0,1-1.17.17A2.26,2.26,0,0,1,947.15,165.36Z"/><path id="Path_204" data-name="Path 204" class="cls-1" d="M956.47,194.64q.84-5.34,2.64-14-5.33-1.29-8.58,1.07a7.92,7.92,0,0,0-3,4.49,7.77,7.77,0,0,0,0,4.38,15.31,15.31,0,0,0,1.33,2.91.9.9,0,0,1-1.13.47,2.47,2.47,0,0,1-1.19-.61,11.83,11.83,0,0,1-1.11-1.52,12.64,12.64,0,0,1-1.26-2.62,11.65,11.65,0,0,1-.73-6.92,15.39,15.39,0,0,1,2.09-5,11.85,11.85,0,0,1,13-4.71,14.43,14.43,0,0,1,8.85,6.21q3.46,5.17,2.3,10-1.25,5.15-5,7.12a8.3,8.3,0,0,1-6.22.9,3.22,3.22,0,0,1-1.56-.84A1.35,1.35,0,0,1,956.47,194.64Zm4.91-13.42c0,.12-.11.51-.24,1.19s-.27,1.43-.41,2.26c-.39,1.87-.63,3.23-.71,4.08-.07.53.21.88.82,1a13.6,13.6,0,0,0,2,.3,6.06,6.06,0,0,0,2-.17,2.94,2.94,0,0,0,2.52-2,3.46,3.46,0,0,0-.25-2.6,8.18,8.18,0,0,0-1.61-2A10.64,10.64,0,0,0,961.38,181.22Z"/><path id="Path_205" data-name="Path 205" class="cls-1" d="M967.41,230.94a8.39,8.39,0,0,1-4.85-2.87,15.1,15.1,0,0,1-2-3.5,11.69,11.69,0,0,1-.68-2.8,5.55,5.55,0,0,1,0-1.41c.23-.48.73-.71,1.51-.68.21,2.09.61,3.43,1.18,4a5.87,5.87,0,0,0,1.6,1.25q1.55.72,4.3-.28a1.77,1.77,0,0,1,1.37.15,2.66,2.66,0,0,1,1.21,1.76,3.73,3.73,0,0,1-.21,2.78,3.38,3.38,0,0,1-1.57,1.64A4,4,0,0,1,967.41,230.94Zm5.59-7.89a6.79,6.79,0,0,1-3.8-.79,8.13,8.13,0,0,1-3.3-2.59,13.72,13.72,0,0,1-1.67-3.11,12,12,0,0,1-.69-2.76,4.83,4.83,0,0,1,0-1.37,1.23,1.23,0,0,1,1.51-.68c.24,2,.64,3.35,1.22,3.95a5.87,5.87,0,0,0,1.6,1.25c1,.46,2.44.38,4.37-.23a2.08,2.08,0,0,1,1.34.22,2.59,2.59,0,0,1,1.17,1.74,3.17,3.17,0,0,1,0,2.19,5.31,5.31,0,0,1-1.71,2.18Z"/></g></g></svg>