<?xml version="1.0" encoding="utf-8"?>
<!-- Generator: Adobe Illustrator 23.1.0, SVG Export Plug-In . SVG Version: 6.00 Build 0)  -->
<svg version="1.1" id="Layer_1" xmlns="http://www.w3.org/2000/svg" xmlns:xlink="http://www.w3.org/1999/xlink" x="0px" y="0px"
	 viewBox="0 0 196 43" style="enable-background:new 0 0 196 43;" xml:space="preserve">
<style type="text/css">
	.st0{fill:#FFFFFF;}
	.st1{enable-background:new    ;}
	.st2{fill:#F07A20;}
</style>
<g id="buy" transform="translate(-1265 -263.009)">
	<g transform="matrix(1, 0, 0, 1, 1265, 263.01)">
		<path id="Rectangle_7-2" class="st0" d="M21.5,0h153C186.4,0,196,9.6,196,21.5l0,0c0,11.9-9.6,21.5-21.5,21.5h-153
			C9.6,43,0,33.4,0,21.5l0,0C0,9.6,9.6,0,21.5,0z"/>
	</g>
	<g class="st1">
		<path class="st2" d="M1323.9,279.6l2.4,0c0.8,0,1.6,0.2,2.2,0.6c0.7,0.4,1.1,1.1,1.1,1.9c0,0.8-0.4,1.4-1.3,1.9
			c-0.2,0.1-0.3,0.2-0.4,0.2c-0.1,0-0.1,0.1-0.1,0.1c0,0,0.1,0,0.2,0c0.1,0,0.3,0.1,0.6,0.2c0.3,0.1,0.6,0.3,0.8,0.5
			c0.7,0.6,1,1.2,1,1.9c0,0.5-0.2,1-0.5,1.5c-0.3,0.4-0.7,0.8-1.2,1.1c-0.5,0.3-1,0.4-1.6,0.5c-0.6,0-1.1,0.1-1.4,0.1
			c-0.4,0-0.7,0-1.1,0c-1,0-2,0-2.9,0c0,0,0-0.1,0-0.3c0-0.1,0-0.2,0-0.3c0.1,0,0.2,0,0.4,0c0.4,0,0.6-0.1,0.6-0.2
			c0.1-0.2,0.1-0.7,0.1-1.5v-5.8c0-0.8,0-1.3-0.1-1.5c-0.1-0.2-0.5-0.2-1-0.2c0-0.1,0-0.2,0-0.3c0-0.1,0-0.2,0-0.3
			c0.4,0,0.8,0,1.2,0H1323.9z M1327.1,282.3c0-1.4-0.4-2.1-1.3-2.1c-0.2,0-0.4,0-0.5,0c-0.2,0-0.2,0.1-0.3,0.2
			c-0.1,0.1-0.1,0.4-0.1,1v2.8h0.8c0.4,0,0.7-0.2,1-0.5C1327,283.3,1327.1,282.9,1327.1,282.3z M1324.9,288.3c0,0.5,0,0.8,0.1,0.9
			c0.1,0.1,0.2,0.2,0.4,0.2c0.2,0,0.4,0,0.6,0s0.4,0,0.6-0.1c0.2-0.1,0.4-0.2,0.5-0.4c0.4-0.4,0.6-0.9,0.6-1.7
			c0-1.1-0.4-1.9-1.1-2.3c-0.3-0.1-0.6-0.2-0.9-0.2h-0.8V288.3z"/>
		<path class="st2" d="M1339.1,279.5c0.9,0.1,1.6,0.1,2,0.1s0.7,0,1,0s0.6-0.1,0.9-0.1c0,0,0,0.1,0,0.3c0,0.1,0,0.2,0,0.3
			c-0.4,0-0.7,0-0.9,0.1s-0.3,0.2-0.3,0.2c-0.1,0.4-0.2,1-0.2,1.9v3.1c0,1.5-0.4,2.7-1.3,3.6c-0.8,0.8-1.8,1.1-3,1.1
			c-0.7,0-1.3-0.1-1.9-0.3c-0.6-0.2-1.1-0.6-1.4-1c-0.3-0.4-0.6-0.9-0.7-1.5c-0.1-0.6-0.2-1.3-0.2-2.1v-3.4c0-0.3,0-0.6,0-0.9
			c0-0.2,0-0.4-0.1-0.5c0-0.1-0.1-0.2-0.2-0.2c-0.1,0-0.2-0.1-0.3-0.1c-0.2,0-0.4,0-0.6,0c0-0.1,0-0.2,0-0.3c0-0.1,0-0.2,0-0.3
			c0.8,0.1,1.6,0.1,2.3,0.1s1.5,0,2.3-0.1c0,0,0,0.1,0,0.3c0,0.1,0,0.2,0,0.3c-0.3,0-0.5,0-0.7,0.1c-0.2,0.1-0.3,0.1-0.3,0.2
			c-0.1,0.2-0.1,0.7-0.1,1.5v2.9c0,0.5,0,1,0.1,1.5c0,0.4,0.1,0.8,0.3,1.2c0.2,0.4,0.4,0.7,0.6,0.9c0.2,0.2,0.4,0.3,0.7,0.4
			c0.3,0.2,0.7,0.2,1.1,0.2s0.8-0.1,1.1-0.2c0.3-0.1,0.6-0.4,0.8-0.7c0.5-0.7,0.8-1.7,0.8-3v-2.7c0-0.9-0.1-1.5-0.2-1.9
			c0-0.1-0.2-0.2-0.4-0.2c-0.3-0.1-0.5-0.1-0.8-0.1c0-0.1,0-0.2,0-0.3C1339,279.7,1339.1,279.6,1339.1,279.5z"/>
		<path class="st2" d="M1348.6,290c-0.7,0-1.4,0-2.2,0.1c0,0,0-0.1,0-0.3c0-0.1,0-0.2,0-0.3c0.3,0,0.6,0,0.7-0.1
			c0.2-0.1,0.2-0.1,0.3-0.2c0.1-0.2,0.1-0.7,0.1-1.5v-2.3c0-0.1-0.4-0.8-1.1-2.2c-0.8-1.6-1.3-2.4-1.4-2.6c-0.1-0.2-0.3-0.3-0.6-0.4
			c-0.2-0.1-0.4-0.1-0.5-0.1c0-0.1-0.1-0.2-0.1-0.3c0-0.1,0-0.2,0.1-0.3c0.8,0.1,1.5,0.1,2.3,0.1c0.7,0,1.4,0,2.2-0.1
			c0,0,0,0.1,0,0.3c0,0.1,0,0.2,0,0.3c-0.6,0-1,0.1-1,0.4c0,0,0,0.1,0.1,0.3l1.9,3.5c0,0,0.7-1.1,2-3.4c0-0.1,0.1-0.3,0.1-0.3
			s-0.1-0.2-0.2-0.2c-0.1,0-0.2-0.1-0.3-0.1c-0.2,0-0.4-0.1-0.7-0.1c0-0.1,0-0.2,0-0.3c0-0.1,0-0.2,0-0.3c1,0.1,1.6,0.1,1.9,0.1
			c0.3,0,0.6,0,0.8,0c0.3,0,0.5-0.1,0.9-0.1c0,0,0,0.1,0,0.3c0,0.1,0,0.2,0,0.3c-0.6,0-1,0.1-1.2,0.4c-0.4,0.6-1,1.5-1.6,2.6
			c-0.9,1.5-1.3,2.3-1.3,2.4l0,2.2c0,0.8,0,1.3,0.1,1.4c0,0.1,0.1,0.2,0.2,0.2s0.2,0.1,0.3,0.1c0.2,0,0.4,0,0.6,0
			c0,0.1,0.1,0.2,0.1,0.3c0,0.1,0,0.2-0.1,0.3C1350.1,290,1349.4,290,1348.6,290z"/>
		<path class="st2" d="M1362.1,279.6l2.4,0c0.8,0,1.6,0.2,2.2,0.6c0.7,0.4,1.1,1.1,1.1,1.9c0,0.8-0.4,1.4-1.3,1.9
			c-0.2,0.1-0.3,0.2-0.4,0.2c-0.1,0-0.1,0.1-0.1,0.1c0,0,0.1,0,0.2,0c0.1,0,0.3,0.1,0.6,0.2c0.3,0.1,0.6,0.3,0.8,0.5
			c0.7,0.6,1,1.2,1,1.9c0,0.5-0.2,1-0.5,1.5s-0.7,0.8-1.2,1.1c-0.5,0.3-1,0.4-1.6,0.5s-1.1,0.1-1.4,0.1c-0.4,0-0.7,0-1.1,0
			c-1,0-2,0-2.9,0c0,0,0-0.1,0-0.3c0-0.1,0-0.2,0-0.3c0.1,0,0.2,0,0.4,0c0.4,0,0.6-0.1,0.6-0.2c0.1-0.2,0.1-0.7,0.1-1.5v-5.8
			c0-0.8,0-1.3-0.1-1.5c-0.1-0.2-0.5-0.2-1-0.2c0-0.1,0-0.2,0-0.3c0-0.1,0-0.2,0-0.3c0.4,0,0.8,0,1.2,0H1362.1z M1365.4,282.3
			c0-1.4-0.4-2.1-1.3-2.1c-0.2,0-0.4,0-0.5,0c-0.2,0-0.2,0.1-0.3,0.2c-0.1,0.1-0.1,0.4-0.1,1v2.8h0.8c0.4,0,0.7-0.2,1-0.5
			C1365.2,283.3,1365.4,282.9,1365.4,282.3z M1363.2,288.3c0,0.5,0,0.8,0.1,0.9c0.1,0.1,0.2,0.2,0.4,0.2c0.2,0,0.4,0,0.6,0
			c0.2,0,0.4,0,0.6-0.1c0.2-0.1,0.4-0.2,0.5-0.4c0.4-0.4,0.6-0.9,0.6-1.7c0-1.1-0.4-1.9-1.1-2.3c-0.3-0.1-0.6-0.2-0.9-0.2h-0.8
			V288.3z"/>
		<path class="st2" d="M1375.6,279.4c0.7,0,1.4,0.1,2,0.4c0.6,0.3,1.2,0.7,1.7,1.2c0.5,0.5,0.9,1.1,1.2,1.7c0.3,0.7,0.4,1.4,0.4,2.1
			c0,0.7-0.1,1.4-0.4,2.1c-0.3,0.6-0.7,1.2-1.2,1.7c-0.5,0.5-1.1,0.9-1.7,1.2c-0.6,0.3-1.3,0.4-2,0.4c-1.4,0-2.6-0.5-3.7-1.6
			c-0.5-0.5-0.9-1.1-1.2-1.7c-0.3-0.6-0.4-1.3-0.4-2.1c0-0.7,0.1-1.4,0.4-2.1c0.3-0.7,0.7-1.2,1.2-1.7
			C1373,280,1374.2,279.4,1375.6,279.4z M1376.8,280.6c-0.4-0.3-0.9-0.5-1.4-0.5c-0.5,0-1,0.1-1.3,0.4s-0.6,0.6-0.8,1
			c-0.4,0.7-0.5,1.6-0.5,2.8c0,1.4,0.2,2.6,0.7,3.5c0.6,1.2,1.4,1.7,2.5,1.7c0.9,0,1.5-0.4,2-1.3c0.4-0.7,0.6-1.7,0.6-2.8
			c0-1.4-0.2-2.6-0.7-3.5C1377.5,281.3,1377.2,280.9,1376.8,280.6z"/>
		<path class="st2" d="M1388.4,279.4c0.7,0,1.4,0.1,2,0.4c0.6,0.3,1.2,0.7,1.7,1.2c0.5,0.5,0.9,1.1,1.2,1.7c0.3,0.7,0.4,1.4,0.4,2.1
			c0,0.7-0.1,1.4-0.4,2.1c-0.3,0.6-0.7,1.2-1.2,1.7c-0.5,0.5-1.1,0.9-1.7,1.2c-0.6,0.3-1.3,0.4-2,0.4c-1.4,0-2.6-0.5-3.7-1.6
			c-0.5-0.5-0.9-1.1-1.2-1.7c-0.3-0.6-0.4-1.3-0.4-2.1c0-0.7,0.1-1.4,0.4-2.1c0.3-0.7,0.7-1.2,1.2-1.7
			C1385.8,280,1387,279.4,1388.4,279.4z M1389.6,280.6c-0.4-0.3-0.9-0.5-1.4-0.5c-0.5,0-1,0.1-1.3,0.4s-0.6,0.6-0.8,1
			c-0.4,0.7-0.5,1.6-0.5,2.8c0,1.4,0.2,2.6,0.7,3.5c0.6,1.2,1.4,1.7,2.5,1.7c0.9,0,1.5-0.4,2-1.3c0.4-0.7,0.6-1.7,0.6-2.8
			c0-1.4-0.2-2.6-0.7-3.5C1390.3,281.3,1390,280.9,1389.6,280.6z"/>
		<path class="st2" d="M1395.9,279.5c0.8,0.1,1.6,0.1,2.3,0.1c0.7,0,1.4,0,2.2-0.1c0,0,0,0.1,0,0.3c0,0.1,0,0.2,0,0.3
			c-0.3,0-0.5,0-0.7,0.1c-0.2,0.1-0.3,0.1-0.3,0.2c-0.1,0.2-0.1,0.4-0.1,0.6s0,0.5,0,0.9v2.8c0.8-0.6,1.3-1.1,1.6-1.4l0.7-0.7
			c0.5-0.5,1-1,1.4-1.6c0.1-0.1,0.1-0.3,0.1-0.5c0-0.2-0.3-0.3-0.9-0.3c-0.1-0.2-0.1-0.4,0-0.6l2.1,0.1c0.6,0,1.2,0,2-0.1
			c0,0.1,0,0.2,0,0.3c0,0.1,0,0.2-0.1,0.3c-0.3,0-0.7,0.1-1,0.2c-0.4,0.2-0.6,0.3-0.7,0.5l-3,3.1c-0.1,0.1-0.1,0.2,0,0.3l2.9,3.8
			c0.5,0.6,1.1,1.1,1.7,1.3c0.4,0.1,0.7,0.2,0.9,0.2c0,0.1,0,0.2,0,0.3c0,0.2,0,0.2,0,0.3c-0.4,0-1.1,0-1.8,0
			c-0.8,0-1.4-0.1-1.8-0.4s-0.7-0.5-0.9-0.8l-2.8-3.7c0,0-0.1-0.1-0.2-0.1c-0.1,0-0.1,0-0.2,0.1v2.4c0,0.4,0,0.6,0,0.9
			s0,0.4,0.1,0.5c0,0.1,0.1,0.2,0.2,0.2s0.2,0.1,0.3,0.1c0.2,0,0.4,0,0.6,0c0,0.1,0,0.2,0,0.3c0,0.1,0,0.2,0,0.3
			c-1.5-0.1-3-0.1-4.5,0c0,0,0-0.1,0-0.3c0-0.1,0-0.2,0-0.3c0.3,0,0.6,0,0.7-0.1c0.2-0.1,0.3-0.1,0.3-0.2c0.1-0.2,0.1-0.7,0.1-1.5
			v-5.8c0-0.8,0-1.3-0.1-1.5c-0.1-0.2-0.5-0.3-1-0.3c0-0.1,0-0.2,0-0.3C1395.9,279.7,1395.9,279.6,1395.9,279.5z"/>
	</g>
</g>
</svg>
