<?xml version="1.0" encoding="utf-8"?>
<!-- Generator: Adobe Illustrator 23.1.0, SVG Export Plug-In . SVG Version: 6.00 Build 0)  -->
<svg version="1.1" id="Layer_1" xmlns="http://www.w3.org/2000/svg" xmlns:xlink="http://www.w3.org/1999/xlink" x="0px" y="0px"
	 viewBox="0 0 97.8 97.8" style="enable-background:new 0 0 97.8 97.8;" xml:space="preserve">
	   <defs>
    <filter id="shadow">
    <feDropShadow dx="4.0" dy="4.0" stdDeviation="4.0" flood-color="#00000029"/>
    </filter>
  </defs>
<style type="text/css">
	.st0{fill:#FFFFFF;}
	.st1{enable-background:new    ;}
	.st2{fill:#F37A1F;}
</style>
<g>
	<path id="Path_166-2" class="st0" d="M48.9,0c27,0,48.9,21.9,48.9,48.9S75.9,97.8,48.9,97.8S0,75.9,0,48.9l0,0
		C0,21.9,21.9,0,48.9,0z" style="filter:url(#shadow);"/>
	<g class="st1" >
		<path class="st2" d="M30.4,41.9l3.2-0.1c1.1,0,2.1,0.3,2.9,0.8c0.9,0.6,1.4,1.5,1.4,2.6c0,1-0.6,1.9-1.7,2.6
			c-0.3,0.1-0.4,0.2-0.6,0.3c-0.1,0-0.2,0.1-0.2,0.1s0.1,0,0.2,0.1s0.4,0.1,0.8,0.3c0.4,0.2,0.8,0.4,1.1,0.7
			c0.9,0.7,1.3,1.6,1.3,2.5c0,0.7-0.2,1.4-0.6,2c-0.4,0.6-0.9,1.1-1.6,1.5c-0.6,0.4-1.3,0.6-2.1,0.7c-0.8,0.1-1.4,0.1-1.9,0.1
			s-1,0-1.4,0c-1.3,0-2.6,0-3.9,0c0-0.1-0.1-0.2-0.1-0.4s0-0.3,0.1-0.4c0.1,0,0.3,0,0.5-0.1c0.5-0.1,0.7-0.2,0.8-0.3
			c0.1-0.3,0.2-0.9,0.2-2v-7.8c0-1-0.1-1.7-0.2-2c-0.1-0.2-0.6-0.3-1.4-0.3c0-0.1-0.1-0.2-0.1-0.4s0-0.3,0.1-0.4
			c0.5,0,1,0.1,1.5,0.1h1.7V41.9z M34.8,45.5c0-1.9-0.6-2.8-1.8-2.8c-0.3,0-0.5,0-0.7,0s-0.3,0.1-0.4,0.2c-0.1,0.2-0.1,0.6-0.1,1.3
			v3.7h1.1c0.5,0,1-0.2,1.3-0.6C34.6,46.9,34.8,46.3,34.8,45.5z M31.8,53.5c0,0.7,0.1,1.1,0.2,1.2c0.1,0.1,0.3,0.2,0.5,0.2
			c0.3,0,0.5,0,0.8,0s0.5,0,0.8-0.1s0.5-0.3,0.7-0.5c0.5-0.5,0.8-1.2,0.8-2.2c0-1.5-0.5-2.5-1.4-3c-0.3-0.2-0.8-0.3-1.2-0.3h-1.1
			L31.8,53.5L31.8,53.5z"/>
		<path class="st2" d="M50.7,41.8c1.2,0.1,2.1,0.2,2.6,0.2s0.9,0,1.3-0.1s0.8-0.1,1.2-0.1c0,0.1,0.1,0.2,0.1,0.4s0,0.3-0.1,0.4
			c-0.6,0-1,0.1-1.2,0.2c-0.2,0.1-0.4,0.2-0.4,0.3c-0.2,0.5-0.3,1.4-0.3,2.6v4.1c0,2-0.6,3.6-1.8,4.7c-1,1-2.4,1.5-4,1.5
			c-0.9,0-1.7-0.2-2.5-0.5s-1.4-0.7-1.9-1.3s-0.8-1.2-1-2s-0.3-1.7-0.3-2.8v-4.5c0-0.4,0-0.8,0-1.2s0-0.6-0.1-0.7
			c-0.1-0.1-0.2-0.2-0.3-0.3c-0.1,0-0.3-0.1-0.4-0.1c-0.3,0-0.5-0.1-0.7-0.1c0-0.1-0.1-0.2-0.1-0.4s0-0.3,0.1-0.4
			c1.1,0.1,2.1,0.2,3,0.2s1.9-0.1,3-0.2c0,0.1,0.1,0.2,0.1,0.4s0,0.3-0.1,0.4c-0.4,0-0.7,0-1,0.1s-0.4,0.2-0.4,0.2
			c-0.1,0.3-0.2,1-0.2,2v3.9c0,0.7,0,1.4,0.1,1.9c0.1,0.6,0.2,1.1,0.4,1.6s0.5,0.9,0.8,1.2s0.6,0.5,0.9,0.6c0.4,0.2,0.9,0.3,1.4,0.3
			s1-0.1,1.4-0.3s0.8-0.5,1.1-0.9c0.7-0.9,1.1-2.3,1.1-4v-3.6c0-1.2-0.1-2.1-0.3-2.6c-0.1-0.1-0.3-0.3-0.6-0.3
			c-0.4-0.1-0.7-0.2-1-0.2c0-0.1-0.1-0.2-0.1-0.4C50.6,42,50.6,41.9,50.7,41.8z"/>
		<path class="st2" d="M63.4,55.7c-0.9,0-1.9,0.1-3,0.2c0-0.1-0.1-0.2-0.1-0.4s0-0.3,0.1-0.4c0.4,0,0.8,0,1-0.1s0.3-0.2,0.4-0.2
			c0.1-0.3,0.2-0.9,0.2-2v-3c0-0.1-0.5-1.1-1.5-2.9c-1.1-2.1-1.8-3.2-1.9-3.5c-0.2-0.3-0.4-0.4-0.8-0.5c-0.3-0.1-0.6-0.1-0.7-0.1
			C57,42.5,57,42.4,57,42.2s0-0.3,0.1-0.4c1,0.1,2,0.2,3,0.2c0.9,0,1.9-0.1,3-0.2c0,0.1,0.1,0.2,0.1,0.4s0,0.3-0.1,0.4
			c-0.9,0-1.3,0.2-1.3,0.5c0,0.1,0,0.2,0.1,0.4l2.6,4.7c0.1,0.1,0.9-1.5,2.7-4.6c0.1-0.2,0.1-0.3,0.1-0.5c0-0.1-0.1-0.2-0.2-0.3
			s-0.3-0.1-0.5-0.2c-0.3-0.1-0.6-0.1-0.9-0.1c0-0.1-0.1-0.2-0.1-0.4s0-0.3,0.1-0.4c1.3,0.1,2.1,0.2,2.5,0.2s0.8,0,1.1-0.1
			c0.3,0,0.7-0.1,1.2-0.1c0,0.1,0.1,0.2,0.1,0.4s0,0.3-0.1,0.4c-0.8,0-1.3,0.2-1.6,0.5c-0.6,0.9-1.3,2-2.1,3.4
			c-1.2,2-1.8,3.1-1.8,3.3v2.9c0,1.1,0,1.7,0.1,1.8c0.1,0.2,0.2,0.3,0.3,0.3c0.1,0.1,0.3,0.1,0.4,0.1c0.3,0,0.5,0.1,0.7,0.1
			c0.1,0.1,0.1,0.2,0.1,0.4s0,0.3-0.1,0.4C65.4,55.8,64.4,55.7,63.4,55.7z"/>
	</g>
</g>
</svg>
