<?xml version="1.0" encoding="utf-8"?>
<!-- Generator: Adobe Illustrator 23.1.0, SVG Export Plug-In . SVG Version: 6.00 Build 0)  -->
<svg version="1.1" id="Layer_1" xmlns="http://www.w3.org/2000/svg" xmlns:xlink="http://www.w3.org/1999/xlink" x="0px" y="0px"
	 viewBox="0 0 207 46" style="enable-background:new 0 0 207 46;" xml:space="preserve">
<style type="text/css">
	.st0{fill:#FFFFFF;}
	.st1{enable-background:new    ;}
	.st2{fill:#F37A1F;}
</style>
<g>
	<g transform="matrix(1, 0, 0, 1, 0, 0)">
		<path id="Rectangle_7-2" class="st0" d="M325.5-29.5h140c10.8,0,19.5,8.7,19.5,19.5l0,0c0,10.8-8.7,19.5-19.5,19.5h-140
			C314.7,9.5,306,0.8,306-10l0,0C306-20.8,314.7-29.5,325.5-29.5z"/>
	</g>
	<g class="st1">
		<path class="st2" d="M350.6-15.8l2.7-0.1c0.9,0,1.7,0.2,2.4,0.6c0.8,0.5,1.2,1.2,1.2,2.2c0,0.9-0.5,1.6-1.4,2.1
			c-0.2,0.1-0.4,0.2-0.5,0.2c-0.1,0-0.1,0.1-0.1,0.1s0.1,0,0.2,0.1c0.1,0,0.3,0.1,0.7,0.2c0.3,0.1,0.6,0.3,0.9,0.6
			c0.7,0.6,1.1,1.3,1.1,2.1c0,0.6-0.2,1.1-0.5,1.6s-0.8,0.9-1.3,1.2c-0.5,0.3-1.1,0.5-1.8,0.5s-1.2,0.1-1.6,0.1s-0.8,0-1.2,0
			c-1.1,0-2.2,0-3.3,0c0-0.1-0.1-0.2-0.1-0.3s0-0.3,0.1-0.3c0.1,0,0.2,0,0.5-0.1c0.4-0.1,0.6-0.1,0.7-0.3c0.1-0.2,0.1-0.8,0.1-1.7
			v-6.5c0-0.9,0-1.4-0.1-1.7c-0.1-0.2-0.5-0.3-1.1-0.3c0-0.1-0.1-0.2-0.1-0.3s0-0.3,0.1-0.3c0.4,0,0.8,0.1,1.3,0.1H350.6z
			 M354.3-12.8c0-1.6-0.5-2.3-1.5-2.3c-0.2,0-0.4,0-0.6,0S352-15,352-14.9c-0.1,0.1-0.1,0.5-0.1,1.1v3.1h0.9c0.4,0,0.8-0.2,1.1-0.5
			C354.2-11.6,354.3-12.1,354.3-12.8z M351.8-6.1c0,0.6,0,0.9,0.1,1c0.1,0.1,0.2,0.2,0.5,0.2s0.4,0,0.7,0c0.2,0,0.4,0,0.7-0.1
			s0.4-0.2,0.6-0.4c0.4-0.4,0.6-1,0.6-1.9c0-1.2-0.4-2.1-1.2-2.5c-0.3-0.2-0.6-0.2-1-0.2h-0.9V-6.1z"/>
		<path class="st2" d="M367.6-15.9c1,0.1,1.8,0.1,2.2,0.1c0.4,0,0.8,0,1.1-0.1c0.3,0,0.6-0.1,1-0.1c0,0.1,0.1,0.2,0.1,0.3
			s0,0.3-0.1,0.3c-0.5,0-0.8,0-1,0.1c-0.2,0.1-0.3,0.2-0.4,0.3c-0.2,0.4-0.2,1.2-0.2,2.1v3.4c0,1.7-0.5,3-1.5,3.9
			c-0.9,0.8-2,1.3-3.4,1.3c-0.7,0-1.4-0.1-2.1-0.4c-0.7-0.3-1.2-0.6-1.6-1.1c-0.4-0.5-0.6-1-0.8-1.7c-0.2-0.6-0.2-1.4-0.2-2.3v-3.7
			c0-0.4,0-0.7,0-1c0-0.3,0-0.5-0.1-0.6c-0.1-0.1-0.1-0.2-0.2-0.2c-0.1,0-0.2-0.1-0.3-0.1c-0.2,0-0.4-0.1-0.6-0.1
			c0-0.1-0.1-0.2-0.1-0.3s0-0.3,0.1-0.3c0.9,0.1,1.7,0.1,2.5,0.1c0.8,0,1.6,0,2.5-0.1c0,0.1,0.1,0.2,0.1,0.3s0,0.3-0.1,0.3
			c-0.3,0-0.6,0-0.8,0.1s-0.3,0.1-0.3,0.2c-0.1,0.2-0.1,0.8-0.1,1.7v3.2c0,0.6,0,1.1,0.1,1.6c0,0.5,0.2,0.9,0.3,1.3
			c0.2,0.4,0.4,0.8,0.6,1c0.2,0.2,0.5,0.4,0.7,0.5c0.4,0.2,0.8,0.3,1.2,0.3c0.4,0,0.8-0.1,1.2-0.2c0.3-0.2,0.6-0.4,0.9-0.8
			c0.6-0.8,0.9-1.9,0.9-3.3v-3c0-1-0.1-1.7-0.2-2.2c-0.1-0.1-0.2-0.2-0.5-0.3c-0.3-0.1-0.6-0.1-0.9-0.1c0-0.1-0.1-0.2-0.1-0.3
			S367.5-15.8,367.6-15.9z"/>
		<path class="st2" d="M378.2-4.3c-0.8,0-1.6,0-2.5,0.1c0-0.1-0.1-0.2-0.1-0.3s0-0.3,0.1-0.3c0.4,0,0.6,0,0.8-0.1s0.3-0.1,0.3-0.2
			c0.1-0.2,0.1-0.8,0.1-1.7v-2.5c0-0.1-0.4-0.9-1.3-2.4c-0.9-1.7-1.5-2.7-1.6-2.9c-0.1-0.2-0.4-0.4-0.6-0.4
			c-0.3-0.1-0.5-0.1-0.6-0.1c-0.1-0.1-0.1-0.2-0.1-0.3c0-0.2,0-0.3,0.1-0.3c0.8,0.1,1.7,0.1,2.5,0.1c0.8,0,1.6,0,2.5-0.1
			c0,0.1,0.1,0.2,0.1,0.3s0,0.3-0.1,0.3c-0.7,0-1.1,0.2-1.1,0.5c0,0.1,0,0.2,0.1,0.3l2.1,3.9c0.1,0.1,0.8-1.2,2.2-3.8
			c0.1-0.2,0.1-0.3,0.1-0.4s-0.1-0.2-0.2-0.2c-0.1-0.1-0.2-0.1-0.4-0.1c-0.2-0.1-0.5-0.1-0.7-0.1c0-0.1-0.1-0.2-0.1-0.3
			s0-0.3,0.1-0.3c1.1,0.1,1.8,0.1,2.1,0.1c0.3,0,0.6,0,0.9-0.1c0.3,0,0.6-0.1,1-0.1c0,0.1,0.1,0.2,0.1,0.3s0,0.3-0.1,0.3
			c-0.7,0-1.1,0.1-1.3,0.4c-0.5,0.7-1.1,1.7-1.8,2.9c-1,1.7-1.5,2.6-1.5,2.7l0,2.4c0,0.9,0,1.4,0.1,1.5c0.1,0.1,0.1,0.2,0.2,0.3
			s0.2,0.1,0.3,0.1c0.2,0,0.4,0.1,0.6,0.1c0.1,0.1,0.1,0.2,0.1,0.3s0,0.3-0.1,0.3C379.8-4.2,379-4.3,378.2-4.3z"/>
		<path class="st2" d="M393.1-15.8l2.7-0.1c0.9,0,1.7,0.2,2.4,0.6c0.8,0.5,1.2,1.2,1.2,2.2c0,0.9-0.5,1.6-1.4,2.1
			c-0.2,0.1-0.4,0.2-0.5,0.2s-0.1,0.1-0.1,0.1s0.1,0,0.2,0.1c0.1,0,0.3,0.1,0.7,0.2c0.3,0.1,0.6,0.3,0.9,0.6
			c0.7,0.6,1.1,1.3,1.1,2.1c0,0.6-0.2,1.1-0.5,1.6s-0.8,0.9-1.3,1.2c-0.5,0.3-1.1,0.5-1.8,0.5s-1.2,0.1-1.6,0.1c-0.4,0-0.8,0-1.2,0
			c-1.1,0-2.2,0-3.3,0c0-0.1-0.1-0.2-0.1-0.3s0-0.3,0.1-0.3c0.1,0,0.2,0,0.5-0.1c0.4-0.1,0.6-0.1,0.7-0.3c0.1-0.2,0.1-0.8,0.1-1.7
			v-6.5c0-0.9,0-1.4-0.1-1.7c-0.1-0.2-0.5-0.3-1.1-0.3c0-0.1-0.1-0.2-0.1-0.3s0-0.3,0.1-0.3c0.4,0,0.8,0.1,1.3,0.1H393.1z
			 M396.8-12.8c0-1.6-0.5-2.3-1.5-2.3c-0.2,0-0.4,0-0.6,0c-0.2,0-0.3,0.1-0.3,0.2c-0.1,0.1-0.1,0.5-0.1,1.1v3.1h0.9
			c0.4,0,0.8-0.2,1.1-0.5C396.6-11.6,396.8-12.1,396.8-12.8z M394.3-6.1c0,0.6,0,0.9,0.1,1c0.1,0.1,0.2,0.2,0.5,0.2s0.4,0,0.7,0
			c0.2,0,0.4,0,0.7-0.1c0.2-0.1,0.4-0.2,0.6-0.4c0.4-0.4,0.6-1,0.6-1.9c0-1.2-0.4-2.1-1.2-2.5c-0.3-0.2-0.6-0.2-1-0.2h-0.9V-6.1z"/>
		<path class="st2" d="M408.2-16c0.8,0,1.5,0.2,2.3,0.5c0.7,0.3,1.4,0.7,1.9,1.3c0.6,0.5,1,1.2,1.3,1.9c0.3,0.7,0.5,1.5,0.5,2.3
			s-0.2,1.6-0.5,2.3c-0.3,0.7-0.8,1.4-1.3,1.9c-0.6,0.5-1.2,1-1.9,1.3c-0.7,0.3-1.5,0.5-2.3,0.5c-1.6,0-2.9-0.6-4.1-1.7
			c-0.6-0.6-1-1.2-1.3-1.9c-0.3-0.7-0.5-1.5-0.5-2.3s0.2-1.6,0.5-2.3c0.3-0.7,0.8-1.4,1.3-1.9C405.2-15.4,406.6-16,408.2-16z
			 M409.4-14.7c-0.5-0.4-1-0.5-1.6-0.5s-1.1,0.1-1.4,0.4c-0.4,0.3-0.6,0.6-0.9,1.1c-0.4,0.8-0.6,1.8-0.6,3.1c0,1.5,0.3,2.8,0.8,3.9
			c0.6,1.3,1.6,1.9,2.7,1.9c1,0,1.7-0.5,2.2-1.5c0.4-0.8,0.6-1.8,0.6-3.1c0-1.6-0.3-2.9-0.8-3.9C410.2-13.9,409.9-14.3,409.4-14.7z"
			/>
		<path class="st2" d="M422.4-16c0.8,0,1.5,0.2,2.3,0.5c0.7,0.3,1.4,0.7,1.9,1.3c0.6,0.5,1,1.2,1.3,1.9c0.3,0.7,0.5,1.5,0.5,2.3
			s-0.2,1.6-0.5,2.3c-0.3,0.7-0.8,1.4-1.3,1.9c-0.6,0.5-1.2,1-1.9,1.3c-0.7,0.3-1.5,0.5-2.3,0.5c-1.6,0-2.9-0.6-4.1-1.7
			c-0.6-0.6-1-1.2-1.3-1.9s-0.5-1.5-0.5-2.3s0.2-1.6,0.5-2.3c0.3-0.7,0.8-1.4,1.3-1.9C419.5-15.4,420.8-16,422.4-16z M423.7-14.7
			c-0.5-0.4-1-0.5-1.6-0.5c-0.6,0-1.1,0.1-1.4,0.4c-0.4,0.3-0.6,0.6-0.9,1.1c-0.4,0.8-0.6,1.8-0.6,3.1c0,1.5,0.3,2.8,0.8,3.9
			c0.6,1.3,1.6,1.9,2.7,1.9c1,0,1.7-0.5,2.2-1.5c0.4-0.8,0.6-1.8,0.6-3.1c0-1.6-0.3-2.9-0.8-3.9C424.5-13.9,424.1-14.3,423.7-14.7z"
			/>
		<path class="st2" d="M430.7-15.9c0.9,0.1,1.7,0.1,2.5,0.1c0.8,0,1.6,0,2.5-0.1c0,0.1,0.1,0.2,0.1,0.3s0,0.3-0.1,0.3
			c-0.3,0-0.6,0-0.8,0.1c-0.2,0.1-0.3,0.1-0.3,0.2c-0.1,0.2-0.1,0.4-0.1,0.7s0,0.6,0,1v3.1c0.9-0.7,1.5-1.2,1.8-1.5l0.8-0.7
			c0.5-0.6,1.1-1.2,1.6-1.8c0.1-0.1,0.2-0.3,0.2-0.6c0-0.3-0.3-0.4-1-0.4c-0.1-0.2-0.1-0.4,0-0.6l2.3,0.1c0.6,0,1.4,0,2.2-0.1
			c0,0.1,0,0.2,0,0.3c0,0.1,0,0.2-0.1,0.3c-0.4,0-0.8,0.1-1.1,0.3c-0.4,0.2-0.7,0.3-0.8,0.5l-3.3,3.4c-0.1,0.1-0.1,0.2-0.1,0.3
			l3.2,4.3c0.6,0.7,1.2,1.2,1.9,1.5c0.4,0.2,0.8,0.2,1,0.2c0,0.1,0,0.2,0,0.4c0,0.2,0,0.3,0,0.3c-0.5,0-1.2,0.1-2,0.1
			s-1.5-0.1-2-0.4c-0.5-0.3-0.8-0.6-1-0.9l-3.1-4.1c-0.1-0.1-0.1-0.1-0.2-0.1c-0.1,0-0.1,0-0.2,0.1v2.7c0,0.4,0,0.7,0,1
			s0,0.5,0.1,0.6c0.1,0.1,0.1,0.2,0.2,0.2s0.2,0.1,0.3,0.1c0.2,0,0.4,0.1,0.6,0.1c0,0.1,0.1,0.2,0.1,0.3s0,0.3-0.1,0.3
			c-1.7-0.2-3.3-0.2-5,0c0-0.1-0.1-0.2-0.1-0.3s0-0.3,0.1-0.3c0.4,0,0.6,0,0.8-0.1c0.2-0.1,0.3-0.1,0.3-0.2c0.1-0.2,0.1-0.8,0.1-1.7
			v-6.5c0-0.9,0-1.4-0.1-1.7c-0.1-0.2-0.5-0.3-1.1-0.3c0-0.1-0.1-0.2-0.1-0.3S430.7-15.8,430.7-15.9z"/>
	</g>
</g>
<path id="Path_166-2" class="st0" d="M606.5,16.1c27,0,48.9,21.9,48.9,48.9s-21.9,48.9-48.9,48.9S557.6,92,557.6,65c0,0,0,0,0,0
	C557.6,38,579.5,16.1,606.5,16.1z"/>
<g class="st1">
	<path class="st2" d="M588,58l3.2-0.1c1.1,0,2.1,0.3,2.9,0.8c0.9,0.6,1.4,1.5,1.4,2.6c0,1-0.6,1.9-1.7,2.6c-0.3,0.1-0.4,0.2-0.6,0.3
		c-0.1,0-0.2,0.1-0.2,0.1c0,0,0.1,0,0.2,0.1s0.4,0.1,0.8,0.3c0.4,0.2,0.8,0.4,1.1,0.7c0.9,0.7,1.3,1.6,1.3,2.5c0,0.7-0.2,1.4-0.6,2
		c-0.4,0.6-0.9,1.1-1.6,1.5c-0.6,0.4-1.3,0.6-2.1,0.7c-0.8,0.1-1.4,0.1-1.9,0.1c-0.5,0-1,0-1.4,0c-1.3,0-2.6,0-3.9,0
		c0-0.1-0.1-0.2-0.1-0.4c0-0.2,0-0.3,0.1-0.4c0.1,0,0.3,0,0.5-0.1c0.5-0.1,0.7-0.2,0.8-0.3c0.1-0.3,0.2-0.9,0.2-2V61
		c0-1-0.1-1.7-0.2-2c-0.1-0.2-0.6-0.3-1.4-0.3c0-0.1-0.1-0.2-0.1-0.4c0-0.2,0-0.3,0.1-0.4c0.5,0,1,0.1,1.5,0.1H588z M592.4,61.6
		c0-1.9-0.6-2.8-1.8-2.8c-0.3,0-0.5,0-0.7,0c-0.2,0-0.3,0.1-0.4,0.2c-0.1,0.2-0.1,0.6-0.1,1.3v3.7h1.1c0.5,0,1-0.2,1.3-0.6
		C592.2,63,592.4,62.4,592.4,61.6z M589.4,69.6c0,0.7,0.1,1.1,0.2,1.2c0.1,0.1,0.3,0.2,0.5,0.2c0.3,0,0.5,0,0.8,0s0.5,0,0.8-0.1
		c0.3-0.1,0.5-0.3,0.7-0.5c0.5-0.5,0.8-1.2,0.8-2.2c0-1.5-0.5-2.5-1.4-3c-0.3-0.2-0.8-0.3-1.2-0.3h-1.1V69.6z"/>
	<path class="st2" d="M608.3,57.9c1.2,0.1,2.1,0.2,2.6,0.2c0.5,0,0.9,0,1.3-0.1s0.8-0.1,1.2-0.1c0,0.1,0.1,0.2,0.1,0.4
		c0,0.2,0,0.3-0.1,0.4c-0.6,0-1,0.1-1.2,0.2c-0.2,0.1-0.4,0.2-0.4,0.3c-0.2,0.5-0.3,1.4-0.3,2.6v4.1c0,2-0.6,3.6-1.8,4.7
		c-1,1-2.4,1.5-4,1.5c-0.9,0-1.7-0.2-2.5-0.5c-0.8-0.3-1.4-0.7-1.9-1.3s-0.8-1.2-1-2c-0.2-0.8-0.3-1.7-0.3-2.8V61c0-0.4,0-0.8,0-1.2
		s0-0.6-0.1-0.7c-0.1-0.1-0.2-0.2-0.3-0.3c-0.1,0-0.3-0.1-0.4-0.1c-0.3,0-0.5-0.1-0.7-0.1c0-0.1-0.1-0.2-0.1-0.4
		c0-0.2,0-0.3,0.1-0.4c1.1,0.1,2.1,0.2,3,0.2c0.9,0,1.9-0.1,3-0.2c0,0.1,0.1,0.2,0.1,0.4c0,0.2,0,0.3-0.1,0.4c-0.4,0-0.7,0-1,0.1
		s-0.4,0.2-0.4,0.2c-0.1,0.3-0.2,1-0.2,2v3.9c0,0.7,0,1.4,0.1,1.9c0.1,0.6,0.2,1.1,0.4,1.6c0.2,0.5,0.5,0.9,0.8,1.2s0.6,0.5,0.9,0.6
		c0.4,0.2,0.9,0.3,1.4,0.3s1-0.1,1.4-0.3c0.4-0.2,0.8-0.5,1.1-0.9c0.7-0.9,1.1-2.3,1.1-4v-3.6c0-1.2-0.1-2.1-0.3-2.6
		c-0.1-0.1-0.3-0.3-0.6-0.3c-0.4-0.1-0.7-0.2-1-0.2c0-0.1-0.1-0.2-0.1-0.4C608.2,58.1,608.2,58,608.3,57.9z"/>
	<path class="st2" d="M621,71.8c-0.9,0-1.9,0.1-3,0.2c0-0.1-0.1-0.2-0.1-0.4s0-0.3,0.1-0.4c0.4,0,0.8,0,1-0.1
		c0.2-0.1,0.3-0.2,0.4-0.2c0.1-0.3,0.2-0.9,0.2-2v-3c0-0.1-0.5-1.1-1.5-2.9c-1.1-2.1-1.8-3.2-1.9-3.5c-0.2-0.3-0.4-0.4-0.8-0.5
		c-0.3-0.1-0.6-0.1-0.7-0.1c-0.1-0.1-0.1-0.2-0.1-0.4c0-0.2,0-0.3,0.1-0.4c1,0.1,2,0.2,3,0.2c0.9,0,1.9-0.1,3-0.2
		c0,0.1,0.1,0.2,0.1,0.4c0,0.2,0,0.3-0.1,0.4c-0.9,0-1.3,0.2-1.3,0.5c0,0.1,0,0.2,0.1,0.4l2.6,4.7c0.1,0.1,0.9-1.5,2.7-4.6
		c0.1-0.2,0.1-0.3,0.1-0.5c0-0.1-0.1-0.2-0.2-0.3c-0.1-0.1-0.3-0.1-0.5-0.2c-0.3-0.1-0.6-0.1-0.9-0.1c0-0.1-0.1-0.2-0.1-0.4
		c0-0.2,0-0.3,0.1-0.4c1.3,0.1,2.1,0.2,2.5,0.2s0.8,0,1.1-0.1c0.3,0,0.7-0.1,1.2-0.1c0,0.1,0.1,0.2,0.1,0.4c0,0.2,0,0.3-0.1,0.4
		c-0.8,0-1.3,0.2-1.6,0.5c-0.6,0.9-1.3,2-2.1,3.4c-1.2,2-1.8,3.1-1.8,3.3l0,2.9c0,1.1,0,1.7,0.1,1.8c0.1,0.2,0.2,0.3,0.3,0.3
		c0.1,0.1,0.3,0.1,0.4,0.1c0.3,0,0.5,0.1,0.7,0.1c0.1,0.1,0.1,0.2,0.1,0.4s0,0.3-0.1,0.4C623,71.9,622,71.8,621,71.8z"/>
</g>
<g id="buy" transform="translate(-1265 -263.009)">
	<g transform="matrix(1, 0, 0, 1, 1265, 263.01)">
		<path id="Rectangle_7-2_1_" class="st0" d="M47.6,185h153c11.9,0,21.5,9.6,21.5,21.5l0,0c0,11.9-9.6,21.5-21.5,21.5h-153
			c-11.9,0-21.5-9.6-21.5-21.5l0,0C26.1,194.6,35.8,185,47.6,185z"/>
	</g>
	<g class="st1">
		<path class="st2" d="M1350,464.6l2.4,0c0.8,0,1.6,0.2,2.2,0.6c0.7,0.4,1.1,1.1,1.1,1.9c0,0.8-0.4,1.4-1.3,1.9
			c-0.2,0.1-0.3,0.2-0.4,0.2s-0.1,0.1-0.1,0.1c0,0,0.1,0,0.2,0c0.1,0,0.3,0.1,0.6,0.2c0.3,0.1,0.6,0.3,0.8,0.5c0.7,0.6,1,1.2,1,1.9
			c0,0.5-0.2,1-0.5,1.5c-0.3,0.4-0.7,0.8-1.2,1.1c-0.5,0.3-1,0.4-1.6,0.5c-0.6,0-1.1,0.1-1.4,0.1c-0.4,0-0.7,0-1.1,0c-1,0-2,0-2.9,0
			c0,0,0-0.1,0-0.3c0-0.1,0-0.2,0-0.3c0.1,0,0.2,0,0.4,0c0.4,0,0.6-0.1,0.6-0.2c0.1-0.2,0.1-0.7,0.1-1.5v-5.8c0-0.8,0-1.3-0.1-1.5
			c-0.1-0.2-0.5-0.2-1-0.2c0-0.1,0-0.2,0-0.3c0-0.1,0-0.2,0-0.3c0.4,0,0.8,0,1.2,0H1350z M1353.3,467.3c0-1.4-0.4-2.1-1.3-2.1
			c-0.2,0-0.4,0-0.5,0c-0.2,0-0.2,0.1-0.3,0.2c-0.1,0.1-0.1,0.4-0.1,1v2.8h0.8c0.4,0,0.7-0.2,1-0.5
			C1353.2,468.3,1353.3,467.9,1353.3,467.3z M1351.1,473.3c0,0.5,0,0.8,0.1,0.9c0.1,0.1,0.2,0.2,0.4,0.2c0.2,0,0.4,0,0.6,0
			s0.4,0,0.6-0.1c0.2-0.1,0.4-0.2,0.5-0.4c0.4-0.4,0.6-0.9,0.6-1.7c0-1.1-0.4-1.9-1.1-2.3c-0.3-0.1-0.6-0.2-0.9-0.2h-0.8V473.3z"/>
		<path class="st2" d="M1365.2,464.5c0.9,0.1,1.6,0.1,2,0.1s0.7,0,1,0c0.3,0,0.6-0.1,0.9-0.1c0,0,0,0.1,0,0.3c0,0.1,0,0.2,0,0.3
			c-0.4,0-0.7,0-0.9,0.1c-0.2,0.1-0.3,0.2-0.3,0.2c-0.1,0.4-0.2,1-0.2,1.9v3.1c0,1.5-0.4,2.7-1.3,3.6c-0.8,0.8-1.8,1.1-3,1.1
			c-0.7,0-1.3-0.1-1.9-0.3s-1.1-0.6-1.4-1c-0.3-0.4-0.6-0.9-0.7-1.5s-0.2-1.3-0.2-2.1v-3.4c0-0.3,0-0.6,0-0.9s0-0.4-0.1-0.5
			c0-0.1-0.1-0.2-0.2-0.2c-0.1,0-0.2-0.1-0.3-0.1c-0.2,0-0.4,0-0.6,0c0-0.1,0-0.2,0-0.3c0-0.1,0-0.2,0-0.3c0.8,0.1,1.6,0.1,2.3,0.1
			s1.5,0,2.3-0.1c0,0,0,0.1,0,0.3c0,0.1,0,0.2,0,0.3c-0.3,0-0.5,0-0.7,0.1c-0.2,0.1-0.3,0.1-0.3,0.2c-0.1,0.2-0.1,0.7-0.1,1.5v2.9
			c0,0.5,0,1,0.1,1.5c0,0.4,0.1,0.8,0.3,1.2c0.2,0.4,0.4,0.7,0.6,0.9c0.2,0.2,0.4,0.3,0.7,0.4c0.3,0.2,0.7,0.2,1.1,0.2
			c0.4,0,0.8-0.1,1.1-0.2c0.3-0.1,0.6-0.4,0.8-0.7c0.5-0.7,0.8-1.7,0.8-3v-2.7c0-0.9-0.1-1.5-0.2-1.9c0-0.1-0.2-0.2-0.4-0.2
			c-0.3-0.1-0.5-0.1-0.8-0.1c0-0.1,0-0.2,0-0.3C1365.2,464.7,1365.2,464.6,1365.2,464.5z"/>
		<path class="st2" d="M1374.8,475c-0.7,0-1.4,0-2.2,0.1c0,0,0-0.1,0-0.3c0-0.1,0-0.2,0-0.3c0.3,0,0.6,0,0.7-0.1
			c0.2-0.1,0.2-0.1,0.3-0.2c0.1-0.2,0.1-0.7,0.1-1.5v-2.3c0-0.1-0.4-0.8-1.1-2.2c-0.8-1.6-1.3-2.4-1.4-2.6c-0.1-0.2-0.3-0.3-0.6-0.4
			c-0.2-0.1-0.4-0.1-0.5-0.1c0-0.1-0.1-0.2-0.1-0.3c0-0.1,0-0.2,0.1-0.3c0.8,0.1,1.5,0.1,2.3,0.1c0.7,0,1.4,0,2.2-0.1
			c0,0,0,0.1,0,0.3c0,0.1,0,0.2,0,0.3c-0.6,0-1,0.1-1,0.4c0,0,0,0.1,0.1,0.3l1.9,3.5c0,0,0.7-1.1,2-3.4c0-0.1,0.1-0.3,0.1-0.3
			s-0.1-0.2-0.2-0.2c-0.1,0-0.2-0.1-0.3-0.1c-0.2,0-0.4-0.1-0.7-0.1c0-0.1,0-0.2,0-0.3c0-0.1,0-0.2,0-0.3c1,0.1,1.6,0.1,1.9,0.1
			s0.6,0,0.8,0s0.5-0.1,0.9-0.1c0,0,0,0.1,0,0.3c0,0.1,0,0.2,0,0.3c-0.6,0-1,0.1-1.2,0.4c-0.4,0.6-1,1.5-1.6,2.6
			c-0.9,1.5-1.3,2.3-1.3,2.4l0,2.2c0,0.8,0,1.3,0.1,1.4s0.1,0.2,0.2,0.2s0.2,0.1,0.3,0.1c0.2,0,0.4,0,0.6,0c0,0.1,0.1,0.2,0.1,0.3
			c0,0.1,0,0.2-0.1,0.3C1376.2,475,1375.5,475,1374.8,475z"/>
		<path class="st2" d="M1388.2,464.6l2.4,0c0.8,0,1.6,0.2,2.2,0.6c0.7,0.4,1.1,1.1,1.1,1.9c0,0.8-0.4,1.4-1.3,1.9
			c-0.2,0.1-0.3,0.2-0.4,0.2s-0.1,0.1-0.1,0.1c0,0,0.1,0,0.2,0c0.1,0,0.3,0.1,0.6,0.2c0.3,0.1,0.6,0.3,0.8,0.5c0.7,0.6,1,1.2,1,1.9
			c0,0.5-0.2,1-0.5,1.5c-0.3,0.4-0.7,0.8-1.2,1.1c-0.5,0.3-1,0.4-1.6,0.5c-0.6,0-1.1,0.1-1.4,0.1c-0.4,0-0.7,0-1.1,0c-1,0-2,0-2.9,0
			c0,0,0-0.1,0-0.3c0-0.1,0-0.2,0-0.3c0.1,0,0.2,0,0.4,0c0.4,0,0.6-0.1,0.6-0.2c0.1-0.2,0.1-0.7,0.1-1.5v-5.8c0-0.8,0-1.3-0.1-1.5
			c-0.1-0.2-0.5-0.2-1-0.2c0-0.1,0-0.2,0-0.3c0-0.1,0-0.2,0-0.3c0.4,0,0.8,0,1.2,0H1388.2z M1391.5,467.3c0-1.4-0.4-2.1-1.3-2.1
			c-0.2,0-0.4,0-0.5,0c-0.2,0-0.2,0.1-0.3,0.2c-0.1,0.1-0.1,0.4-0.1,1v2.8h0.8c0.4,0,0.7-0.2,1-0.5
			C1391.4,468.3,1391.5,467.9,1391.5,467.3z M1389.3,473.3c0,0.5,0,0.8,0.1,0.9c0.1,0.1,0.2,0.2,0.4,0.2c0.2,0,0.4,0,0.6,0
			s0.4,0,0.6-0.1c0.2-0.1,0.4-0.2,0.5-0.4c0.4-0.4,0.6-0.9,0.6-1.7c0-1.1-0.4-1.9-1.1-2.3c-0.3-0.1-0.6-0.2-0.9-0.2h-0.8V473.3z"/>
		<path class="st2" d="M1401.7,464.4c0.7,0,1.4,0.1,2,0.4c0.6,0.3,1.2,0.7,1.7,1.2c0.5,0.5,0.9,1.1,1.2,1.7c0.3,0.7,0.4,1.4,0.4,2.1
			c0,0.7-0.1,1.4-0.4,2.1c-0.3,0.6-0.7,1.2-1.2,1.7c-0.5,0.5-1.1,0.9-1.7,1.2c-0.6,0.3-1.3,0.4-2,0.4c-1.4,0-2.6-0.5-3.7-1.6
			c-0.5-0.5-0.9-1.1-1.2-1.7c-0.3-0.6-0.4-1.3-0.4-2.1c0-0.7,0.1-1.4,0.4-2.1c0.3-0.7,0.7-1.2,1.2-1.7
			C1399.1,465,1400.3,464.4,1401.7,464.4z M1402.9,465.6c-0.4-0.3-0.9-0.5-1.4-0.5c-0.5,0-1,0.1-1.3,0.4c-0.3,0.3-0.6,0.6-0.8,1
			c-0.4,0.7-0.5,1.6-0.5,2.8c0,1.4,0.2,2.6,0.7,3.5c0.6,1.2,1.4,1.7,2.5,1.7c0.9,0,1.5-0.4,2-1.3c0.4-0.7,0.6-1.7,0.6-2.8
			c0-1.4-0.2-2.6-0.7-3.5C1403.6,466.3,1403.3,465.9,1402.9,465.6z"/>
		<path class="st2" d="M1414.6,464.4c0.7,0,1.4,0.1,2,0.4c0.6,0.3,1.2,0.7,1.7,1.2c0.5,0.5,0.9,1.1,1.2,1.7c0.3,0.7,0.4,1.4,0.4,2.1
			c0,0.7-0.1,1.4-0.4,2.1c-0.3,0.6-0.7,1.2-1.2,1.7c-0.5,0.5-1.1,0.9-1.7,1.2c-0.6,0.3-1.3,0.4-2,0.4c-1.4,0-2.6-0.5-3.7-1.6
			c-0.5-0.5-0.9-1.1-1.2-1.7c-0.3-0.6-0.4-1.3-0.4-2.1c0-0.7,0.1-1.4,0.4-2.1c0.3-0.7,0.7-1.2,1.2-1.7
			C1411.9,465,1413.2,464.4,1414.6,464.4z M1415.7,465.6c-0.4-0.3-0.9-0.5-1.4-0.5c-0.5,0-1,0.1-1.3,0.4c-0.3,0.3-0.6,0.6-0.8,1
			c-0.4,0.7-0.5,1.6-0.5,2.8c0,1.4,0.2,2.6,0.7,3.5c0.6,1.2,1.4,1.7,2.5,1.7c0.9,0,1.5-0.4,2-1.3c0.4-0.7,0.6-1.7,0.6-2.8
			c0-1.4-0.2-2.6-0.7-3.5C1416.5,466.3,1416.1,465.9,1415.7,465.6z"/>
		<path class="st2" d="M1422.1,464.5c0.8,0.1,1.6,0.1,2.3,0.1c0.7,0,1.4,0,2.2-0.1c0,0,0,0.1,0,0.3c0,0.1,0,0.2,0,0.3
			c-0.3,0-0.5,0-0.7,0.1c-0.2,0.1-0.3,0.1-0.3,0.2c-0.1,0.2-0.1,0.4-0.1,0.6c0,0.2,0,0.5,0,0.9v2.8c0.8-0.6,1.3-1.1,1.6-1.4l0.7-0.7
			c0.5-0.5,1-1,1.4-1.6c0.1-0.1,0.1-0.3,0.1-0.5c0-0.2-0.3-0.3-0.9-0.3c-0.1-0.2-0.1-0.4,0-0.6l2.1,0.1c0.6,0,1.2,0,2-0.1
			c0,0.1,0,0.2,0,0.3c0,0.1,0,0.2-0.1,0.3c-0.3,0-0.7,0.1-1,0.2c-0.4,0.2-0.6,0.3-0.7,0.5l-3,3.1c-0.1,0.1-0.1,0.2,0,0.3l2.9,3.8
			c0.5,0.6,1.1,1.1,1.7,1.3c0.4,0.1,0.7,0.2,0.9,0.2c0,0.1,0,0.2,0,0.3c0,0.2,0,0.2,0,0.3c-0.4,0-1.1,0-1.8,0s-1.4-0.1-1.8-0.4
			c-0.4-0.3-0.7-0.5-0.9-0.8l-2.8-3.7c0,0-0.1-0.1-0.2-0.1c-0.1,0-0.1,0-0.2,0.1v2.4c0,0.4,0,0.6,0,0.9c0,0.2,0,0.4,0.1,0.5
			c0,0.1,0.1,0.2,0.2,0.2s0.2,0.1,0.3,0.1c0.2,0,0.4,0,0.6,0c0,0.1,0,0.2,0,0.3c0,0.1,0,0.2,0,0.3c-1.5-0.1-3-0.1-4.5,0
			c0,0,0-0.1,0-0.3c0-0.1,0-0.2,0-0.3c0.3,0,0.6,0,0.7-0.1c0.2-0.1,0.3-0.1,0.3-0.2c0.1-0.2,0.1-0.7,0.1-1.5v-5.8
			c0-0.8,0-1.3-0.1-1.5c-0.1-0.2-0.5-0.3-1-0.3c0-0.1,0-0.2,0-0.3C1422,464.7,1422,464.6,1422.1,464.5z"/>
	</g>
</g>
<g>
	<g transform="matrix(1, 0, 0, 1, 0, 0)">
		<path id="Rectangle_7-2_2_" class="st0" d="M337-92h123c9.4,0,17,7.6,17,17l0,0c0,9.4-7.6,17-17,17H337c-9.4,0-17-7.6-17-17l0,0
			C320-84.4,327.6-92,337-92z"/>
	</g>
	<g class="st1">
		<path class="st2" d="M360.4-79.9l2.3,0c0.8,0,1.5,0.2,2,0.5c0.7,0.4,1,1,1,1.8c0,0.7-0.4,1.3-1.2,1.8c-0.2,0.1-0.3,0.2-0.4,0.2
			s-0.1,0.1-0.1,0.1c0,0,0,0,0.1,0c0.1,0,0.3,0.1,0.6,0.2c0.3,0.1,0.5,0.3,0.8,0.5c0.6,0.5,0.9,1.1,0.9,1.8c0,0.5-0.1,1-0.4,1.4
			s-0.7,0.8-1.1,1c-0.5,0.3-1,0.4-1.5,0.5s-1,0.1-1.4,0.1s-0.7,0-1,0c-0.9,0-1.8,0-2.8,0c0,0,0-0.1,0-0.3s0-0.2,0-0.3
			c0.1,0,0.2,0,0.4,0c0.3,0,0.5-0.1,0.6-0.2c0.1-0.2,0.1-0.6,0.1-1.4v-5.5c0-0.7,0-1.2-0.1-1.4c-0.1-0.2-0.4-0.2-1-0.2
			c0-0.1,0-0.2,0-0.3c0-0.1,0-0.2,0-0.3c0.3,0,0.7,0,1.1,0H360.4z M363.5-77.4c0-1.3-0.4-2-1.2-2c-0.2,0-0.3,0-0.5,0
			c-0.1,0-0.2,0.1-0.3,0.2c-0.1,0.1-0.1,0.4-0.1,0.9v2.6h0.8c0.4,0,0.7-0.1,0.9-0.4C363.4-76.4,363.5-76.8,363.5-77.4z M361.4-71.7
			c0,0.5,0,0.8,0.1,0.8c0.1,0.1,0.2,0.2,0.4,0.2c0.2,0,0.4,0,0.6,0c0.2,0,0.4,0,0.6-0.1c0.2-0.1,0.4-0.2,0.5-0.4
			c0.4-0.3,0.5-0.9,0.5-1.6c0-1-0.3-1.8-1-2.1c-0.2-0.1-0.5-0.2-0.9-0.2h-0.8V-71.7z"/>
		<path class="st2" d="M374.8-80c0.9,0.1,1.5,0.1,1.8,0.1c0.4,0,0.7,0,0.9,0s0.5-0.1,0.8-0.1c0,0,0,0.1,0,0.3c0,0.1,0,0.2,0,0.3
			c-0.4,0-0.7,0-0.8,0.1c-0.2,0.1-0.3,0.2-0.3,0.2c-0.1,0.4-0.2,1-0.2,1.8v2.9c0,1.4-0.4,2.6-1.2,3.4c-0.7,0.7-1.7,1.1-2.9,1.1
			c-0.6,0-1.2-0.1-1.8-0.3c-0.6-0.2-1-0.5-1.3-0.9s-0.6-0.9-0.7-1.4c-0.1-0.5-0.2-1.2-0.2-2v-3.2c0-0.3,0-0.6,0-0.8s0-0.4-0.1-0.5
			c0-0.1-0.1-0.2-0.2-0.2c-0.1,0-0.2-0.1-0.3-0.1c-0.2,0-0.4,0-0.5,0c0-0.1,0-0.2,0-0.3c0-0.1,0-0.2,0-0.3c0.8,0.1,1.5,0.1,2.1,0.1
			s1.4,0,2.1-0.1c0,0,0,0.1,0,0.3c0,0.1,0,0.2,0,0.3c-0.3,0-0.5,0-0.7,0.1c-0.2,0.1-0.3,0.1-0.3,0.2c-0.1,0.2-0.1,0.7-0.1,1.4v2.7
			c0,0.5,0,1,0.1,1.4c0,0.4,0.1,0.8,0.3,1.1c0.2,0.4,0.3,0.6,0.5,0.8c0.2,0.2,0.4,0.3,0.6,0.4c0.3,0.2,0.6,0.2,1,0.2
			c0.4,0,0.7-0.1,1-0.2c0.3-0.1,0.5-0.4,0.8-0.7c0.5-0.7,0.8-1.6,0.8-2.8v-2.5c0-0.8-0.1-1.5-0.2-1.8c0-0.1-0.2-0.2-0.4-0.2
			c-0.3-0.1-0.5-0.1-0.7-0.1c0-0.1,0-0.2,0-0.3C374.7-79.9,374.7-80,374.8-80z"/>
		<path class="st2" d="M383.8-70.1c-0.6,0-1.4,0-2.1,0.1c0,0,0-0.1,0-0.3s0-0.2,0-0.3c0.3,0,0.6,0,0.7-0.1c0.2-0.1,0.2-0.1,0.2-0.2
			c0.1-0.2,0.1-0.6,0.1-1.4v-2.2c0-0.1-0.4-0.8-1.1-2.1c-0.8-1.5-1.2-2.3-1.3-2.5c-0.1-0.2-0.3-0.3-0.5-0.4
			c-0.2-0.1-0.4-0.1-0.5-0.1c0-0.1-0.1-0.2-0.1-0.3c0-0.1,0-0.2,0.1-0.3c0.7,0.1,1.4,0.1,2.1,0.1c0.6,0,1.4,0,2.1-0.1
			c0,0,0,0.1,0,0.3c0,0.1,0,0.2,0,0.3c-0.6,0-0.9,0.1-0.9,0.4c0,0,0,0.1,0.1,0.2l1.8,3.3c0,0,0.7-1,1.9-3.2c0-0.1,0.1-0.2,0.1-0.3
			s0-0.1-0.1-0.2c-0.1,0-0.2-0.1-0.3-0.1c-0.2,0-0.4-0.1-0.6-0.1c0-0.1,0-0.2,0-0.3c0-0.1,0-0.2,0-0.3c0.9,0.1,1.5,0.1,1.8,0.1
			s0.5,0,0.8,0c0.2,0,0.5-0.1,0.8-0.1c0,0,0,0.1,0,0.3c0,0.1,0,0.2,0,0.3c-0.6,0-0.9,0.1-1.1,0.4c-0.4,0.6-0.9,1.4-1.5,2.4
			c-0.8,1.4-1.3,2.2-1.3,2.3l0,2.1c0,0.8,0,1.2,0.1,1.3c0,0.1,0.1,0.2,0.2,0.2c0.1,0,0.2,0.1,0.3,0.1c0.2,0,0.4,0,0.5,0
			c0,0.1,0.1,0.2,0.1,0.3c0,0.1,0,0.2-0.1,0.3C385.2-70.1,384.5-70.1,383.8-70.1z"/>
		<path class="st2" d="M396.5-79.9l2.3,0c0.8,0,1.5,0.2,2,0.5c0.7,0.4,1,1,1,1.8c0,0.7-0.4,1.3-1.2,1.8c-0.2,0.1-0.3,0.2-0.4,0.2
			s-0.1,0.1-0.1,0.1c0,0,0,0,0.1,0c0.1,0,0.3,0.1,0.6,0.2c0.3,0.1,0.5,0.3,0.8,0.5c0.6,0.5,0.9,1.1,0.9,1.8c0,0.5-0.1,1-0.4,1.4
			s-0.7,0.8-1.1,1c-0.5,0.3-1,0.4-1.5,0.5s-1,0.1-1.4,0.1s-0.7,0-1,0c-0.9,0-1.8,0-2.8,0c0,0,0-0.1,0-0.3s0-0.2,0-0.3
			c0.1,0,0.2,0,0.4,0c0.3,0,0.5-0.1,0.6-0.2c0.1-0.2,0.1-0.6,0.1-1.4v-5.5c0-0.7,0-1.2-0.1-1.4c-0.1-0.2-0.4-0.2-1-0.2
			c0-0.1,0-0.2,0-0.3c0-0.1,0-0.2,0-0.3c0.3,0,0.7,0,1.1,0H396.5z M399.6-77.4c0-1.3-0.4-2-1.2-2c-0.2,0-0.3,0-0.5,0
			c-0.1,0-0.2,0.1-0.3,0.2c-0.1,0.1-0.1,0.4-0.1,0.9v2.6h0.8c0.4,0,0.7-0.1,0.9-0.4C399.5-76.4,399.6-76.8,399.6-77.4z M397.5-71.7
			c0,0.5,0,0.8,0.1,0.8c0.1,0.1,0.2,0.2,0.4,0.2c0.2,0,0.4,0,0.6,0c0.2,0,0.4,0,0.6-0.1c0.2-0.1,0.4-0.2,0.5-0.4
			c0.4-0.3,0.5-0.9,0.5-1.6c0-1-0.3-1.8-1-2.1c-0.2-0.1-0.5-0.2-0.9-0.2h-0.8V-71.7z"/>
		<path class="st2" d="M409.3-80.1c0.7,0,1.3,0.1,1.9,0.4c0.6,0.3,1.2,0.6,1.6,1.1c0.5,0.5,0.9,1,1.1,1.6c0.3,0.6,0.4,1.3,0.4,2
			c0,0.7-0.1,1.3-0.4,2c-0.3,0.6-0.7,1.1-1.1,1.6c-0.5,0.5-1,0.8-1.6,1.1c-0.6,0.3-1.2,0.4-1.9,0.4c-1.3,0-2.5-0.5-3.5-1.5
			c-0.5-0.5-0.9-1-1.1-1.6c-0.3-0.6-0.4-1.3-0.4-2c0-0.7,0.1-1.4,0.4-2c0.3-0.6,0.7-1.2,1.1-1.6C406.8-79.6,407.9-80.1,409.3-80.1z
			 M410.3-79c-0.4-0.3-0.8-0.5-1.3-0.5c-0.5,0-0.9,0.1-1.2,0.4c-0.3,0.2-0.5,0.5-0.7,0.9c-0.3,0.7-0.5,1.6-0.5,2.6
			c0,1.3,0.2,2.4,0.7,3.3c0.5,1.1,1.3,1.6,2.3,1.6c0.8,0,1.5-0.4,1.9-1.3c0.3-0.7,0.5-1.6,0.5-2.6c0-1.3-0.2-2.4-0.7-3.3
			C411-78.3,410.7-78.7,410.3-79z"/>
		<path class="st2" d="M421.4-80.1c0.7,0,1.3,0.1,1.9,0.4c0.6,0.3,1.2,0.6,1.6,1.1c0.5,0.5,0.9,1,1.1,1.6c0.3,0.6,0.4,1.3,0.4,2
			c0,0.7-0.1,1.3-0.4,2c-0.3,0.6-0.7,1.1-1.1,1.6c-0.5,0.5-1,0.8-1.6,1.1c-0.6,0.3-1.2,0.4-1.9,0.4c-1.3,0-2.5-0.5-3.5-1.5
			c-0.5-0.5-0.9-1-1.1-1.6c-0.3-0.6-0.4-1.3-0.4-2c0-0.7,0.1-1.4,0.4-2c0.3-0.6,0.7-1.2,1.1-1.6C418.9-79.6,420-80.1,421.4-80.1z
			 M422.4-79c-0.4-0.3-0.8-0.5-1.3-0.5c-0.5,0-0.9,0.1-1.2,0.4c-0.3,0.2-0.5,0.5-0.7,0.9c-0.3,0.7-0.5,1.6-0.5,2.6
			c0,1.3,0.2,2.4,0.7,3.3c0.5,1.1,1.3,1.6,2.3,1.6c0.8,0,1.5-0.4,1.9-1.3c0.3-0.7,0.5-1.6,0.5-2.6c0-1.3-0.2-2.4-0.7-3.3
			C423.1-78.3,422.8-78.7,422.4-79z"/>
		<path class="st2" d="M428.4-80c0.8,0.1,1.5,0.1,2.2,0.1c0.6,0,1.4,0,2.1-0.1c0,0,0,0.1,0,0.3c0,0.1,0,0.2,0,0.3
			c-0.3,0-0.5,0-0.7,0.1s-0.3,0.1-0.3,0.2c-0.1,0.2-0.1,0.4-0.1,0.6s0,0.5,0,0.8v2.7c0.8-0.6,1.3-1,1.5-1.3l0.7-0.6
			c0.5-0.5,0.9-1,1.3-1.5c0.1-0.1,0.1-0.3,0.1-0.5c0-0.2-0.3-0.3-0.8-0.3c-0.1-0.2-0.1-0.4,0-0.5l1.9,0.1c0.5,0,1.1,0,1.9-0.1
			c0,0.1,0,0.2,0,0.3c0,0.1,0,0.2-0.1,0.2c-0.3,0-0.6,0.1-1,0.2s-0.6,0.3-0.7,0.4l-2.8,2.9c-0.1,0.1-0.1,0.2,0,0.2l2.7,3.6
			c0.5,0.6,1,1,1.6,1.2c0.4,0.1,0.7,0.2,0.9,0.2c0,0.1,0,0.2,0,0.3s0,0.2,0,0.3c-0.4,0-1,0-1.7,0s-1.3-0.1-1.7-0.4
			c-0.4-0.2-0.7-0.5-0.8-0.7l-2.6-3.5c0,0-0.1-0.1-0.2-0.1c-0.1,0-0.1,0-0.2,0.1v2.3c0,0.3,0,0.6,0,0.8c0,0.2,0,0.4,0.1,0.5
			c0,0.1,0.1,0.2,0.2,0.2c0.1,0,0.2,0.1,0.3,0.1c0.2,0,0.3,0,0.5,0c0,0.1,0,0.2,0,0.3s0,0.2,0,0.3c-1.4-0.1-2.8-0.1-4.3,0
			c0,0,0-0.1,0-0.3s0-0.2,0-0.3c0.3,0,0.6,0,0.7-0.1s0.2-0.1,0.3-0.2c0.1-0.2,0.1-0.6,0.1-1.4v-5.5c0-0.7,0-1.2-0.1-1.4
			c-0.1-0.2-0.4-0.2-1-0.2c0-0.1,0-0.2,0-0.3C428.4-79.9,428.4-80,428.4-80z"/>
	</g>
</g>
<g>
	<g transform="matrix(1, 0, 0, 1, 0, 0)">
		<path id="Rectangle_7-2_3_" class="st0" d="M20,0.5h167c11,0,20,9,20,20v5c0,11-9,20-20,20H20c-11,0-20-9-20-20v-5
			C0,9.5,9,0.5,20,0.5z"/>
	</g>
	<g class="st1">
		<path class="st2" d="M55.6,16.3l3.1-0.1c1.1,0,2,0.2,2.8,0.7c0.9,0.6,1.3,1.4,1.3,2.5c0,1-0.5,1.8-1.6,2.5
			c-0.2,0.1-0.4,0.2-0.5,0.3s-0.2,0.1-0.2,0.1s0.1,0,0.2,0.1c0.1,0,0.4,0.1,0.8,0.3c0.4,0.2,0.7,0.4,1.1,0.7
			c0.8,0.7,1.3,1.5,1.3,2.4c0,0.7-0.2,1.3-0.6,1.9c-0.4,0.6-0.9,1-1.5,1.4c-0.6,0.4-1.3,0.6-2,0.6c-0.7,0.1-1.3,0.1-1.8,0.1
			c-0.5,0-1,0-1.4,0c-1.2,0-2.5,0-3.7,0c0-0.1-0.1-0.2-0.1-0.4s0-0.3,0.1-0.4c0.1,0,0.3,0,0.5-0.1c0.5-0.1,0.7-0.2,0.8-0.3
			c0.1-0.2,0.2-0.9,0.2-1.9v-7.5c0-1-0.1-1.6-0.2-1.9c-0.1-0.2-0.6-0.3-1.3-0.3c0-0.1-0.1-0.2-0.1-0.4c0-0.2,0-0.3,0.1-0.4
			c0.5,0,1,0.1,1.5,0.1H55.6z M59.9,19.8c0-1.8-0.6-2.7-1.7-2.7c-0.2,0-0.5,0-0.7,0c-0.2,0-0.3,0.1-0.4,0.2
			c-0.1,0.2-0.1,0.6-0.1,1.2v3.6h1.1c0.5,0,0.9-0.2,1.3-0.6S59.9,20.6,59.9,19.8z M57,27.4c0,0.6,0.1,1,0.2,1.2
			c0.1,0.1,0.3,0.2,0.5,0.2c0.2,0,0.5,0,0.8,0s0.5,0,0.8-0.1s0.5-0.2,0.7-0.5c0.5-0.5,0.7-1.2,0.7-2.1c0-1.4-0.4-2.4-1.3-2.9
			c-0.3-0.2-0.7-0.3-1.2-0.3H57V27.4z"/>
		<path class="st2" d="M75.1,16.2c1.2,0.1,2,0.2,2.5,0.2c0.5,0,0.9,0,1.3-0.1c0.4,0,0.7-0.1,1.2-0.1c0,0.1,0.1,0.2,0.1,0.4
			c0,0.2,0,0.3-0.1,0.4c-0.5,0-0.9,0.1-1.2,0.2c-0.2,0.1-0.4,0.2-0.4,0.3c-0.2,0.5-0.3,1.3-0.3,2.5v3.9c0,1.9-0.6,3.5-1.7,4.5
			c-1,1-2.3,1.4-3.9,1.4c-0.9,0-1.7-0.1-2.4-0.4c-0.8-0.3-1.4-0.7-1.8-1.3c-0.4-0.5-0.7-1.2-0.9-1.9c-0.2-0.7-0.3-1.6-0.3-2.7v-4.3
			c0-0.4,0-0.8,0-1.1c0-0.3,0-0.5-0.1-0.7c-0.1-0.1-0.1-0.2-0.3-0.3s-0.2-0.1-0.4-0.1C66.2,17,66,17,65.8,17c0-0.1-0.1-0.2-0.1-0.4
			c0-0.2,0-0.3,0.1-0.4c1,0.1,2,0.2,2.9,0.2s1.9-0.1,2.9-0.2c0,0.1,0.1,0.2,0.1,0.4c0,0.2,0,0.3-0.1,0.4c-0.4,0-0.7,0-0.9,0.1
			s-0.4,0.2-0.4,0.2c-0.1,0.3-0.2,0.9-0.2,1.9V23c0,0.7,0,1.3,0.1,1.9c0.1,0.5,0.2,1.1,0.4,1.5c0.2,0.5,0.5,0.9,0.7,1.1
			c0.3,0.3,0.6,0.4,0.8,0.6c0.4,0.2,0.9,0.3,1.4,0.3c0.5,0,1-0.1,1.3-0.3c0.4-0.2,0.7-0.5,1-0.9c0.7-0.9,1-2.2,1-3.8v-3.4
			c0-1.1-0.1-2-0.3-2.5c-0.1-0.1-0.2-0.2-0.6-0.3c-0.4-0.1-0.7-0.2-1-0.2c0-0.1-0.1-0.2-0.1-0.4C75,16.4,75.1,16.3,75.1,16.2z"/>
		<path class="st2" d="M87.3,29.6c-0.9,0-1.8,0.1-2.9,0.2c0-0.1-0.1-0.2-0.1-0.4c0-0.2,0-0.3,0.1-0.4c0.4,0,0.7,0,1-0.1
			c0.2-0.1,0.3-0.2,0.3-0.2c0.1-0.2,0.2-0.9,0.2-1.9v-2.9c0-0.1-0.5-1-1.4-2.8c-1.1-2-1.7-3.1-1.8-3.3c-0.2-0.2-0.4-0.4-0.7-0.5
			c-0.3-0.1-0.5-0.1-0.7-0.1c-0.1-0.1-0.1-0.2-0.1-0.4c0-0.2,0-0.3,0.1-0.4c1,0.1,1.9,0.2,2.9,0.2c0.9,0,1.8-0.1,2.9-0.2
			c0,0.1,0.1,0.2,0.1,0.4c0,0.2,0,0.3-0.1,0.4c-0.8,0-1.2,0.2-1.2,0.5c0,0.1,0,0.2,0.1,0.3l2.5,4.5c0.1,0.1,0.9-1.4,2.5-4.4
			c0.1-0.2,0.1-0.3,0.1-0.4c0-0.1-0.1-0.2-0.2-0.3c-0.1-0.1-0.3-0.1-0.4-0.2C90.1,17,89.8,17,89.5,17c0-0.1-0.1-0.2-0.1-0.4
			c0-0.2,0-0.3,0.1-0.4c1.2,0.1,2,0.2,2.4,0.2c0.4,0,0.7,0,1.1-0.1c0.3,0,0.7-0.1,1.1-0.1c0,0.1,0.1,0.2,0.1,0.4
			c0,0.2,0,0.3-0.1,0.4c-0.8,0-1.3,0.2-1.5,0.5c-0.5,0.8-1.2,1.9-2.1,3.3c-1.1,1.9-1.7,3-1.7,3.1l0,2.8c0,1,0,1.6,0.1,1.8
			s0.1,0.3,0.3,0.3c0.1,0.1,0.2,0.1,0.4,0.1c0.2,0,0.5,0.1,0.7,0.1c0.1,0.1,0.1,0.2,0.1,0.4c0,0.2,0,0.3-0.1,0.4
			C89.2,29.6,88.2,29.6,87.3,29.6z"/>
		<path class="st2" d="M104.5,16.3l3.1-0.1c1.1,0,2,0.2,2.8,0.7c0.9,0.6,1.3,1.4,1.3,2.5c0,1-0.5,1.8-1.6,2.5
			c-0.2,0.1-0.4,0.2-0.5,0.3s-0.2,0.1-0.2,0.1s0.1,0,0.2,0.1s0.4,0.1,0.8,0.3c0.4,0.2,0.7,0.4,1.1,0.7c0.8,0.7,1.3,1.5,1.3,2.4
			c0,0.7-0.2,1.3-0.6,1.9c-0.4,0.6-0.9,1-1.5,1.4c-0.6,0.4-1.3,0.6-2,0.6c-0.7,0.1-1.3,0.1-1.8,0.1c-0.5,0-1,0-1.4,0
			c-1.2,0-2.5,0-3.7,0c0-0.1-0.1-0.2-0.1-0.4s0-0.3,0.1-0.4c0.1,0,0.3,0,0.5-0.1c0.4-0.1,0.7-0.2,0.8-0.3c0.1-0.2,0.2-0.9,0.2-1.9
			v-7.5c0-1-0.1-1.6-0.2-1.9c-0.1-0.2-0.6-0.3-1.3-0.3c0-0.1-0.1-0.2-0.1-0.4c0-0.2,0-0.3,0.1-0.4c0.5,0,1,0.1,1.5,0.1H104.5z
			 M108.7,19.8c0-1.8-0.6-2.7-1.7-2.7c-0.2,0-0.5,0-0.7,0s-0.3,0.1-0.4,0.2c-0.1,0.2-0.1,0.6-0.1,1.2v3.6h1.1c0.5,0,0.9-0.2,1.3-0.6
			S108.7,20.6,108.7,19.8z M105.9,27.4c0,0.6,0.1,1,0.2,1.2s0.3,0.2,0.5,0.2c0.2,0,0.5,0,0.8,0c0.3,0,0.5,0,0.8-0.1
			c0.3-0.1,0.5-0.2,0.7-0.5c0.5-0.5,0.7-1.2,0.7-2.1c0-1.4-0.5-2.4-1.3-2.9c-0.3-0.2-0.7-0.3-1.2-0.3h-1.1V27.4z"/>
		<path class="st2" d="M121.8,16.1c0.9,0,1.8,0.2,2.6,0.5c0.8,0.4,1.6,0.8,2.2,1.5c0.6,0.6,1.2,1.4,1.5,2.2c0.4,0.8,0.6,1.7,0.6,2.7
			s-0.2,1.8-0.6,2.7c-0.4,0.8-0.9,1.6-1.5,2.2c-0.6,0.6-1.4,1.1-2.2,1.5s-1.7,0.5-2.6,0.5c-1.8,0-3.4-0.7-4.8-2
			c-0.7-0.6-1.2-1.4-1.5-2.2c-0.4-0.8-0.6-1.7-0.6-2.7s0.2-1.8,0.6-2.7c0.4-0.8,0.9-1.6,1.5-2.2C118.4,16.8,120,16.1,121.8,16.1z
			 M123.2,17.6c-0.5-0.4-1.1-0.6-1.8-0.6s-1.2,0.2-1.6,0.5s-0.7,0.7-1,1.2c-0.5,0.9-0.7,2.1-0.7,3.6c0,1.8,0.3,3.3,0.9,4.5
			c0.7,1.5,1.8,2.2,3.2,2.2c1.1,0,2-0.6,2.5-1.7c0.5-0.9,0.7-2.1,0.7-3.5c0-1.8-0.3-3.3-0.9-4.5C124.2,18.6,123.8,18,123.2,17.6z"/>
		<path class="st2" d="M138.2,16.1c0.9,0,1.8,0.2,2.6,0.5c0.8,0.4,1.6,0.8,2.2,1.5c0.6,0.6,1.2,1.4,1.5,2.2c0.4,0.8,0.6,1.7,0.6,2.7
			s-0.2,1.8-0.6,2.7c-0.4,0.8-0.9,1.6-1.5,2.2c-0.6,0.6-1.4,1.1-2.2,1.5s-1.7,0.5-2.6,0.5c-1.8,0-3.4-0.7-4.8-2
			c-0.7-0.6-1.2-1.4-1.5-2.2c-0.4-0.8-0.6-1.7-0.6-2.7s0.2-1.8,0.6-2.7c0.4-0.8,0.9-1.6,1.5-2.2C134.8,16.8,136.4,16.1,138.2,16.1z
			 M139.6,17.6c-0.5-0.4-1.1-0.6-1.8-0.6s-1.2,0.2-1.6,0.5s-0.7,0.7-1,1.2c-0.5,0.9-0.7,2.1-0.7,3.6c0,1.8,0.3,3.3,0.9,4.5
			c0.7,1.5,1.8,2.2,3.2,2.2c1.1,0,2-0.6,2.5-1.7c0.5-0.9,0.7-2.1,0.7-3.5c0-1.8-0.3-3.3-0.9-4.5C140.6,18.6,140.2,18,139.6,17.6z"/>
		<path class="st2" d="M147.7,16.2c1,0.1,2,0.2,2.9,0.2c0.9,0,1.8-0.1,2.9-0.2c0,0.1,0.1,0.2,0.1,0.4c0,0.2,0,0.3-0.1,0.4
			c-0.4,0-0.7,0-0.9,0.1c-0.2,0.1-0.3,0.2-0.4,0.2c-0.1,0.2-0.2,0.5-0.2,0.8c0,0.3,0,0.7,0,1.1v3.6c1-0.8,1.7-1.4,2.1-1.8l0.9-0.9
			c0.6-0.6,1.2-1.3,1.8-2.1c0.1-0.2,0.2-0.4,0.2-0.7c0-0.3-0.4-0.4-1.1-0.4c-0.1-0.2-0.1-0.5,0-0.7l2.6,0.2c0.7,0,1.6-0.1,2.5-0.2
			c0,0.1,0.1,0.2,0,0.4c0,0.2,0,0.3-0.1,0.3c-0.4,0-0.9,0.1-1.3,0.3c-0.4,0.2-0.8,0.4-1,0.6l-3.8,3.9c-0.1,0.1-0.1,0.2-0.1,0.3
			l3.6,4.9c0.6,0.8,1.3,1.4,2.1,1.7c0.5,0.2,0.9,0.3,1.2,0.3c0,0.1,0.1,0.2,0,0.4c0,0.2,0,0.3,0,0.4c-0.6,0-1.3,0.1-2.3,0.1
			s-1.7-0.2-2.3-0.5s-0.9-0.7-1.1-1l-3.6-4.8c-0.1-0.1-0.1-0.1-0.2-0.1s-0.2,0-0.2,0.1v3.1c0,0.5,0,0.8,0,1.1c0,0.3,0,0.5,0.1,0.7
			c0.1,0.1,0.1,0.2,0.3,0.3c0.1,0.1,0.2,0.1,0.4,0.1c0.2,0,0.5,0.1,0.7,0.1c0,0.1,0.1,0.2,0.1,0.4c0,0.2,0,0.3-0.1,0.4
			c-1.9-0.2-3.8-0.2-5.8,0c0-0.1-0.1-0.2-0.1-0.4c0-0.2,0-0.3,0.1-0.4c0.4,0,0.7,0,1-0.1s0.3-0.2,0.4-0.2c0.1-0.2,0.2-0.9,0.2-1.9
			v-7.5c0-1-0.1-1.6-0.2-1.9c-0.1-0.2-0.6-0.3-1.3-0.3c0-0.1-0.1-0.2-0.1-0.4C147.7,16.4,147.7,16.3,147.7,16.2z"/>
	</g>
</g>
</svg>
