<?xml version="1.0" encoding="utf-8"?>
<!-- Generator: Adobe Illustrator 23.1.0, SVG Export Plug-In . SVG Version: 6.00 Build 0)  -->
<svg version="1.1" id="Layer_1" xmlns="http://www.w3.org/2000/svg" xmlns:xlink="http://www.w3.org/1999/xlink" x="0px" y="0px"
	 viewBox="0 0 179 39" style="enable-background:new 0 0 179 39;" xml:space="preserve">
<style type="text/css">
	.st0{fill:#FFFFFF;}
	.st1{enable-background:new    ;}
	.st2{fill:#F37A1F;}
</style>
<g>
	<g transform="matrix(1, 0, 0, 1, 0, 0)">
		<path id="Rectangle_7-2" class="st0" d="M19.5,0h140C170.3,0,179,8.7,179,19.5l0,0c0,10.8-8.7,19.5-19.5,19.5h-140
			C8.7,39,0,30.3,0,19.5l0,0C0,8.7,8.7,0,19.5,0z"/>
	</g>
	<g class="st1">
		<path class="st2" d="M44.6,13.7l2.7-0.1c0.9,0,1.7,0.2,2.4,0.6c0.8,0.5,1.2,1.2,1.2,2.2c0,0.9-0.5,1.6-1.4,2.1
			c-0.2,0.1-0.4,0.2-0.5,0.2c-0.1,0-0.1,0.1-0.1,0.1s0.1,0,0.2,0.1c0.1,0,0.3,0.1,0.7,0.2c0.3,0.1,0.6,0.3,0.9,0.6
			c0.7,0.6,1.1,1.3,1.1,2.1c0,0.6-0.2,1.1-0.5,1.6s-0.8,0.9-1.3,1.2c-0.5,0.3-1.1,0.5-1.8,0.5s-1.2,0.1-1.6,0.1s-0.8,0-1.2,0
			c-1.1,0-2.2,0-3.3,0c0-0.1-0.1-0.2-0.1-0.3s0-0.3,0.1-0.3c0.1,0,0.2,0,0.5-0.1c0.4-0.1,0.6-0.1,0.7-0.3c0.1-0.2,0.1-0.8,0.1-1.7
			v-6.5c0-0.9,0-1.4-0.1-1.7c-0.1-0.2-0.5-0.3-1.1-0.3c0-0.1-0.1-0.2-0.1-0.3s0-0.3,0.1-0.3c0.4,0,0.8,0.1,1.3,0.1H44.6z M48.3,16.7
			c0-1.6-0.5-2.3-1.5-2.3c-0.2,0-0.4,0-0.6,0S46,14.5,46,14.6c-0.1,0.1-0.1,0.5-0.1,1.1v3.1h0.9c0.4,0,0.8-0.2,1.1-0.5
			C48.2,17.9,48.3,17.4,48.3,16.7z M45.8,23.4c0,0.6,0,0.9,0.1,1c0.1,0.1,0.2,0.2,0.5,0.2s0.4,0,0.7,0c0.2,0,0.4,0,0.7-0.1
			s0.4-0.2,0.6-0.4c0.4-0.4,0.6-1,0.6-1.9c0-1.2-0.4-2.1-1.2-2.5c-0.3-0.2-0.6-0.2-1-0.2h-0.9V23.4z"/>
		<path class="st2" d="M61.6,13.6c1,0.1,1.8,0.1,2.2,0.1c0.4,0,0.8,0,1.1-0.1c0.3,0,0.6-0.1,1-0.1c0,0.1,0.1,0.2,0.1,0.3
			s0,0.3-0.1,0.3c-0.5,0-0.8,0-1,0.1c-0.2,0.1-0.3,0.2-0.4,0.3c-0.2,0.4-0.2,1.2-0.2,2.1v3.4c0,1.7-0.5,3-1.5,3.9
			c-0.9,0.8-2,1.3-3.4,1.3c-0.7,0-1.4-0.1-2.1-0.4c-0.7-0.3-1.2-0.6-1.6-1.1c-0.4-0.5-0.6-1-0.8-1.7c-0.2-0.6-0.2-1.4-0.2-2.3v-3.7
			c0-0.4,0-0.7,0-1c0-0.3,0-0.5-0.1-0.6c-0.1-0.1-0.1-0.2-0.2-0.2c-0.1,0-0.2-0.1-0.3-0.1c-0.2,0-0.4-0.1-0.6-0.1
			c0-0.1-0.1-0.2-0.1-0.3s0-0.3,0.1-0.3c0.9,0.1,1.7,0.1,2.5,0.1c0.8,0,1.6,0,2.5-0.1c0,0.1,0.1,0.2,0.1,0.3s0,0.3-0.1,0.3
			c-0.3,0-0.6,0-0.8,0.1s-0.3,0.1-0.3,0.2c-0.1,0.2-0.1,0.8-0.1,1.7v3.2c0,0.6,0,1.1,0.1,1.6c0,0.5,0.2,0.9,0.3,1.3
			c0.2,0.4,0.4,0.8,0.6,1c0.2,0.2,0.5,0.4,0.7,0.5c0.4,0.2,0.8,0.3,1.2,0.3c0.4,0,0.8-0.1,1.2-0.2c0.3-0.2,0.6-0.4,0.9-0.8
			c0.6-0.8,0.9-1.9,0.9-3.3v-3c0-1-0.1-1.7-0.2-2.2c-0.1-0.1-0.2-0.2-0.5-0.3c-0.3-0.1-0.6-0.1-0.9-0.1c0-0.1-0.1-0.2-0.1-0.3
			S61.5,13.7,61.6,13.6z"/>
		<path class="st2" d="M72.2,25.2c-0.8,0-1.6,0-2.5,0.1c0-0.1-0.1-0.2-0.1-0.3s0-0.3,0.1-0.3c0.4,0,0.6,0,0.8-0.1s0.3-0.1,0.3-0.2
			c0.1-0.2,0.1-0.8,0.1-1.7v-2.5c0-0.1-0.4-0.9-1.3-2.4c-0.9-1.7-1.5-2.7-1.6-2.9c-0.1-0.2-0.4-0.4-0.6-0.4
			c-0.3-0.1-0.5-0.1-0.6-0.1c-0.1-0.1-0.1-0.2-0.1-0.3c0-0.2,0-0.3,0.1-0.3c0.8,0.1,1.7,0.1,2.5,0.1c0.8,0,1.6,0,2.5-0.1
			c0,0.1,0.1,0.2,0.1,0.3s0,0.3-0.1,0.3c-0.7,0-1.1,0.2-1.1,0.5c0,0.1,0,0.2,0.1,0.3l2.1,3.9c0.1,0.1,0.8-1.2,2.2-3.8
			c0.1-0.2,0.1-0.3,0.1-0.4s-0.1-0.2-0.2-0.2c-0.1-0.1-0.2-0.1-0.4-0.1c-0.2-0.1-0.5-0.1-0.7-0.1c0-0.1-0.1-0.2-0.1-0.3
			s0-0.3,0.1-0.3c1.1,0.1,1.8,0.1,2.1,0.1c0.3,0,0.6,0,0.9-0.1c0.3,0,0.6-0.1,1-0.1c0,0.1,0.1,0.2,0.1,0.3s0,0.3-0.1,0.3
			c-0.7,0-1.1,0.1-1.3,0.4c-0.5,0.7-1.1,1.7-1.8,2.9c-1,1.7-1.5,2.6-1.5,2.7l0,2.4c0,0.9,0,1.4,0.1,1.5c0.1,0.1,0.1,0.2,0.2,0.3
			s0.2,0.1,0.3,0.1c0.2,0,0.4,0.1,0.6,0.1c0.1,0.1,0.1,0.2,0.1,0.3s0,0.3-0.1,0.3C73.8,25.3,73,25.2,72.2,25.2z"/>
		<path class="st2" d="M87.1,13.7l2.7-0.1c0.9,0,1.7,0.2,2.4,0.6c0.8,0.5,1.2,1.2,1.2,2.2c0,0.9-0.5,1.6-1.4,2.1
			c-0.2,0.1-0.4,0.2-0.5,0.2s-0.1,0.1-0.1,0.1s0.1,0,0.2,0.1c0.1,0,0.3,0.1,0.7,0.2c0.3,0.1,0.6,0.3,0.9,0.6
			c0.7,0.6,1.1,1.3,1.1,2.1c0,0.6-0.2,1.1-0.5,1.6s-0.8,0.9-1.3,1.2c-0.5,0.3-1.1,0.5-1.8,0.5s-1.2,0.1-1.6,0.1c-0.4,0-0.8,0-1.2,0
			c-1.1,0-2.2,0-3.3,0c0-0.1-0.1-0.2-0.1-0.3s0-0.3,0.1-0.3c0.1,0,0.2,0,0.5-0.1c0.4-0.1,0.6-0.1,0.7-0.3c0.1-0.2,0.1-0.8,0.1-1.7
			v-6.5c0-0.9,0-1.4-0.1-1.7c-0.1-0.2-0.5-0.3-1.1-0.3c0-0.1-0.1-0.2-0.1-0.3s0-0.3,0.1-0.3c0.4,0,0.8,0.1,1.3,0.1H87.1z M90.8,16.7
			c0-1.6-0.5-2.3-1.5-2.3c-0.2,0-0.4,0-0.6,0c-0.2,0-0.3,0.1-0.3,0.2c-0.1,0.1-0.1,0.5-0.1,1.1v3.1h0.9c0.4,0,0.8-0.2,1.1-0.5
			C90.6,17.9,90.8,17.4,90.8,16.7z M88.3,23.4c0,0.6,0,0.9,0.1,1c0.1,0.1,0.2,0.2,0.5,0.2s0.4,0,0.7,0c0.2,0,0.4,0,0.7-0.1
			c0.2-0.1,0.4-0.2,0.6-0.4c0.4-0.4,0.6-1,0.6-1.9c0-1.2-0.4-2.1-1.2-2.5c-0.3-0.2-0.6-0.2-1-0.2h-0.9V23.4z"/>
		<path class="st2" d="M102.2,13.5c0.8,0,1.5,0.2,2.3,0.5c0.7,0.3,1.4,0.7,1.9,1.3c0.6,0.5,1,1.2,1.3,1.9c0.3,0.7,0.5,1.5,0.5,2.3
			s-0.2,1.6-0.5,2.3c-0.3,0.7-0.8,1.4-1.3,1.9c-0.6,0.5-1.2,1-1.9,1.3c-0.7,0.3-1.5,0.5-2.3,0.5c-1.6,0-2.9-0.6-4.1-1.7
			c-0.6-0.6-1-1.2-1.3-1.9c-0.3-0.7-0.5-1.5-0.5-2.3s0.2-1.6,0.5-2.3c0.3-0.7,0.8-1.4,1.3-1.9C99.2,14.1,100.6,13.5,102.2,13.5z
			 M103.4,14.8c-0.5-0.4-1-0.5-1.6-0.5s-1.1,0.1-1.4,0.4c-0.4,0.3-0.6,0.6-0.9,1.1c-0.4,0.8-0.6,1.8-0.6,3.1c0,1.5,0.3,2.8,0.8,3.9
			c0.6,1.3,1.6,1.9,2.7,1.9c1,0,1.7-0.5,2.2-1.5c0.4-0.8,0.6-1.8,0.6-3.1c0-1.6-0.3-2.9-0.8-3.9C104.2,15.6,103.9,15.2,103.4,14.8z"
			/>
		<path class="st2" d="M116.4,13.5c0.8,0,1.5,0.2,2.3,0.5c0.7,0.3,1.4,0.7,1.9,1.3c0.6,0.5,1,1.2,1.3,1.9c0.3,0.7,0.5,1.5,0.5,2.3
			s-0.2,1.6-0.5,2.3c-0.3,0.7-0.8,1.4-1.3,1.9c-0.6,0.5-1.2,1-1.9,1.3c-0.7,0.3-1.5,0.5-2.3,0.5c-1.6,0-2.9-0.6-4.1-1.7
			c-0.6-0.6-1-1.2-1.3-1.9s-0.5-1.5-0.5-2.3s0.2-1.6,0.5-2.3c0.3-0.7,0.8-1.4,1.3-1.9C113.5,14.1,114.8,13.5,116.4,13.5z
			 M117.7,14.8c-0.5-0.4-1-0.5-1.6-0.5c-0.6,0-1.1,0.1-1.4,0.4c-0.4,0.3-0.6,0.6-0.9,1.1c-0.4,0.8-0.6,1.8-0.6,3.1
			c0,1.5,0.3,2.8,0.8,3.9c0.6,1.3,1.6,1.9,2.7,1.9c1,0,1.7-0.5,2.2-1.5c0.4-0.8,0.6-1.8,0.6-3.1c0-1.6-0.3-2.9-0.8-3.9
			C118.5,15.6,118.1,15.2,117.7,14.8z"/>
		<path class="st2" d="M124.7,13.6c0.9,0.1,1.7,0.1,2.5,0.1c0.8,0,1.6,0,2.5-0.1c0,0.1,0.1,0.2,0.1,0.3s0,0.3-0.1,0.3
			c-0.3,0-0.6,0-0.8,0.1c-0.2,0.1-0.3,0.1-0.3,0.2c-0.1,0.2-0.1,0.4-0.1,0.7s0,0.6,0,1v3.1c0.9-0.7,1.5-1.2,1.8-1.5l0.8-0.7
			c0.5-0.6,1.1-1.2,1.6-1.8c0.1-0.1,0.2-0.3,0.2-0.6c0-0.3-0.3-0.4-1-0.4c-0.1-0.2-0.1-0.4,0-0.6l2.3,0.1c0.6,0,1.4,0,2.2-0.1
			c0,0.1,0,0.2,0,0.3c0,0.1,0,0.2-0.1,0.3c-0.4,0-0.8,0.1-1.1,0.3c-0.4,0.2-0.7,0.3-0.8,0.5l-3.3,3.4c-0.1,0.1-0.1,0.2-0.1,0.3
			L134,23c0.6,0.7,1.2,1.2,1.9,1.5c0.4,0.2,0.8,0.2,1,0.2c0,0.1,0,0.2,0,0.4c0,0.2,0,0.3,0,0.3c-0.5,0-1.2,0.1-2,0.1s-1.5-0.1-2-0.4
			c-0.5-0.3-0.8-0.6-1-0.9l-3.1-4.1c-0.1-0.1-0.1-0.1-0.2-0.1c-0.1,0-0.1,0-0.2,0.1v2.7c0,0.4,0,0.7,0,1s0,0.5,0.1,0.6
			c0.1,0.1,0.1,0.2,0.2,0.2s0.2,0.1,0.3,0.1c0.2,0,0.4,0.1,0.6,0.1c0,0.1,0.1,0.2,0.1,0.3s0,0.3-0.1,0.3c-1.7-0.2-3.3-0.2-5,0
			c0-0.1-0.1-0.2-0.1-0.3s0-0.3,0.1-0.3c0.4,0,0.6,0,0.8-0.1c0.2-0.1,0.3-0.1,0.3-0.2c0.1-0.2,0.1-0.8,0.1-1.7v-6.5
			c0-0.9,0-1.4-0.1-1.7c-0.1-0.2-0.5-0.3-1.1-0.3c0-0.1-0.1-0.2-0.1-0.3S124.7,13.7,124.7,13.6z"/>
	</g>
</g>
</svg>
