<?xml version="1.0" encoding="utf-8"?>
<!-- Generator: Adobe Illustrator 23.1.0, SVG Export Plug-In . SVG Version: 6.00 Build 0)  -->
<svg version="1.1" id="Layer_1" xmlns="http://www.w3.org/2000/svg" xmlns:xlink="http://www.w3.org/1999/xlink" x="0px" y="0px"
	 viewBox="0 0 157 34" style="enable-background:new 0 0 157 34;" xml:space="preserve">
<style type="text/css">
	.st0{fill:#FFFFFF;}
	.st1{enable-background:new    ;}
	.st2{fill:#F37A1F;}
</style>
<g>
	<g transform="matrix(1, 0, 0, 1, 0, 0)">
		<path id="Rectangle_7-2" class="st0" d="M338.5-181.5h140c10.8,0,19.5,8.7,19.5,19.5l0,0c0,10.8-8.7,19.5-19.5,19.5h-140
			c-10.8,0-19.5-8.7-19.5-19.5l0,0C319-172.8,327.7-181.5,338.5-181.5z"/>
	</g>
	<g class="st1">
		<path class="st2" d="M363.6-167.8l2.7-0.1c0.9,0,1.7,0.2,2.4,0.6c0.8,0.5,1.2,1.2,1.2,2.2c0,0.9-0.5,1.6-1.4,2.1
			c-0.2,0.1-0.4,0.2-0.5,0.2c-0.1,0-0.1,0.1-0.1,0.1s0.1,0,0.2,0.1c0.1,0,0.3,0.1,0.7,0.2c0.3,0.1,0.6,0.3,0.9,0.6
			c0.7,0.6,1.1,1.3,1.1,2.1c0,0.6-0.2,1.1-0.5,1.6s-0.8,0.9-1.3,1.2c-0.5,0.3-1.1,0.5-1.8,0.5s-1.2,0.1-1.6,0.1s-0.8,0-1.2,0
			c-1.1,0-2.2,0-3.3,0c0-0.1-0.1-0.2-0.1-0.3s0-0.3,0.1-0.3c0.1,0,0.2,0,0.5-0.1c0.4-0.1,0.6-0.1,0.7-0.3c0.1-0.2,0.1-0.8,0.1-1.7
			v-6.5c0-0.9,0-1.4-0.1-1.7c-0.1-0.2-0.5-0.3-1.1-0.3c0-0.1-0.1-0.2-0.1-0.3s0-0.3,0.1-0.3c0.4,0,0.8,0.1,1.3,0.1H363.6z
			 M367.3-164.8c0-1.6-0.5-2.3-1.5-2.3c-0.2,0-0.4,0-0.6,0s-0.3,0.1-0.3,0.2c-0.1,0.1-0.1,0.5-0.1,1.1v3.1h0.9
			c0.4,0,0.8-0.2,1.1-0.5C367.2-163.6,367.3-164.1,367.3-164.8z M364.8-158.1c0,0.6,0,0.9,0.1,1c0.1,0.1,0.2,0.2,0.5,0.2
			s0.4,0,0.7,0c0.2,0,0.4,0,0.7-0.1s0.4-0.2,0.6-0.4c0.4-0.4,0.6-1,0.6-1.9c0-1.2-0.4-2.1-1.2-2.5c-0.3-0.2-0.6-0.2-1-0.2h-0.9
			V-158.1z"/>
		<path class="st2" d="M380.6-167.9c1,0.1,1.8,0.1,2.2,0.1c0.4,0,0.8,0,1.1-0.1c0.3,0,0.6-0.1,1-0.1c0,0.1,0.1,0.2,0.1,0.3
			s0,0.3-0.1,0.3c-0.5,0-0.8,0-1,0.1c-0.2,0.1-0.3,0.2-0.4,0.3c-0.2,0.4-0.2,1.2-0.2,2.1v3.4c0,1.7-0.5,3-1.5,3.9
			c-0.9,0.8-2,1.3-3.4,1.3c-0.7,0-1.4-0.1-2.1-0.4c-0.7-0.3-1.2-0.6-1.6-1.1c-0.4-0.5-0.6-1-0.8-1.7c-0.2-0.6-0.2-1.4-0.2-2.3v-3.7
			c0-0.4,0-0.7,0-1c0-0.3,0-0.5-0.1-0.6c-0.1-0.1-0.1-0.2-0.2-0.2c-0.1,0-0.2-0.1-0.3-0.1c-0.2,0-0.4-0.1-0.6-0.1
			c0-0.1-0.1-0.2-0.1-0.3s0-0.3,0.1-0.3c0.9,0.1,1.7,0.1,2.5,0.1c0.8,0,1.6,0,2.5-0.1c0,0.1,0.1,0.2,0.1,0.3s0,0.3-0.1,0.3
			c-0.3,0-0.6,0-0.8,0.1s-0.3,0.1-0.3,0.2c-0.1,0.2-0.1,0.8-0.1,1.7v3.2c0,0.6,0,1.1,0.1,1.6c0,0.5,0.2,0.9,0.3,1.3
			c0.2,0.4,0.4,0.8,0.6,1c0.2,0.2,0.5,0.4,0.7,0.5c0.4,0.2,0.8,0.3,1.2,0.3c0.4,0,0.8-0.1,1.2-0.2c0.3-0.2,0.6-0.4,0.9-0.8
			c0.6-0.8,0.9-1.9,0.9-3.3v-3c0-1-0.1-1.7-0.2-2.2c-0.1-0.1-0.2-0.2-0.5-0.3c-0.3-0.1-0.6-0.1-0.9-0.1c0-0.1-0.1-0.2-0.1-0.3
			S380.5-167.8,380.6-167.9z"/>
		<path class="st2" d="M391.2-156.3c-0.8,0-1.6,0-2.5,0.1c0-0.1-0.1-0.2-0.1-0.3s0-0.3,0.1-0.3c0.4,0,0.6,0,0.8-0.1s0.3-0.1,0.3-0.2
			c0.1-0.2,0.1-0.8,0.1-1.7v-2.5c0-0.1-0.4-0.9-1.3-2.4c-0.9-1.7-1.5-2.7-1.6-2.9c-0.1-0.2-0.4-0.4-0.6-0.4
			c-0.3-0.1-0.5-0.1-0.6-0.1c-0.1-0.1-0.1-0.2-0.1-0.3c0-0.2,0-0.3,0.1-0.3c0.8,0.1,1.7,0.1,2.5,0.1c0.8,0,1.6,0,2.5-0.1
			c0,0.1,0.1,0.2,0.1,0.3s0,0.3-0.1,0.3c-0.7,0-1.1,0.2-1.1,0.5c0,0.1,0,0.2,0.1,0.3l2.1,3.9c0.1,0.1,0.8-1.2,2.2-3.8
			c0.1-0.2,0.1-0.3,0.1-0.4s-0.1-0.2-0.2-0.2c-0.1-0.1-0.2-0.1-0.4-0.1c-0.2-0.1-0.5-0.1-0.7-0.1c0-0.1-0.1-0.2-0.1-0.3
			s0-0.3,0.1-0.3c1.1,0.1,1.8,0.1,2.1,0.1c0.3,0,0.6,0,0.9-0.1c0.3,0,0.6-0.1,1-0.1c0,0.1,0.1,0.2,0.1,0.3s0,0.3-0.1,0.3
			c-0.7,0-1.1,0.1-1.3,0.4c-0.5,0.7-1.1,1.7-1.8,2.9c-1,1.7-1.5,2.6-1.5,2.7l0,2.4c0,0.9,0,1.4,0.1,1.5c0.1,0.1,0.1,0.2,0.2,0.3
			s0.2,0.1,0.3,0.1c0.2,0,0.4,0.1,0.6,0.1c0.1,0.1,0.1,0.2,0.1,0.3s0,0.3-0.1,0.3C392.8-156.2,392-156.3,391.2-156.3z"/>
		<path class="st2" d="M406.1-167.8l2.7-0.1c0.9,0,1.7,0.2,2.4,0.6c0.8,0.5,1.2,1.2,1.2,2.2c0,0.9-0.5,1.6-1.4,2.1
			c-0.2,0.1-0.4,0.2-0.5,0.2s-0.1,0.1-0.1,0.1s0.1,0,0.2,0.1c0.1,0,0.3,0.1,0.7,0.2c0.3,0.1,0.6,0.3,0.9,0.6
			c0.7,0.6,1.1,1.3,1.1,2.1c0,0.6-0.2,1.1-0.5,1.6s-0.8,0.9-1.3,1.2c-0.5,0.3-1.1,0.5-1.8,0.5s-1.2,0.1-1.6,0.1c-0.4,0-0.8,0-1.2,0
			c-1.1,0-2.2,0-3.3,0c0-0.1-0.1-0.2-0.1-0.3s0-0.3,0.1-0.3c0.1,0,0.2,0,0.5-0.1c0.4-0.1,0.6-0.1,0.7-0.3c0.1-0.2,0.1-0.8,0.1-1.7
			v-6.5c0-0.9,0-1.4-0.1-1.7c-0.1-0.2-0.5-0.3-1.1-0.3c0-0.1-0.1-0.2-0.1-0.3s0-0.3,0.1-0.3c0.4,0,0.8,0.1,1.3,0.1H406.1z
			 M409.8-164.8c0-1.6-0.5-2.3-1.5-2.3c-0.2,0-0.4,0-0.6,0c-0.2,0-0.3,0.1-0.3,0.2c-0.1,0.1-0.1,0.5-0.1,1.1v3.1h0.9
			c0.4,0,0.8-0.2,1.1-0.5C409.6-163.6,409.8-164.1,409.8-164.8z M407.3-158.1c0,0.6,0,0.9,0.1,1c0.1,0.1,0.2,0.2,0.5,0.2
			s0.4,0,0.7,0c0.2,0,0.4,0,0.7-0.1c0.2-0.1,0.4-0.2,0.6-0.4c0.4-0.4,0.6-1,0.6-1.9c0-1.2-0.4-2.1-1.2-2.5c-0.3-0.2-0.6-0.2-1-0.2
			h-0.9V-158.1z"/>
		<path class="st2" d="M421.2-168c0.8,0,1.5,0.2,2.3,0.5c0.7,0.3,1.4,0.7,1.9,1.3c0.6,0.5,1,1.2,1.3,1.9c0.3,0.7,0.5,1.5,0.5,2.3
			s-0.2,1.6-0.5,2.3c-0.3,0.7-0.8,1.4-1.3,1.9c-0.6,0.5-1.2,1-1.9,1.3c-0.7,0.3-1.5,0.5-2.3,0.5c-1.6,0-2.9-0.6-4.1-1.7
			c-0.6-0.6-1-1.2-1.3-1.9c-0.3-0.7-0.5-1.5-0.5-2.3s0.2-1.6,0.5-2.3c0.3-0.7,0.8-1.4,1.3-1.9C418.2-167.4,419.6-168,421.2-168z
			 M422.4-166.7c-0.5-0.4-1-0.5-1.6-0.5s-1.1,0.1-1.4,0.4c-0.4,0.3-0.6,0.6-0.9,1.1c-0.4,0.8-0.6,1.8-0.6,3.1c0,1.5,0.3,2.8,0.8,3.9
			c0.6,1.3,1.6,1.9,2.7,1.9c1,0,1.7-0.5,2.2-1.5c0.4-0.8,0.6-1.8,0.6-3.1c0-1.6-0.3-2.9-0.8-3.9
			C423.2-165.9,422.9-166.3,422.4-166.7z"/>
		<path class="st2" d="M435.4-168c0.8,0,1.5,0.2,2.3,0.5c0.7,0.3,1.4,0.7,1.9,1.3c0.6,0.5,1,1.2,1.3,1.9c0.3,0.7,0.5,1.5,0.5,2.3
			s-0.2,1.6-0.5,2.3c-0.3,0.7-0.8,1.4-1.3,1.9c-0.6,0.5-1.2,1-1.9,1.3c-0.7,0.3-1.5,0.5-2.3,0.5c-1.6,0-2.9-0.6-4.1-1.7
			c-0.6-0.6-1-1.2-1.3-1.9s-0.5-1.5-0.5-2.3s0.2-1.6,0.5-2.3c0.3-0.7,0.8-1.4,1.3-1.9C432.5-167.4,433.8-168,435.4-168z
			 M436.7-166.7c-0.5-0.4-1-0.5-1.6-0.5c-0.6,0-1.1,0.1-1.4,0.4c-0.4,0.3-0.6,0.6-0.9,1.1c-0.4,0.8-0.6,1.8-0.6,3.1
			c0,1.5,0.3,2.8,0.8,3.9c0.6,1.3,1.6,1.9,2.7,1.9c1,0,1.7-0.5,2.2-1.5c0.4-0.8,0.6-1.8,0.6-3.1c0-1.6-0.3-2.9-0.8-3.9
			C437.5-165.9,437.1-166.3,436.7-166.7z"/>
		<path class="st2" d="M443.7-167.9c0.9,0.1,1.7,0.1,2.5,0.1c0.8,0,1.6,0,2.5-0.1c0,0.1,0.1,0.2,0.1,0.3s0,0.3-0.1,0.3
			c-0.3,0-0.6,0-0.8,0.1c-0.2,0.1-0.3,0.1-0.3,0.2c-0.1,0.2-0.1,0.4-0.1,0.7s0,0.6,0,1v3.1c0.9-0.7,1.5-1.2,1.8-1.5l0.8-0.7
			c0.5-0.6,1.1-1.2,1.6-1.8c0.1-0.1,0.2-0.3,0.2-0.6c0-0.3-0.3-0.4-1-0.4c-0.1-0.2-0.1-0.4,0-0.6l2.3,0.1c0.6,0,1.4,0,2.2-0.1
			c0,0.1,0,0.2,0,0.3c0,0.1,0,0.2-0.1,0.3c-0.4,0-0.8,0.1-1.1,0.3c-0.4,0.2-0.7,0.3-0.8,0.5l-3.3,3.4c-0.1,0.1-0.1,0.2-0.1,0.3
			l3.2,4.3c0.6,0.7,1.2,1.2,1.9,1.5c0.4,0.2,0.8,0.2,1,0.2c0,0.1,0,0.2,0,0.4c0,0.2,0,0.3,0,0.3c-0.5,0-1.2,0.1-2,0.1
			s-1.5-0.1-2-0.4c-0.5-0.3-0.8-0.6-1-0.9l-3.1-4.1c-0.1-0.1-0.1-0.1-0.2-0.1c-0.1,0-0.1,0-0.2,0.1v2.7c0,0.4,0,0.7,0,1
			s0,0.5,0.1,0.6c0.1,0.1,0.1,0.2,0.2,0.2s0.2,0.1,0.3,0.1c0.2,0,0.4,0.1,0.6,0.1c0,0.1,0.1,0.2,0.1,0.3s0,0.3-0.1,0.3
			c-1.7-0.2-3.3-0.2-5,0c0-0.1-0.1-0.2-0.1-0.3s0-0.3,0.1-0.3c0.4,0,0.6,0,0.8-0.1c0.2-0.1,0.3-0.1,0.3-0.2c0.1-0.2,0.1-0.8,0.1-1.7
			v-6.5c0-0.9,0-1.4-0.1-1.7c-0.1-0.2-0.5-0.3-1.1-0.3c0-0.1-0.1-0.2-0.1-0.3S443.7-167.8,443.7-167.9z"/>
	</g>
</g>
<path id="Path_166-2" class="st0" d="M581.5,10.1c27,0,48.9,21.9,48.9,48.9s-21.9,48.9-48.9,48.9S532.6,86,532.6,59c0,0,0,0,0,0
	C532.6,32,554.5,10.1,581.5,10.1z"/>
<g class="st1">
	<path class="st2" d="M563,52l3.2-0.1c1.1,0,2.1,0.3,2.9,0.8c0.9,0.6,1.4,1.5,1.4,2.6c0,1-0.6,1.9-1.7,2.6c-0.3,0.1-0.4,0.2-0.6,0.3
		c-0.1,0-0.2,0.1-0.2,0.1c0,0,0.1,0,0.2,0.1s0.4,0.1,0.8,0.3c0.4,0.2,0.8,0.4,1.1,0.7c0.9,0.7,1.3,1.6,1.3,2.5c0,0.7-0.2,1.4-0.6,2
		c-0.4,0.6-0.9,1.1-1.6,1.5c-0.6,0.4-1.3,0.6-2.1,0.7c-0.8,0.1-1.4,0.1-1.9,0.1c-0.5,0-1,0-1.4,0c-1.3,0-2.6,0-3.9,0
		c0-0.1-0.1-0.2-0.1-0.4c0-0.2,0-0.3,0.1-0.4c0.1,0,0.3,0,0.5-0.1c0.5-0.1,0.7-0.2,0.8-0.3c0.1-0.3,0.2-0.9,0.2-2V55
		c0-1-0.1-1.7-0.2-2c-0.1-0.2-0.6-0.3-1.4-0.3c0-0.1-0.1-0.2-0.1-0.4c0-0.2,0-0.3,0.1-0.4c0.5,0,1,0.1,1.5,0.1H563z M567.4,55.6
		c0-1.9-0.6-2.8-1.8-2.8c-0.3,0-0.5,0-0.7,0c-0.2,0-0.3,0.1-0.4,0.2c-0.1,0.2-0.1,0.6-0.1,1.3v3.7h1.1c0.5,0,1-0.2,1.3-0.6
		C567.2,57,567.4,56.4,567.4,55.6z M564.4,63.6c0,0.7,0.1,1.1,0.2,1.2c0.1,0.1,0.3,0.2,0.5,0.2c0.3,0,0.5,0,0.8,0s0.5,0,0.8-0.1
		c0.3-0.1,0.5-0.3,0.7-0.5c0.5-0.5,0.8-1.2,0.8-2.2c0-1.5-0.5-2.5-1.4-3c-0.3-0.2-0.8-0.3-1.2-0.3h-1.1V63.6z"/>
	<path class="st2" d="M583.3,51.9c1.2,0.1,2.1,0.2,2.6,0.2c0.5,0,0.9,0,1.3-0.1s0.8-0.1,1.2-0.1c0,0.1,0.1,0.2,0.1,0.4
		c0,0.2,0,0.3-0.1,0.4c-0.6,0-1,0.1-1.2,0.2c-0.2,0.1-0.4,0.2-0.4,0.3c-0.2,0.5-0.3,1.4-0.3,2.6v4.1c0,2-0.6,3.6-1.8,4.7
		c-1,1-2.4,1.5-4,1.5c-0.9,0-1.7-0.2-2.5-0.5c-0.8-0.3-1.4-0.7-1.9-1.3s-0.8-1.2-1-2c-0.2-0.8-0.3-1.7-0.3-2.8V55c0-0.4,0-0.8,0-1.2
		s0-0.6-0.1-0.7c-0.1-0.1-0.2-0.2-0.3-0.3c-0.1,0-0.3-0.1-0.4-0.1c-0.3,0-0.5-0.1-0.7-0.1c0-0.1-0.1-0.2-0.1-0.4
		c0-0.2,0-0.3,0.1-0.4c1.1,0.1,2.1,0.2,3,0.2c0.9,0,1.9-0.1,3-0.2c0,0.1,0.1,0.2,0.1,0.4c0,0.2,0,0.3-0.1,0.4c-0.4,0-0.7,0-1,0.1
		s-0.4,0.2-0.4,0.2c-0.1,0.3-0.2,1-0.2,2v3.9c0,0.7,0,1.4,0.1,1.9c0.1,0.6,0.2,1.1,0.4,1.6c0.2,0.5,0.5,0.9,0.8,1.2s0.6,0.5,0.9,0.6
		c0.4,0.2,0.9,0.3,1.4,0.3s1-0.1,1.4-0.3c0.4-0.2,0.8-0.5,1.1-0.9c0.7-0.9,1.1-2.3,1.1-4v-3.6c0-1.2-0.1-2.1-0.3-2.6
		c-0.1-0.1-0.3-0.3-0.6-0.3c-0.4-0.1-0.7-0.2-1-0.2c0-0.1-0.1-0.2-0.1-0.4C583.2,52.1,583.2,52,583.3,51.9z"/>
	<path class="st2" d="M596,65.8c-0.9,0-1.9,0.1-3,0.2c0-0.1-0.1-0.2-0.1-0.4s0-0.3,0.1-0.4c0.4,0,0.8,0,1-0.1
		c0.2-0.1,0.3-0.2,0.4-0.2c0.1-0.3,0.2-0.9,0.2-2v-3c0-0.1-0.5-1.1-1.5-2.9c-1.1-2.1-1.8-3.2-1.9-3.5c-0.2-0.3-0.4-0.4-0.8-0.5
		c-0.3-0.1-0.6-0.1-0.7-0.1c-0.1-0.1-0.1-0.2-0.1-0.4c0-0.2,0-0.3,0.1-0.4c1,0.1,2,0.2,3,0.2c0.9,0,1.9-0.1,3-0.2
		c0,0.1,0.1,0.2,0.1,0.4c0,0.2,0,0.3-0.1,0.4c-0.9,0-1.3,0.2-1.3,0.5c0,0.1,0,0.2,0.1,0.4l2.6,4.7c0.1,0.1,0.9-1.5,2.7-4.6
		c0.1-0.2,0.1-0.3,0.1-0.5c0-0.1-0.1-0.2-0.2-0.3c-0.1-0.1-0.3-0.1-0.5-0.2c-0.3-0.1-0.6-0.1-0.9-0.1c0-0.1-0.1-0.2-0.1-0.4
		c0-0.2,0-0.3,0.1-0.4c1.3,0.1,2.1,0.2,2.5,0.2s0.8,0,1.1-0.1c0.3,0,0.7-0.1,1.2-0.1c0,0.1,0.1,0.2,0.1,0.4c0,0.2,0,0.3-0.1,0.4
		c-0.8,0-1.3,0.2-1.6,0.5c-0.6,0.9-1.3,2-2.1,3.4c-1.2,2-1.8,3.1-1.8,3.3l0,2.9c0,1.1,0,1.7,0.1,1.8c0.1,0.2,0.2,0.3,0.3,0.3
		c0.1,0.1,0.3,0.1,0.4,0.1c0.3,0,0.5,0.1,0.7,0.1c0.1,0.1,0.1,0.2,0.1,0.4s0,0.3-0.1,0.4C598,65.9,597,65.8,596,65.8z"/>
</g>
<g id="buy" transform="translate(-1265 -263.009)">
	<g transform="matrix(1, 0, 0, 1, 1265, 263.01)">
		<path id="Rectangle_7-2_1_" class="st0" d="M22.6,179h153c11.9,0,21.5,9.6,21.5,21.5l0,0c0,11.9-9.6,21.5-21.5,21.5h-153
			c-11.9,0-21.5-9.6-21.5-21.5l0,0C1.1,188.6,10.8,179,22.6,179z"/>
	</g>
	<g class="st1">
		<path class="st2" d="M1325,458.6l2.4,0c0.8,0,1.6,0.2,2.2,0.6c0.7,0.4,1.1,1.1,1.1,1.9c0,0.8-0.4,1.4-1.3,1.9
			c-0.2,0.1-0.3,0.2-0.4,0.2s-0.1,0.1-0.1,0.1c0,0,0.1,0,0.2,0c0.1,0,0.3,0.1,0.6,0.2c0.3,0.1,0.6,0.3,0.8,0.5c0.7,0.6,1,1.2,1,1.9
			c0,0.5-0.2,1-0.5,1.5c-0.3,0.4-0.7,0.8-1.2,1.1c-0.5,0.3-1,0.4-1.6,0.5c-0.6,0-1.1,0.1-1.4,0.1c-0.4,0-0.7,0-1.1,0c-1,0-2,0-2.9,0
			c0,0,0-0.1,0-0.3c0-0.1,0-0.2,0-0.3c0.1,0,0.2,0,0.4,0c0.4,0,0.6-0.1,0.6-0.2c0.1-0.2,0.1-0.7,0.1-1.5v-5.8c0-0.8,0-1.3-0.1-1.5
			c-0.1-0.2-0.5-0.2-1-0.2c0-0.1,0-0.2,0-0.3c0-0.1,0-0.2,0-0.3c0.4,0,0.8,0,1.2,0H1325z M1328.3,461.3c0-1.4-0.4-2.1-1.3-2.1
			c-0.2,0-0.4,0-0.5,0c-0.2,0-0.2,0.1-0.3,0.2c-0.1,0.1-0.1,0.4-0.1,1v2.8h0.8c0.4,0,0.7-0.2,1-0.5
			C1328.2,462.3,1328.3,461.9,1328.3,461.3z M1326.1,467.3c0,0.5,0,0.8,0.1,0.9c0.1,0.1,0.2,0.2,0.4,0.2c0.2,0,0.4,0,0.6,0
			s0.4,0,0.6-0.1c0.2-0.1,0.4-0.2,0.5-0.4c0.4-0.4,0.6-0.9,0.6-1.7c0-1.1-0.4-1.9-1.1-2.3c-0.3-0.1-0.6-0.2-0.9-0.2h-0.8V467.3z"/>
		<path class="st2" d="M1340.2,458.5c0.9,0.1,1.6,0.1,2,0.1s0.7,0,1,0c0.3,0,0.6-0.1,0.9-0.1c0,0,0,0.1,0,0.3c0,0.1,0,0.2,0,0.3
			c-0.4,0-0.7,0-0.9,0.1c-0.2,0.1-0.3,0.2-0.3,0.2c-0.1,0.4-0.2,1-0.2,1.9v3.1c0,1.5-0.4,2.7-1.3,3.6c-0.8,0.8-1.8,1.1-3,1.1
			c-0.7,0-1.3-0.1-1.9-0.3s-1.1-0.6-1.4-1c-0.3-0.4-0.6-0.9-0.7-1.5s-0.2-1.3-0.2-2.1v-3.4c0-0.3,0-0.6,0-0.9s0-0.4-0.1-0.5
			c0-0.1-0.1-0.2-0.2-0.2c-0.1,0-0.2-0.1-0.3-0.1c-0.2,0-0.4,0-0.6,0c0-0.1,0-0.2,0-0.3c0-0.1,0-0.2,0-0.3c0.8,0.1,1.6,0.1,2.3,0.1
			s1.5,0,2.3-0.1c0,0,0,0.1,0,0.3c0,0.1,0,0.2,0,0.3c-0.3,0-0.5,0-0.7,0.1c-0.2,0.1-0.3,0.1-0.3,0.2c-0.1,0.2-0.1,0.7-0.1,1.5v2.9
			c0,0.5,0,1,0.1,1.5c0,0.4,0.1,0.8,0.3,1.2c0.2,0.4,0.4,0.7,0.6,0.9c0.2,0.2,0.4,0.3,0.7,0.4c0.3,0.2,0.7,0.2,1.1,0.2
			c0.4,0,0.8-0.1,1.1-0.2c0.3-0.1,0.6-0.4,0.8-0.7c0.5-0.7,0.8-1.7,0.8-3v-2.7c0-0.9-0.1-1.5-0.2-1.9c0-0.1-0.2-0.2-0.4-0.2
			c-0.3-0.1-0.5-0.1-0.8-0.1c0-0.1,0-0.2,0-0.3C1340.2,458.7,1340.2,458.6,1340.2,458.5z"/>
		<path class="st2" d="M1349.8,469c-0.7,0-1.4,0-2.2,0.1c0,0,0-0.1,0-0.3c0-0.1,0-0.2,0-0.3c0.3,0,0.6,0,0.7-0.1
			c0.2-0.1,0.2-0.1,0.3-0.2c0.1-0.2,0.1-0.7,0.1-1.5v-2.3c0-0.1-0.4-0.8-1.1-2.2c-0.8-1.6-1.3-2.4-1.4-2.6c-0.1-0.2-0.3-0.3-0.6-0.4
			c-0.2-0.1-0.4-0.1-0.5-0.1c0-0.1-0.1-0.2-0.1-0.3c0-0.1,0-0.2,0.1-0.3c0.8,0.1,1.5,0.1,2.3,0.1c0.7,0,1.4,0,2.2-0.1
			c0,0,0,0.1,0,0.3c0,0.1,0,0.2,0,0.3c-0.6,0-1,0.1-1,0.4c0,0,0,0.1,0.1,0.3l1.9,3.5c0,0,0.7-1.1,2-3.4c0-0.1,0.1-0.3,0.1-0.3
			s-0.1-0.2-0.2-0.2c-0.1,0-0.2-0.1-0.3-0.1c-0.2,0-0.4-0.1-0.7-0.1c0-0.1,0-0.2,0-0.3c0-0.1,0-0.2,0-0.3c1,0.1,1.6,0.1,1.9,0.1
			s0.6,0,0.8,0s0.5-0.1,0.9-0.1c0,0,0,0.1,0,0.3c0,0.1,0,0.2,0,0.3c-0.6,0-1,0.1-1.2,0.4c-0.4,0.6-1,1.5-1.6,2.6
			c-0.9,1.5-1.3,2.3-1.3,2.4l0,2.2c0,0.8,0,1.3,0.1,1.4s0.1,0.2,0.2,0.2s0.2,0.1,0.3,0.1c0.2,0,0.4,0,0.6,0c0,0.1,0.1,0.2,0.1,0.3
			c0,0.1,0,0.2-0.1,0.3C1351.2,469,1350.5,469,1349.8,469z"/>
		<path class="st2" d="M1363.2,458.6l2.4,0c0.8,0,1.6,0.2,2.2,0.6c0.7,0.4,1.1,1.1,1.1,1.9c0,0.8-0.4,1.4-1.3,1.9
			c-0.2,0.1-0.3,0.2-0.4,0.2s-0.1,0.1-0.1,0.1c0,0,0.1,0,0.2,0c0.1,0,0.3,0.1,0.6,0.2c0.3,0.1,0.6,0.3,0.8,0.5c0.7,0.6,1,1.2,1,1.9
			c0,0.5-0.2,1-0.5,1.5c-0.3,0.4-0.7,0.8-1.2,1.1c-0.5,0.3-1,0.4-1.6,0.5c-0.6,0-1.1,0.1-1.4,0.1c-0.4,0-0.7,0-1.1,0c-1,0-2,0-2.9,0
			c0,0,0-0.1,0-0.3c0-0.1,0-0.2,0-0.3c0.1,0,0.2,0,0.4,0c0.4,0,0.6-0.1,0.6-0.2c0.1-0.2,0.1-0.7,0.1-1.5v-5.8c0-0.8,0-1.3-0.1-1.5
			c-0.1-0.2-0.5-0.2-1-0.2c0-0.1,0-0.2,0-0.3c0-0.1,0-0.2,0-0.3c0.4,0,0.8,0,1.2,0H1363.2z M1366.5,461.3c0-1.4-0.4-2.1-1.3-2.1
			c-0.2,0-0.4,0-0.5,0c-0.2,0-0.2,0.1-0.3,0.2c-0.1,0.1-0.1,0.4-0.1,1v2.8h0.8c0.4,0,0.7-0.2,1-0.5
			C1366.4,462.3,1366.5,461.9,1366.5,461.3z M1364.3,467.3c0,0.5,0,0.8,0.1,0.9c0.1,0.1,0.2,0.2,0.4,0.2c0.2,0,0.4,0,0.6,0
			s0.4,0,0.6-0.1c0.2-0.1,0.4-0.2,0.5-0.4c0.4-0.4,0.6-0.9,0.6-1.7c0-1.1-0.4-1.9-1.1-2.3c-0.3-0.1-0.6-0.2-0.9-0.2h-0.8V467.3z"/>
		<path class="st2" d="M1376.7,458.4c0.7,0,1.4,0.1,2,0.4c0.6,0.3,1.2,0.7,1.7,1.2c0.5,0.5,0.9,1.1,1.2,1.7c0.3,0.7,0.4,1.4,0.4,2.1
			c0,0.7-0.1,1.4-0.4,2.1c-0.3,0.6-0.7,1.2-1.2,1.7c-0.5,0.5-1.1,0.9-1.7,1.2c-0.6,0.3-1.3,0.4-2,0.4c-1.4,0-2.6-0.5-3.7-1.6
			c-0.5-0.5-0.9-1.1-1.2-1.7c-0.3-0.6-0.4-1.3-0.4-2.1c0-0.7,0.1-1.4,0.4-2.1c0.3-0.7,0.7-1.2,1.2-1.7
			C1374.1,459,1375.3,458.4,1376.7,458.4z M1377.9,459.6c-0.4-0.3-0.9-0.5-1.4-0.5c-0.5,0-1,0.1-1.3,0.4c-0.3,0.3-0.6,0.6-0.8,1
			c-0.4,0.7-0.5,1.6-0.5,2.8c0,1.4,0.2,2.6,0.7,3.5c0.6,1.2,1.4,1.7,2.5,1.7c0.9,0,1.5-0.4,2-1.3c0.4-0.7,0.6-1.7,0.6-2.8
			c0-1.4-0.2-2.6-0.7-3.5C1378.6,460.3,1378.3,459.9,1377.9,459.6z"/>
		<path class="st2" d="M1389.6,458.4c0.7,0,1.4,0.1,2,0.4c0.6,0.3,1.2,0.7,1.7,1.2c0.5,0.5,0.9,1.1,1.2,1.7c0.3,0.7,0.4,1.4,0.4,2.1
			c0,0.7-0.1,1.4-0.4,2.1c-0.3,0.6-0.7,1.2-1.2,1.7c-0.5,0.5-1.1,0.9-1.7,1.2c-0.6,0.3-1.3,0.4-2,0.4c-1.4,0-2.6-0.5-3.7-1.6
			c-0.5-0.5-0.9-1.1-1.2-1.7c-0.3-0.6-0.4-1.3-0.4-2.1c0-0.7,0.1-1.4,0.4-2.1c0.3-0.7,0.7-1.2,1.2-1.7
			C1386.9,459,1388.2,458.4,1389.6,458.4z M1390.7,459.6c-0.4-0.3-0.9-0.5-1.4-0.5c-0.5,0-1,0.1-1.3,0.4c-0.3,0.3-0.6,0.6-0.8,1
			c-0.4,0.7-0.5,1.6-0.5,2.8c0,1.4,0.2,2.6,0.7,3.5c0.6,1.2,1.4,1.7,2.5,1.7c0.9,0,1.5-0.4,2-1.3c0.4-0.7,0.6-1.7,0.6-2.8
			c0-1.4-0.2-2.6-0.7-3.5C1391.5,460.3,1391.1,459.9,1390.7,459.6z"/>
		<path class="st2" d="M1397.1,458.5c0.8,0.1,1.6,0.1,2.3,0.1c0.7,0,1.4,0,2.2-0.1c0,0,0,0.1,0,0.3c0,0.1,0,0.2,0,0.3
			c-0.3,0-0.5,0-0.7,0.1c-0.2,0.1-0.3,0.1-0.3,0.2c-0.1,0.2-0.1,0.4-0.1,0.6c0,0.2,0,0.5,0,0.9v2.8c0.8-0.6,1.3-1.1,1.6-1.4l0.7-0.7
			c0.5-0.5,1-1,1.4-1.6c0.1-0.1,0.1-0.3,0.1-0.5c0-0.2-0.3-0.3-0.9-0.3c-0.1-0.2-0.1-0.4,0-0.6l2.1,0.1c0.6,0,1.2,0,2-0.1
			c0,0.1,0,0.2,0,0.3c0,0.1,0,0.2-0.1,0.3c-0.3,0-0.7,0.1-1,0.2c-0.4,0.2-0.6,0.3-0.7,0.5l-3,3.1c-0.1,0.1-0.1,0.2,0,0.3l2.9,3.8
			c0.5,0.6,1.1,1.1,1.7,1.3c0.4,0.1,0.7,0.2,0.9,0.2c0,0.1,0,0.2,0,0.3c0,0.2,0,0.2,0,0.3c-0.4,0-1.1,0-1.8,0s-1.4-0.1-1.8-0.4
			c-0.4-0.3-0.7-0.5-0.9-0.8l-2.8-3.7c0,0-0.1-0.1-0.2-0.1c-0.1,0-0.1,0-0.2,0.1v2.4c0,0.4,0,0.6,0,0.9c0,0.2,0,0.4,0.1,0.5
			c0,0.1,0.1,0.2,0.2,0.2s0.2,0.1,0.3,0.1c0.2,0,0.4,0,0.6,0c0,0.1,0,0.2,0,0.3c0,0.1,0,0.2,0,0.3c-1.5-0.1-3-0.1-4.5,0
			c0,0,0-0.1,0-0.3c0-0.1,0-0.2,0-0.3c0.3,0,0.6,0,0.7-0.1c0.2-0.1,0.3-0.1,0.3-0.2c0.1-0.2,0.1-0.7,0.1-1.5v-5.8
			c0-0.8,0-1.3-0.1-1.5c-0.1-0.2-0.5-0.3-1-0.3c0-0.1,0-0.2,0-0.3C1397,458.7,1397,458.6,1397.1,458.5z"/>
	</g>
</g>
<g>
	<g transform="matrix(1, 0, 0, 1, 0, 0)">
		<path id="Rectangle_7-2_2_" class="st0" d="M17,0h123c9.4,0,17,7.6,17,17l0,0c0,9.4-7.6,17-17,17H17C7.6,34,0,26.4,0,17l0,0
			C0,7.6,7.6,0,17,0z"/>
	</g>
	<g class="st1">
		<path class="st2" d="M40.4,12.1l2.3,0c0.8,0,1.5,0.2,2,0.5c0.7,0.4,1,1,1,1.8c0,0.7-0.4,1.3-1.2,1.8c-0.2,0.1-0.3,0.2-0.4,0.2
			S44,16.5,44,16.5c0,0,0,0,0.1,0c0.1,0,0.3,0.1,0.6,0.2c0.3,0.1,0.5,0.3,0.8,0.5c0.6,0.5,0.9,1.1,0.9,1.8c0,0.5-0.1,1-0.4,1.4
			s-0.7,0.8-1.1,1c-0.5,0.3-1,0.4-1.5,0.5S42.4,22,42,22s-0.7,0-1,0c-0.9,0-1.8,0-2.8,0c0,0,0-0.1,0-0.3s0-0.2,0-0.3
			c0.1,0,0.2,0,0.4,0c0.3,0,0.5-0.1,0.6-0.2c0.1-0.2,0.1-0.6,0.1-1.4v-5.5c0-0.7,0-1.2-0.1-1.4c-0.1-0.2-0.4-0.2-1-0.2
			c0-0.1,0-0.2,0-0.3c0-0.1,0-0.2,0-0.3c0.3,0,0.7,0,1.1,0H40.4z M43.5,14.6c0-1.3-0.4-2-1.2-2c-0.2,0-0.3,0-0.5,0
			c-0.1,0-0.2,0.1-0.3,0.2c-0.1,0.1-0.1,0.4-0.1,0.9v2.6h0.8c0.4,0,0.7-0.1,0.9-0.4C43.4,15.6,43.5,15.2,43.5,14.6z M41.4,20.3
			c0,0.5,0,0.8,0.1,0.8c0.1,0.1,0.2,0.2,0.4,0.2c0.2,0,0.4,0,0.6,0c0.2,0,0.4,0,0.6-0.1c0.2-0.1,0.4-0.2,0.5-0.4
			c0.4-0.3,0.5-0.9,0.5-1.6c0-1-0.3-1.8-1-2.1c-0.2-0.1-0.5-0.2-0.9-0.2h-0.8V20.3z"/>
		<path class="st2" d="M54.8,12c0.9,0.1,1.5,0.1,1.8,0.1c0.4,0,0.7,0,0.9,0s0.5-0.1,0.8-0.1c0,0,0,0.1,0,0.3c0,0.1,0,0.2,0,0.3
			c-0.4,0-0.7,0-0.8,0.1c-0.2,0.1-0.3,0.2-0.3,0.2c-0.1,0.4-0.2,1-0.2,1.8v2.9c0,1.4-0.4,2.6-1.2,3.4C55,21.7,54.1,22,52.9,22
			c-0.6,0-1.2-0.1-1.8-0.3c-0.6-0.2-1-0.5-1.3-0.9s-0.6-0.9-0.7-1.4c-0.1-0.5-0.2-1.2-0.2-2v-3.2c0-0.3,0-0.6,0-0.8s0-0.4-0.1-0.5
			c0-0.1-0.1-0.2-0.2-0.2c-0.1,0-0.2-0.1-0.3-0.1c-0.2,0-0.4,0-0.5,0c0-0.1,0-0.2,0-0.3c0-0.1,0-0.2,0-0.3c0.8,0.1,1.5,0.1,2.1,0.1
			s1.4,0,2.1-0.1c0,0,0,0.1,0,0.3c0,0.1,0,0.2,0,0.3c-0.3,0-0.5,0-0.7,0.1c-0.2,0.1-0.3,0.1-0.3,0.2C51.1,13,51,13.5,51,14.2V17
			c0,0.5,0,1,0.1,1.4c0,0.4,0.1,0.8,0.3,1.1c0.2,0.4,0.3,0.6,0.5,0.8c0.2,0.2,0.4,0.3,0.6,0.4c0.3,0.2,0.6,0.2,1,0.2
			c0.4,0,0.7-0.1,1-0.2c0.3-0.1,0.5-0.4,0.8-0.7c0.5-0.7,0.8-1.6,0.8-2.8v-2.5c0-0.8-0.1-1.5-0.2-1.8c0-0.1-0.2-0.2-0.4-0.2
			c-0.3-0.1-0.5-0.1-0.7-0.1c0-0.1,0-0.2,0-0.3C54.7,12.1,54.7,12,54.8,12z"/>
		<path class="st2" d="M63.8,21.9c-0.6,0-1.4,0-2.1,0.1c0,0,0-0.1,0-0.3s0-0.2,0-0.3c0.3,0,0.6,0,0.7-0.1c0.2-0.1,0.2-0.1,0.2-0.2
			c0.1-0.2,0.1-0.6,0.1-1.4v-2.2c0-0.1-0.4-0.8-1.1-2.1c-0.8-1.5-1.2-2.3-1.3-2.5c-0.1-0.2-0.3-0.3-0.5-0.4
			c-0.2-0.1-0.4-0.1-0.5-0.1c0-0.1-0.1-0.2-0.1-0.3c0-0.1,0-0.2,0.1-0.3c0.7,0.1,1.4,0.1,2.1,0.1c0.6,0,1.4,0,2.1-0.1
			c0,0,0,0.1,0,0.3c0,0.1,0,0.2,0,0.3c-0.6,0-0.9,0.1-0.9,0.4c0,0,0,0.1,0.1,0.2l1.8,3.3c0,0,0.7-1,1.9-3.2c0-0.1,0.1-0.2,0.1-0.3
			s0-0.1-0.1-0.2c-0.1,0-0.2-0.1-0.3-0.1c-0.2,0-0.4-0.1-0.6-0.1c0-0.1,0-0.2,0-0.3c0-0.1,0-0.2,0-0.3c0.9,0.1,1.5,0.1,1.8,0.1
			s0.5,0,0.8,0c0.2,0,0.5-0.1,0.8-0.1c0,0,0,0.1,0,0.3c0,0.1,0,0.2,0,0.3c-0.6,0-0.9,0.1-1.1,0.4c-0.4,0.6-0.9,1.4-1.5,2.4
			c-0.8,1.4-1.3,2.2-1.3,2.3l0,2.1c0,0.8,0,1.2,0.1,1.3c0,0.1,0.1,0.2,0.2,0.2c0.1,0,0.2,0.1,0.3,0.1c0.2,0,0.4,0,0.5,0
			c0,0.1,0.1,0.2,0.1,0.3c0,0.1,0,0.2-0.1,0.3C65.2,21.9,64.5,21.9,63.8,21.9z"/>
		<path class="st2" d="M76.5,12.1l2.3,0c0.8,0,1.5,0.2,2,0.5c0.7,0.4,1,1,1,1.8c0,0.7-0.4,1.3-1.2,1.8c-0.2,0.1-0.3,0.2-0.4,0.2
			s-0.1,0.1-0.1,0.1c0,0,0,0,0.1,0c0.1,0,0.3,0.1,0.6,0.2c0.3,0.1,0.5,0.3,0.8,0.5c0.6,0.5,0.9,1.1,0.9,1.8c0,0.5-0.1,1-0.4,1.4
			s-0.7,0.8-1.1,1c-0.5,0.3-1,0.4-1.5,0.5s-1,0.1-1.4,0.1s-0.7,0-1,0c-0.9,0-1.8,0-2.8,0c0,0,0-0.1,0-0.3s0-0.2,0-0.3
			c0.1,0,0.2,0,0.4,0c0.3,0,0.5-0.1,0.6-0.2c0.1-0.2,0.1-0.6,0.1-1.4v-5.5c0-0.7,0-1.2-0.1-1.4c-0.1-0.2-0.4-0.2-1-0.2
			c0-0.1,0-0.2,0-0.3c0-0.1,0-0.2,0-0.3c0.3,0,0.7,0,1.1,0H76.5z M79.6,14.6c0-1.3-0.4-2-1.2-2c-0.2,0-0.3,0-0.5,0
			c-0.1,0-0.2,0.1-0.3,0.2c-0.1,0.1-0.1,0.4-0.1,0.9v2.6h0.8c0.4,0,0.7-0.1,0.9-0.4C79.5,15.6,79.6,15.2,79.6,14.6z M77.5,20.3
			c0,0.5,0,0.8,0.1,0.8c0.1,0.1,0.2,0.2,0.4,0.2c0.2,0,0.4,0,0.6,0c0.2,0,0.4,0,0.6-0.1c0.2-0.1,0.4-0.2,0.5-0.4
			c0.4-0.3,0.5-0.9,0.5-1.6c0-1-0.3-1.8-1-2.1c-0.2-0.1-0.5-0.2-0.9-0.2h-0.8V20.3z"/>
		<path class="st2" d="M89.3,11.9c0.7,0,1.3,0.1,1.9,0.4c0.6,0.3,1.2,0.6,1.6,1.1c0.5,0.5,0.9,1,1.1,1.6c0.3,0.6,0.4,1.3,0.4,2
			c0,0.7-0.1,1.3-0.4,2c-0.3,0.6-0.7,1.1-1.1,1.6c-0.5,0.5-1,0.8-1.6,1.1c-0.6,0.3-1.2,0.4-1.9,0.4c-1.3,0-2.5-0.5-3.5-1.5
			c-0.5-0.5-0.9-1-1.1-1.6c-0.3-0.6-0.4-1.3-0.4-2c0-0.7,0.1-1.4,0.4-2c0.3-0.6,0.7-1.2,1.1-1.6C86.8,12.4,87.9,11.9,89.3,11.9z
			 M90.3,13c-0.4-0.3-0.8-0.5-1.3-0.5c-0.5,0-0.9,0.1-1.2,0.4c-0.3,0.2-0.5,0.5-0.7,0.9c-0.3,0.7-0.5,1.6-0.5,2.6
			c0,1.3,0.2,2.4,0.7,3.3c0.5,1.1,1.3,1.6,2.3,1.6c0.8,0,1.5-0.4,1.9-1.3c0.3-0.7,0.5-1.6,0.5-2.6c0-1.3-0.2-2.4-0.7-3.3
			C91,13.7,90.7,13.3,90.3,13z"/>
		<path class="st2" d="M101.4,11.9c0.7,0,1.3,0.1,1.9,0.4c0.6,0.3,1.2,0.6,1.6,1.1c0.5,0.5,0.9,1,1.1,1.6c0.3,0.6,0.4,1.3,0.4,2
			c0,0.7-0.1,1.3-0.4,2c-0.3,0.6-0.7,1.1-1.1,1.6c-0.5,0.5-1,0.8-1.6,1.1c-0.6,0.3-1.2,0.4-1.9,0.4c-1.3,0-2.5-0.5-3.5-1.5
			c-0.5-0.5-0.9-1-1.1-1.6c-0.3-0.6-0.4-1.3-0.4-2c0-0.7,0.1-1.4,0.4-2c0.3-0.6,0.7-1.2,1.1-1.6C98.9,12.4,100,11.9,101.4,11.9z
			 M102.4,13c-0.4-0.3-0.8-0.5-1.3-0.5c-0.5,0-0.9,0.1-1.2,0.4c-0.3,0.2-0.5,0.5-0.7,0.9c-0.3,0.7-0.5,1.6-0.5,2.6
			c0,1.3,0.2,2.4,0.7,3.3c0.5,1.1,1.3,1.6,2.3,1.6c0.8,0,1.5-0.4,1.9-1.3c0.3-0.7,0.5-1.6,0.5-2.6c0-1.3-0.2-2.4-0.7-3.3
			C103.1,13.7,102.8,13.3,102.4,13z"/>
		<path class="st2" d="M108.4,12c0.8,0.1,1.5,0.1,2.2,0.1c0.6,0,1.4,0,2.1-0.1c0,0,0,0.1,0,0.3c0,0.1,0,0.2,0,0.3
			c-0.3,0-0.5,0-0.7,0.1s-0.3,0.1-0.3,0.2c-0.1,0.2-0.1,0.4-0.1,0.6s0,0.5,0,0.8v2.7c0.8-0.6,1.3-1,1.5-1.3l0.7-0.6
			c0.5-0.5,0.9-1,1.3-1.5c0.1-0.1,0.1-0.3,0.1-0.5c0-0.2-0.3-0.3-0.8-0.3c-0.1-0.2-0.1-0.4,0-0.5l1.9,0.1c0.5,0,1.1,0,1.9-0.1
			c0,0.1,0,0.2,0,0.3c0,0.1,0,0.2-0.1,0.2c-0.3,0-0.6,0.1-1,0.2s-0.6,0.3-0.7,0.4l-2.8,2.9c-0.1,0.1-0.1,0.2,0,0.2l2.7,3.6
			c0.5,0.6,1,1,1.6,1.2c0.4,0.1,0.7,0.2,0.9,0.2c0,0.1,0,0.2,0,0.3s0,0.2,0,0.3c-0.4,0-1,0-1.7,0s-1.3-0.1-1.7-0.4
			c-0.4-0.2-0.7-0.5-0.8-0.7l-2.6-3.5c0,0-0.1-0.1-0.2-0.1c-0.1,0-0.1,0-0.2,0.1v2.3c0,0.3,0,0.6,0,0.8c0,0.2,0,0.4,0.1,0.5
			c0,0.1,0.1,0.2,0.2,0.2c0.1,0,0.2,0.1,0.3,0.1c0.2,0,0.3,0,0.5,0c0,0.1,0,0.2,0,0.3s0,0.2,0,0.3c-1.4-0.1-2.8-0.1-4.3,0
			c0,0,0-0.1,0-0.3s0-0.2,0-0.3c0.3,0,0.6,0,0.7-0.1s0.2-0.1,0.3-0.2c0.1-0.2,0.1-0.6,0.1-1.4v-5.5c0-0.7,0-1.2-0.1-1.4
			c-0.1-0.2-0.4-0.2-1-0.2c0-0.1,0-0.2,0-0.3C108.4,12.1,108.4,12,108.4,12z"/>
	</g>
</g>
</svg>
