<svg id="Layer_1" data-name="Layer 1" xmlns="http://www.w3.org/2000/svg" viewBox="0 0 29.48 29.48"><defs><style>.cls-1{fill:#f37a1f;}.cls-2{fill:none;}</style></defs><title>DownloadBurron</title><g id="Group_249" data-name="Group 249"><g id="Group_188" data-name="Group 188"><g id="Arrow_2" data-name="Arrow 2"><path id="Path_6" data-name="Path 6" class="cls-1" d="M21.37,13.46l.8.81a.86.86,0,0,1,0,1.22h0l-7.05,7.06a.87.87,0,0,1-1.23,0h0L6.83,15.5a.87.87,0,0,1,0-1.23h0l.81-.81a.87.87,0,0,1,1.23,0v0l4.17,4.37V7.41a.87.87,0,0,1,.87-.87h1.16a.87.87,0,0,1,.87.87h0V17.85l4.17-4.37a.87.87,0,0,1,1.23,0Z"/></g><g id="Path_136" data-name="Path 136"><path class="cls-2" d="M14.74,0A14.74,14.74,0,1,1,0,14.74,14.74,14.74,0,0,1,14.74,0Z"/><path class="cls-1" d="M14.74,2a12.74,12.74,0,1,0,9,3.73,12.7,12.7,0,0,0-9-3.73m0-2A14.74,14.74,0,1,1,0,14.74,14.74,14.74,0,0,1,14.74,0Z"/></g></g></g></svg>