<?xml version="1.0" encoding="utf-8"?>
<!-- Generator: Adobe Illustrator 23.1.0, SVG Export Plug-In . SVG Version: 6.00 Build 0)  -->
<svg version="1.1" id="Layer_1" xmlns="http://www.w3.org/2000/svg" xmlns:xlink="http://www.w3.org/1999/xlink" x="0px" y="0px"
	 viewBox="0 0 19.8 17.4" style="enable-background:new 0 0 19.8 17.4;" xml:space="preserve">
<style type="text/css">
	.st0{fill:#F07A20;}
</style>
<g>
	<path id="Menu" class="st0" d="M0.7,3.2h18.4c0.4,0,0.7-0.3,0.7-0.7c0,0,0,0,0,0V0.7c0-0.4-0.3-0.7-0.7-0.7H0.7C0.3,0,0,0.3,0,0.7
		l0,0l0,0v1.8C0,2.9,0.3,3.2,0.7,3.2L0.7,3.2z M0.7,10.3h18.4c0.4,0,0.7-0.3,0.7-0.7V7.8c0-0.4-0.3-0.7-0.7-0.7H0.7
		C0.3,7.1,0,7.4,0,7.8l0,0v1.8C0,10,0.3,10.3,0.7,10.3L0.7,10.3L0.7,10.3z M0.7,17.3h18.4c0.4,0,0.7-0.3,0.7-0.7c0,0,0,0,0,0v-1.8
		c0-0.4-0.3-0.7-0.7-0.7H0.7c-0.4,0-0.7,0.3-0.7,0.7c0,0,0,0,0,0l0,0v1.8C0,17,0.3,17.4,0.7,17.3L0.7,17.3L0.7,17.3z"/>
</g>
</svg>
