<?xml version="1.0" encoding="utf-8"?>
<!-- Generator: Adobe Illustrator 23.1.0, SVG Export Plug-In . SVG Version: 6.00 Build 0)  -->
<svg version="1.1" id="Layer_1" xmlns="http://www.w3.org/2000/svg" xmlns:xlink="http://www.w3.org/1999/xlink" x="0px" y="0px"
	 viewBox="0 0 30.8 26.9" style="enable-background:new 0 0 30.8 26.9;" xml:space="preserve">
<style type="text/css">
	.st0{fill:#F07A20;}
</style>
<g>
	<path id="Menu" class="st0" d="M1.1,4.9h28.6c0.6,0,1.1-0.5,1.1-1.1l0,0V1.1c0-0.6-0.5-1.1-1.1-1.1c0,0,0,0,0,0H1.1
		C0.5,0,0,0.5,0,1.1l0,0l0,0v2.7C0,4.5,0.5,4.9,1.1,4.9z M1.1,15.9h28.6c0.6,0,1.1-0.5,1.1-1.1l0,0v-2.7c0-0.6-0.5-1.1-1.1-1.1
		c0,0,0,0,0,0H1.1C0.5,11,0,11.5,0,12.1l0,0l0,0v2.7C0,15.4,0.5,15.9,1.1,15.9C1.1,15.9,1.1,15.9,1.1,15.9L1.1,15.9z M1.1,26.9h28.6
		c0.6,0,1.1-0.5,1.1-1.1l0,0v-2.7c0-0.6-0.5-1.1-1.1-1.1c0,0,0,0,0,0H1.1C0.5,22,0,22.5,0,23.1l0,0l0,0v2.7
		C0,26.4,0.5,26.9,1.1,26.9C1.1,26.9,1.1,26.9,1.1,26.9L1.1,26.9z"/>
</g>
</svg>
