<svg id="Layer_1" data-name="Layer 1" xmlns="http://www.w3.org/2000/svg" viewBox="0 0 209 78"><defs><style>.cls-1{fill:#dcd5cf;}.cls-2{fill:#f37a1f;}.cls-3{fill:#fff;}.cls-4,.cls-5{fill:none;}.cls-5{stroke:#fff;}.cls-6,.cls-7{isolation:isolate;}.cls-7{font-size:20px;fill:#181c4c;font-family:Ramaraja;letter-spacing:0.05em;}</style></defs><title>podcast</title><g id="podacast"><g id="Group_265" data-name="Group 265"><path id="Rectangle_70" data-name="Rectangle 70" class="cls-1" d="M37.5,9h141A30.5,30.5,0,0,1,209,39.5h0A30.51,30.51,0,0,1,178.5,70H37.5A30.51,30.51,0,0,1,7,39.5H7A30.5,30.5,0,0,1,37.5,9Z"/><g id="Group_264" data-name="Group 264"><circle id="Ellipse_22-2" data-name="Ellipse 22-2" class="cls-2" cx="39.5" cy="38.5" r="35.5"/><g id="Group_255" data-name="Group 255"><g id="Group_254" data-name="Group 254"><path id="Path_228" data-name="Path 228" class="cls-3" d="M55.56,27.32a.93.93,0,0,0-1.3.17l-.1.17a1.32,1.32,0,0,0,.29,1.63,12.44,12.44,0,0,1,0,19,1.31,1.31,0,0,0-.29,1.63.92.92,0,0,0,1.23.43.59.59,0,0,0,.17-.1A15,15,0,0,0,57.3,29.06a15.88,15.88,0,0,0-1.74-1.74Z"/><path id="Path_229" data-name="Path 229" class="cls-3" d="M56.87,38.78A9.36,9.36,0,0,0,53.3,31.2a.9.9,0,0,0-1.27.19.59.59,0,0,0-.1.17,1.29,1.29,0,0,0,.31,1.62,7.27,7.27,0,0,1,1,10.23,7.49,7.49,0,0,1-1,1A1.29,1.29,0,0,0,51.93,46a.92.92,0,0,0,1.21.46l.16-.1A9.38,9.38,0,0,0,56.87,38.78Z"/><path id="Path_230" data-name="Path 230" class="cls-3" d="M17.44,38.78a14.38,14.38,0,0,0,5.31,11.46.93.93,0,0,0,1.3-.17,1.4,1.4,0,0,0,.1-.16,1.31,1.31,0,0,0-.29-1.63,12.43,12.43,0,0,1-1.45-17.54,11,11,0,0,1,1.45-1.45,1.32,1.32,0,0,0,.29-1.63.92.92,0,0,0-1.23-.44,1,1,0,0,0-.17.1A14.41,14.41,0,0,0,17.44,38.78Z"/><path id="Path_231" data-name="Path 231" class="cls-3" d="M25,46.37a.91.91,0,0,0,1.28-.2,1.4,1.4,0,0,0,.1-.16,1.29,1.29,0,0,0-.31-1.62,7.29,7.29,0,0,1-1-10.24,8.16,8.16,0,0,1,1-1,1.29,1.29,0,0,0,.31-1.62.92.92,0,0,0-1.21-.46.75.75,0,0,0-.17.1,9.85,9.85,0,0,0-1.3,13.87,10,10,0,0,0,1.3,1.3Z"/></g><g id="Group_255-2" data-name="Group 255-2"><g id="Group_254-2" data-name="Group 254-2"><path id="Path_223" data-name="Path 223" class="cls-3" d="M50.12,37.79a.94.94,0,0,0-1.88,0h0a9.09,9.09,0,1,1-18.18.15h0v-.17a.94.94,0,0,0-1.88,0,11,11,0,0,0,10,10.94V53H33.11a.94.94,0,0,0,0,1.88H45.15a.94.94,0,0,0,0-1.88H40.07V48.71A11,11,0,0,0,50.12,37.79Z"/><path id="Path_224" data-name="Path 224" class="cls-3" d="M42.66,38.72a.94.94,0,0,1,0-1.88h3.45V34.71H41.66a.94.94,0,0,1,0-1.88h4.45V30.7H42.66a.94.94,0,0,1-.06-1.88h3.48a6.6,6.6,0,0,0-6.55-6.09h-.74a6.61,6.61,0,0,0-6.57,6.07h3.42a.94.94,0,0,1,0,1.88H32.19v2.13h4.45a.94.94,0,0,1,0,1.88H32.19v2.14h3.45a.94.94,0,1,1,0,1.88H32.22a6.57,6.57,0,0,0,6.55,6h.74a6.58,6.58,0,0,0,6.57-6Z"/></g></g></g><g id="Ellipse_24-2" data-name="Ellipse 24-2"><circle class="cls-4" cx="39.5" cy="38.5" r="31.5"/><circle class="cls-5" cx="39.5" cy="38.5" r="31"/></g><g id="Ellipse_26-2" data-name="Ellipse 26-2"><circle class="cls-4" cx="39" cy="39" r="39"/><circle class="cls-5" cx="39" cy="39" r="38.5"/></g></g></g><g id="Interview_Podcast" data-name="Interview Podcast" class="cls-6"><text class="cls-7" transform="translate(94 36)">Interview</text><text class="cls-7" transform="translate(94 53)">Podcast</text></g></g></svg>