<svg id="Layer_1" data-name="Layer 1" xmlns="http://www.w3.org/2000/svg" viewBox="0 0 209 78"><defs><style>.cls-1{fill:#dcd5cf;}.cls-2{fill:#f37a1f;}.cls-3{fill:#fff;}.cls-4,.cls-5{fill:none;}.cls-5{stroke:#fff;}.cls-6,.cls-7,.cls-8{isolation:isolate;}.cls-7{font-size:17px;letter-spacing:0.05em;}.cls-7,.cls-8{fill:#181c4c;font-family:Ramaraja;}.cls-8{font-size:12px;letter-spacing:0.05em;}</style></defs><title>radio</title><g id="radio"><g id="Group_266" data-name="Group 266"><path id="Rectangle_69" data-name="Rectangle 69" class="cls-1" d="M37.5,9h141A30.51,30.51,0,0,1,209,39.5h0A30.51,30.51,0,0,1,178.5,70H37.5A30.51,30.51,0,0,1,7,39.5H7A30.51,30.51,0,0,1,37.5,9Z"/><g id="Group_263" data-name="Group 263"><circle id="Ellipse_21-2" data-name="Ellipse 21-2" class="cls-2" cx="39.5" cy="38.5" r="35.5"/><g id="Group_261" data-name="Group 261"><g id="Group_259" data-name="Group 259"><g id="Group_256" data-name="Group 256"><path id="Path_232" data-name="Path 232" class="cls-3" d="M52.61,30H50.27L38.54,23.42a1.15,1.15,0,0,0-1.53.39,1,1,0,0,0,.37,1.43l0,0L45.9,30h-20a4.46,4.46,0,0,0-4.45,4.46V50a4.45,4.45,0,0,0,4.45,4.45H52.61A4.46,4.46,0,0,0,57.07,50h0V34.43A4.46,4.46,0,0,0,52.61,30ZM54.84,50a2.23,2.23,0,0,1-2.23,2.23H25.88A2.23,2.23,0,0,1,23.65,50h0V34.42a2.23,2.23,0,0,1,2.23-2.23H52.61a2.23,2.23,0,0,1,2.23,2.23h0Z"/></g><g id="Group_257" data-name="Group 257"><path id="Path_233" data-name="Path 233" class="cls-3" d="M44.81,35.54a6.69,6.69,0,1,0,6.69,6.68A6.68,6.68,0,0,0,44.81,35.54Zm0,11.14a4.46,4.46,0,1,1,4.46-4.45A4.45,4.45,0,0,1,44.81,46.68Z"/></g><circle id="Ellipse_19" data-name="Ellipse 19" class="cls-3" cx="44.81" cy="42.22" r="2.49"/><g id="Group_258" data-name="Group 258"><path id="Path_234" data-name="Path 234" class="cls-3" d="M34.82,43H28.13a1.12,1.12,0,0,0,0,2.23h6.69a1.12,1.12,0,0,0,0-2.23Z"/><path id="Path_235" data-name="Path 235" class="cls-3" d="M34.82,39.22H28.13a1.12,1.12,0,0,0,0,2.23h6.69a1.12,1.12,0,0,0,0-2.23Z"/><path id="Path_236" data-name="Path 236" class="cls-3" d="M34.82,35.43H28.13a1.12,1.12,0,0,0,0,2.23h6.69a1.12,1.12,0,0,0,0-2.23Z"/><path id="Path_237" data-name="Path 237" class="cls-3" d="M34.82,46.79H28.13a1.12,1.12,0,0,0,0,2.23h6.69a1.12,1.12,0,0,0,0-2.23Z"/></g></g><g id="Ellipse_23-2" data-name="Ellipse 23-2"><circle class="cls-4" cx="39" cy="39" r="32"/><circle class="cls-5" cx="39" cy="39" r="31.5"/></g><g id="Ellipse_25-2" data-name="Ellipse 25-2"><circle class="cls-4" cx="39" cy="39" r="39"/><circle class="cls-5" cx="39" cy="39" r="38.5"/></g></g></g></g><g id="Radio_Show_10am-11am_Saturday" data-name="Radio Show 10am-11am Saturday" class="cls-6"><text class="cls-7" transform="translate(89 36)">Radio Show</text><text class="cls-8" transform="translate(89 50)">10am-11am Saturday</text></g></g></svg>