<?xml version="1.0" encoding="utf-8"?>
<!-- Generator: Adobe Illustrator 23.1.0, SVG Export Plug-In . SVG Version: 6.00 Build 0)  -->
<svg version="1.1" id="Layer_1" xmlns="http://www.w3.org/2000/svg" xmlns:xlink="http://www.w3.org/1999/xlink" x="0px" y="0px"
	 viewBox="0 0 400 400" style="enable-background:new 0 0 400 400;" xml:space="preserve">
<style type="text/css">
	.st0{fill:#FFFFFF;}
</style>
<g id="White">
</g>
<g transform="translate(1 1)">
	<g transform="matrix(1, 0, 0, 1, -1, -1)">
		<path class="st0" d="M400,201.4c0-110.4-89.6-200-200-200S0,90,0,201.4C0,300,71.5,383.3,169.2,398.6V258.4h-51.6v-57.9h50.7
			v-44.3c0-49.8,29.9-77.8,76-77.8c15.4,0,29.9,1.8,45.2,3.6v48.9h-25.3c-24.4,0-32.6,15.4-32.6,31.7v37.1h55.2l-9,57.9h-47.1v140.3
			C328.5,383.3,400,299.1,400,201.4z"/>
	</g>
</g>
</svg>
