<?xml version="1.0" encoding="utf-8"?>
<!-- Generator: Adobe Illustrator 23.1.0, SVG Export Plug-In . SVG Version: 6.00 Build 0)  -->
<svg version="1.1" id="Layer_1" xmlns="http://www.w3.org/2000/svg" xmlns:xlink="http://www.w3.org/1999/xlink" x="0px" y="0px"
	 viewBox="0 0 44.2 44.2" style="enable-background:new 0 0 44.2 44.2;" xml:space="preserve">
<style type="text/css">
	.st0{fill:#181C4C;}
</style>
<g transform="translate(1 1)">
	<g transform="matrix(1, 0, 0, 1, -1, -1)">
		<path class="st0" d="M44.2,22.3c0-12.2-9.9-22.1-22.1-22.1S0,10,0,22.3c0,10.9,7.9,20.1,18.7,21.8V28.6H13v-6.4h5.6v-4.9
			c0-5.5,3.3-8.6,8.4-8.6c1.7,0,3.3,0.2,5,0.4v5.4h-2.8c-2.7,0-3.6,1.7-3.6,3.5v4.1h6.1l-1,6.4h-5.2v15.5
			C36.3,42.4,44.2,33.1,44.2,22.3z"/>
	</g>
</g>
</svg>
