<svg id="Layer_1" data-name="Layer 1" xmlns="http://www.w3.org/2000/svg" viewBox="0 0 44.24 44.24"><defs><style>.cls-1{fill:#181c4c;}</style></defs><title>Twitter_navy</title><g id="twitter"><path id="Path_225-2" data-name="Path 225-2" class="cls-1" d="M44.24,22.12A22.12,22.12,0,0,1,22.13,44.24h0A22.11,22.11,0,0,1,0,22.13H0A22.11,22.11,0,0,1,22.11,0h0A22.11,22.11,0,0,1,44.24,22.11ZM18.07,33.79a15.08,15.08,0,0,0,15.18-15v-.21c0-.23,0-.46,0-.68a11,11,0,0,0,2.67-2.77,10.54,10.54,0,0,1-3.06.84,5.29,5.29,0,0,0,2.34-2.95,10.61,10.61,0,0,1-3.38,1.29A5.34,5.34,0,0,0,22.57,18a5,5,0,0,0,.15,1.22,15.15,15.15,0,0,1-11-5.57A5.42,5.42,0,0,0,11,16.31a5.34,5.34,0,0,0,2.38,4.44A5.14,5.14,0,0,1,11,20.08v.07a5.33,5.33,0,0,0,4.28,5.23,5.08,5.08,0,0,1-1.4.19,4.78,4.78,0,0,1-1-.1,5.31,5.31,0,0,0,5,3.7,10.65,10.65,0,0,1-7.89,2.2,14.81,14.81,0,0,0,8.15,2.41"/></g></svg>