<svg id="Layer_1" data-name="Layer 1" xmlns="http://www.w3.org/2000/svg" xmlns:xlink="http://www.w3.org/1999/xlink" viewBox="0 0 228.82 117.68"><defs><style>.cls-1{fill:url(#linear-gradient);}.cls-2{fill:none;stroke:#fff;stroke-linecap:round;stroke-miterlimit:10;stroke-width:2px;}.cls-3{fill:url(#linear-gradient-2);}</style><linearGradient id="linear-gradient" x1="-188.87" y1="450.32" x2="-187.99" y2="451.59" gradientTransform="matrix(95, 0, 0, -82, 17993.6, 37081.77)" gradientUnits="userSpaceOnUse"><stop offset="0" stop-color="#d55b0c"/><stop offset="0.39" stop-color="#f38026"/><stop offset="0.52" stop-color="#f49347"/><stop offset="0.7" stop-color="#f4b582"/><stop offset="0.88" stop-color="#f3d5b8"/><stop offset="1" stop-color="#fff"/></linearGradient><linearGradient id="linear-gradient-2" x1="-196.04" y1="452.04" x2="-195.21" y2="450.98" gradientTransform="matrix(7.28, -59.26, -59.26, -7.28, 28346.04, -8277.29)" gradientUnits="userSpaceOnUse"><stop offset="0" stop-color="#ed6711"/><stop offset="0.08" stop-color="#ef7014"/><stop offset="0.2" stop-color="#ef7115"/><stop offset="0.39" stop-color="#f29b57"/><stop offset="0.63" stop-color="#f3be91"/><stop offset="1" stop-color="#fff"/></linearGradient></defs><title>Profile_art</title><g id="Group_390" data-name="Group 390"><path id="Polygon_1" data-name="Polygon 1" class="cls-1" d="M91,35.68l47.5,82h-95Z"/><g id="Group_389" data-name="Group 389"><g id="Group_387" data-name="Group 387"><path id="Path_262" data-name="Path 262" class="cls-2" d="M1.5,75.13c16.08,0,16.08,15.76,32.15,15.76S49.73,75.13,65.81,75.13,81.88,90.89,98,90.89,114,75.13,130.11,75.13s16.08,15.76,32.15,15.76,16.08-15.76,32.16-15.76,16.07,15.76,32.15,15.76"/></g><g id="Group_388" data-name="Group 388"><path id="Path_262-2" data-name="Path 262-2" class="cls-2" d="M1.5,63.09c16.08,0,16.08,15.76,32.16,15.76S49.73,63.09,65.81,63.09,81.88,78.85,98,78.85,114,63.09,130.11,63.09s16.08,15.76,32.15,15.76,16.08-15.76,32.16-15.76,16.07,15.76,32.15,15.76"/></g></g><path id="Path_263" data-name="Path 263" class="cls-3" d="M136.24,26.22a29.86,29.86,0,1,1,26,33.27,29.85,29.85,0,0,1-26-33.27Z"/></g></svg>