<svg id="Layer_1" data-name="Layer 1" xmlns="http://www.w3.org/2000/svg" xmlns:xlink="http://www.w3.org/1999/xlink" viewBox="0 0 220.96 163.29"><defs><style>.cls-1{fill:none;}.cls-2{clip-path:url(#clip-path);}.cls-3{fill:url(#linear-gradient);}.cls-4{fill:url(#linear-gradient-2);}</style><clipPath id="clip-path"><rect class="cls-1" width="220.96" height="163.29"/></clipPath><linearGradient id="linear-gradient" x1="-193.36" y1="476.35" x2="-193.75" y2="475.19" gradientTransform="matrix(220.96, 0, 0, -108.75, 42892.2, 51780.16)" gradientUnits="userSpaceOnUse"><stop offset="0" stop-color="#f37a1f"/><stop offset="0.23" stop-color="#f48735"/><stop offset="0.43" stop-color="#f59045"/><stop offset="0.75" stop-color="#f9bd90"/><stop offset="1" stop-color="#fff"/></linearGradient><linearGradient id="linear-gradient-2" x1="-192.6" y1="474.31" x2="-191.91" y2="475.17" gradientTransform="matrix(86.34, 0, 0, -84.46, 16760.22, 40222.17)" gradientUnits="userSpaceOnUse"><stop offset="0" stop-color="#f37a1f"/><stop offset="0.52" stop-color="#fac399"/><stop offset="0.82" stop-color="#fde4d0"/><stop offset="1" stop-color="#fff"/></linearGradient></defs><title>mutual matrials</title><g class="cls-2"><g id="mutual_matrials" data-name="mutual matrials"><g id="Group_564" data-name="Group 564"><path id="Path_217" data-name="Path 217" class="cls-3" d="M23.34,9.77c6.47,2.55,13.05,4.82,19.59,7.17,6.36,2.28,12.83,4.49,18.79,7.76A38.15,38.15,0,0,1,73.28,34,36.21,36.21,0,0,1,79,44.53c1.49,4.15,2.56,8.45,3.83,12.68a97.71,97.71,0,0,0,6.09,15.72,55.94,55.94,0,0,0,9,13.48,46.59,46.59,0,0,0,11.22,8.68c8.75,4.88,18.68,7.1,28.49,8.3,22,2.67,44.27.67,66.35,2.41a135,135,0,0,1,20,3V0H3A139.23,139.23,0,0,0,23.34,9.77Z"/><ellipse id="Ellipse_17" data-name="Ellipse 17" class="cls-4" cx="165.48" cy="121.06" rx="43.17" ry="42.23"/></g></g></g></svg>