<svg id="Layer_1" data-name="Layer 1" xmlns="http://www.w3.org/2000/svg" xmlns:xlink="http://www.w3.org/1999/xlink" viewBox="0 0 192.47 142.17"><defs><style>.cls-1{fill:url(#linear-gradient);}.cls-2{fill:url(#linear-gradient-2);}</style><linearGradient id="linear-gradient" x1="358.71" y1="484.67" x2="359.1" y2="483.52" gradientTransform="matrix(192.47, 0, 0, -94.73, -68992.24, 45893.42)" gradientUnits="userSpaceOnUse"><stop offset="0" stop-color="#f37a1f"/><stop offset="0.23" stop-color="#f48735"/><stop offset="0.43" stop-color="#f59045"/><stop offset="0.75" stop-color="#f9bd90"/><stop offset="1" stop-color="#fff"/></linearGradient><linearGradient id="linear-gradient-2" x1="356.4" y1="482.6" x2="355.71" y2="483.46" gradientTransform="matrix(74.76, 0, 0, -74.76, -26564.21, 36220.35)" gradientUnits="userSpaceOnUse"><stop offset="0" stop-color="#f37a1f"/><stop offset="0.52" stop-color="#fac399"/><stop offset="0.82" stop-color="#fde4d0"/><stop offset="1" stop-color="#fff"/></linearGradient></defs><title>for_title_colum_lower_part</title><g id="Group_567" data-name="Group 567"><path id="Path_217" data-name="Path 217" class="cls-1" d="M174.75,8.51c-5.64,2.22-11.36,4.2-17.06,6.25-5.54,2-11.18,3.91-16.37,6.75a33.38,33.38,0,0,0-10.07,8.07,31.58,31.58,0,0,0-4.94,9.2c-1.3,3.62-2.23,7.37-3.33,11a84.85,84.85,0,0,1-5.31,13.69,48.47,48.47,0,0,1-7.88,11.75A40.35,40.35,0,0,1,100,82.83C92.4,87.08,83.75,89,75.21,90.06c-19.18,2.33-38.57.58-57.8,2.1A117.53,117.53,0,0,0,0,94.73V0H192.47A120.71,120.71,0,0,1,174.75,8.51Z"/><circle id="Ellipse_17" data-name="Ellipse 17" class="cls-2" cx="50.92" cy="104.79" r="37.38"/></g></svg>