<svg id="Layer_1" data-name="Layer 1" xmlns="http://www.w3.org/2000/svg" xmlns:xlink="http://www.w3.org/1999/xlink" viewBox="0 0 332.05 271.45"><defs><style>.cls-1{fill:none;}.cls-2{clip-path:url(#clip-path);}.cls-3{fill:url(#linear-gradient);}.cls-4{fill:url(#linear-gradient-2);}</style><clipPath id="clip-path"><rect class="cls-1" width="332.05" height="271.45"/></clipPath><linearGradient id="linear-gradient" x1="-138.08" y1="531.64" x2="-138.08" y2="530.98" gradientTransform="matrix(332.05, 0, 0, -254.65, 46015.67, 135487.86)" gradientUnits="userSpaceOnUse"><stop offset="0" stop-color="#dcd5cf"/><stop offset="1" stop-color="#181c4c"/></linearGradient><linearGradient id="linear-gradient-2" x1="-137.41" y1="531.5" x2="-138.12" y2="530.65" gradientTransform="matrix(185.81, 0, 0, -183.94, 25806.72, 97778.89)" gradientUnits="userSpaceOnUse"><stop offset="0" stop-color="#f37a1f"/><stop offset="0.55" stop-color="#f7a364"/><stop offset="0.9" stop-color="#fcdac0"/><stop offset="1" stop-color="#fff"/></linearGradient></defs><title>for_title_colum_lower_part</title><g class="cls-2"><g id="mutual_matrials" data-name="mutual matrials"><g id="Group_565" data-name="Group 565"><path id="Path_216" data-name="Path 216" class="cls-3" d="M280.23,35.22a146.76,146.76,0,0,0-36.76,32.67A130.87,130.87,0,0,0,230,88.27a151,151,0,0,0-9.16,22.45c-5.67,16.65-11.38,33.49-20,48.85-8.35,14.87-19.68,27.81-34.37,36.42-17.5,10.25-38,12.19-57.83,13-18.46.72-37.1.73-54.7,7.14a92.56,92.56,0,0,0-35.31,22.8l-.06.06c-.67.72-1.34,1.44-2,2.18l0,.05c-.66.75-1.31,1.51-1.94,2.28a77.65,77.65,0,0,0-14.6,28H332.05V16.79C313.79,18.67,295.88,25.45,280.23,35.22Z"/><ellipse id="Ellipse_16" data-name="Ellipse 16" class="cls-4" cx="210.75" cy="91.97" rx="92.91" ry="91.97"/></g></g></g></svg>