<svg id="Layer_1" data-name="Layer 1" xmlns="http://www.w3.org/2000/svg" xmlns:xlink="http://www.w3.org/1999/xlink" viewBox="0 0 279.04 214"><defs><style>.cls-1{fill:url(#linear-gradient);}.cls-2{fill:url(#linear-gradient-2);}</style><linearGradient id="linear-gradient" x1="391.96" y1="230.58" x2="391.96" y2="229.93" gradientTransform="matrix(279.04, 0, 0, -214, -109232.13, 49418.13)" gradientUnits="userSpaceOnUse"><stop offset="0" stop-color="#dcd5cf"/><stop offset="1" stop-color="#181c4c"/></linearGradient><linearGradient id="linear-gradient-2" x1="390.59" y1="229.52" x2="389.88" y2="228.66" gradientTransform="matrix(132, 0, 0, -131, -51378.76, 30136.69)" gradientUnits="userSpaceOnUse"><stop offset="0" stop-color="#f37a1f"/><stop offset="0.55" stop-color="#f7a364"/><stop offset="0.9" stop-color="#fcdac0"/><stop offset="1" stop-color="#fff"/></linearGradient></defs><title>for_title_colum_lower_part</title><g id="Group_566" data-name="Group 566"><g id="Group_415" data-name="Group 415"><g id="Group_393" data-name="Group 393"><path id="Path_216" data-name="Path 216" class="cls-1" d="M235.49,15.49A123.38,123.38,0,0,0,204.6,42.94a110.09,110.09,0,0,0-11.31,17.13,128.19,128.19,0,0,0-7.7,18.86c-4.77,14-9.56,28.15-16.81,41.06-7,12.5-16.53,23.37-28.88,30.6-14.71,8.62-32,10.25-48.59,10.89-15.52.6-31.17.61-46,6a77.81,77.81,0,0,0-29.68,19.16l-.05.05c-.57.6-1.13,1.21-1.67,1.84l0,0c-.56.63-1.1,1.26-1.63,1.91A65.11,65.11,0,0,0,0,214H279V0C263.7,1.58,248.65,7.28,235.49,15.49Z"/></g></g><g id="Group_474" data-name="Group 474"><g id="Group_393-2" data-name="Group 393-2"><ellipse id="Ellipse_16" data-name="Ellipse 16" class="cls-2" cx="134.04" cy="123.5" rx="66" ry="65.5"/></g></g></g></svg>